SplineFontDB: 3.0
FontName: Garamond-Math
FullName: Garamond-Math
FamilyName: Garamond-Math
Weight: Regular
Copyright: 
Version: 0.1
ItalicAngle: 0
UnderlinePosition: -200
UnderlineWidth: 40
Ascent: 782
Descent: 218
InvalidEm: 0
sfntRevision: 0x0000199a
LayerCount: 2
Layer: 0 0 "Back" 1
Layer: 1 0 "Fore" 0
XUID: [1021 70 263418660 10072]
StyleMap: 0x0040
FSType: 8
OS2Version: 4
OS2_WeightWidthSlopeOnly: 0
OS2_UseTypoMetrics: 1
CreationTime: 1409921248
ModificationTime: 1524131182
PfmFamily: 17
TTFWeight: 400
TTFWidth: 5
LineGap: 200
VLineGap: 0
Panose: 2 0 5 3 0 0 0 0 0 0
OS2TypoAscent: 782
OS2TypoAOffset: 0
OS2TypoDescent: -218
OS2TypoDOffset: 0
OS2TypoLinegap: 200
OS2WinAscent: 2274
OS2WinAOffset: 0
OS2WinDescent: 1774
OS2WinDOffset: 0
HheadAscent: 782
HheadAOffset: 0
HheadDescent: -218
HheadDOffset: 0
OS2SubXSize: 650
OS2SubYSize: 699
OS2SubXOff: 0
OS2SubYOff: 140
OS2SupXSize: 650
OS2SupYSize: 699
OS2SupXOff: 0
OS2SupYOff: 479
OS2StrikeYSize: 49
OS2StrikeYPos: 258
OS2CapHeight: 662
OS2XHeight: 450
OS2Vendor: 'PfEd'
OS2CodePages: 60000193.0dd40000
OS2UnicodeRanges: a10000ef.4201f9ee.02000000.00000000
Lookup: 3 0 0 "'aalt' Access All Alternates in Mathematical Alphanumeric Symbols lookup 0" { "'aalt' Access All Alternates in Mathematical Alphanumeric Symbols lookup 0 subtable"  } ['aalt' ('math' <'dflt' > ) ]
Lookup: 1 0 0 "'dtls' Dotless Forms in Mathematical Alphanumeric Symbols lookup 1" { "'dtls' Dotless Forms in Mathematical Alphanumeric Symbols lookup 1 subtable"  } ['dtls' ('math' <'dflt' > ) ]
Lookup: 3 0 0 "'ssty' Script Style in Mathematical Alphanumeric Symbols lookup 2" { "'ssty' Script Style in Mathematical Alphanumeric Symbols lookup 2 subtable"  } ['ssty' ('math' <'dflt' > ) ]
Lookup: 258 0 0 "mkn" { "mkn-1"  } []
MarkAttachClasses: 1
DEI: 91125

StartChar: A
Encoding: 65 65 0
Width: 700
GlyphClass: 2
Flags: HW
TeX: 685 5
ItalicCorrection: 12
TopAccentHorizontal: 348
HStem: -5 37<-0.974098 68.9199 195.605 267.82 389.959 469.5 624.133 704.044> 245 38<242.006 424.243>
LayerCount: 2
Fore
SplineSet
27 -5 m 0
 10 -5 -2 0 -2 9 c 0
 -2 19 9 25 29 32 c 0
 65 42 94 60 114 106 c 0
 186 271 233 391 298 568 c 0
 308 596 312 615 315 632 c 1
 330 636 343 640 359 648 c 0
 374 656 381 676 386 683 c 0
 388 685 392 685 394 681 c 0
 397 674 399 666 402 658 c 0
 464 461 540 237 579 122 c 0
 603 52 635 37 675 29 c 0
 696 25 706 17 706 7 c 0
 706 -1 694 -4 679 -4 c 0
 648 -4 579 1 534 1 c 0
 495 1 445 -1 417 -1 c 0
 401 -1 390 4 390 12 c 0
 390 22 403 29 420 32 c 0
 466 40 485 55 483 81 c 0
 481 112 459 184 445 232 c 0
 442 242 437 245 421 245 c 2
 235 245 l 2
 228 245 222 240 218 227 c 0
 208 198 181 111 179 92 c 0
 176 60 199 41 238 31 c 0
 259 26 268 20 268 10 c 0
 268 2 257 -1 241 -1 c 0
 217 -1 183 1 145 1 c 0
 102 1 62 -5 27 -5 c 0
262 283 m 2
 411 283 l 2
 421 283 425 284 425 289 c 0
 425 292 424 295 423 299 c 2
 348 538 l 2
 344 549 343 554 340 554 c 0
 338 554 336 548 332 539 c 2
 244 299 l 2
 243 296 242 293 242 291 c 0
 242 284 250 283 262 283 c 2
EndSplineSet
EndChar

StartChar: B
Encoding: 66 66 1
Width: 601
GlyphClass: 2
Flags: HW
TeX: 657 5
TopAccentHorizontal: 283
HStem: -5 31<19.5734 94.0595> -4 45<234.336 373.066> 338 32<230.173 351.745> 623 34<27.6728 102.292 228.746 360.271>
VStem: 123 98<53.8594 331.27 373.83 606.63> 419 102<430.426 574.32> 448 113<113.987 269.638>
LayerCount: 2
Fore
SplineSet
46 -5 m 0xba
 30 -5 19 -1 19 7 c 0
 19 16 28 22 49 26 c 0
 98 36 123 52 123 98 c 2
 123 549 l 2
 123 596 107 615 58 621 c 0
 37 623 28 632 28 641 c 0
 28 649 39 653 55 653 c 0
 111 653 124 651 167 651 c 0
 207 651 225 657 286 657 c 0
 443 657 521 617 521 508 c 0xbc
 521 464 502 427 483 410 c 0
 462 389 446 379 414 368 c 0
 409 366 408 360 414 358 c 0
 477 340 561 310 561 194 c 0
 561 83 498 50 457 29 c 0
 415 8 361 -4 285 -4 c 0x7a
 260 -4 221 0 179 0 c 0
 129 0 100 -5 46 -5 c 0xba
266 370 m 0
 301 370 340 376 377 399 c 0
 390 407 419 436 419 493 c 0
 419 557 393 623 284 623 c 0
 233 623 221 609 221 579 c 2
 221 407 l 2
 221 374 250 370 266 370 c 0
296 41 m 0x7a
 377 41 448 104 448 188 c 0
 448 263 405 299 380 314 c 0
 364 324 331 338 276 338 c 0
 239 338 221 318 221 303 c 2
 221 110 l 2
 221 58 248 41 296 41 c 0x7a
EndSplineSet
EndChar

StartChar: C
Encoding: 67 67 2
Width: 714
GlyphClass: 2
Flags: HW
TeX: 663 15
TopAccentHorizontal: 404
HStem: -15 37<341.583 518.222> 627 37<329.784 525.424>
VStem: 46 119<216.694 432.162> 617 35<474.404 537.477>
LayerCount: 2
Fore
SplineSet
411 -15 m 0
 219 -15 46 118 46 321 c 0
 46 512 220 664 437 664 c 0
 510 664 552 652 616 635 c 0
 634 630 642 620 644 603 c 0
 648 568 651 533 652 486 c 0
 653 469 623 462 617 485 c 0
 605 531 592 566 560 590 c 0
 528 613 480 627 422 627 c 0
 271 627 165 491 165 346 c 0
 165 180 265 22 427 22 c 0
 524 22 583 67 626 148 c 0
 635 167 661 167 661 146 c 0
 661 127 647 77 635 44 c 0
 626 26 623 23 604 16 c 0
 555 -5 481 -15 411 -15 c 0
EndSplineSet
EndChar

StartChar: D
Encoding: 68 68 3
Width: 761
GlyphClass: 2
Flags: HW
TeX: 659 7
TopAccentHorizontal: 318
HStem: -7 39<29.5734 114.012 218.323 459.885> 622 37<29.0337 106.078 238.735 443.944>
VStem: 126 100<64.8049 604.826> 613 115<223.258 445.553>
LayerCount: 2
Fore
SplineSet
377 -7 m 0
 344 -7 238 0 171 0 c 0
 131 0 107 -5 56 -5 c 0
 41 -5 29 -1 29 9 c 0
 29 20 38 22 59 26 c 0
 109 35 126 53 126 99 c 2
 126 549 l 2
 126 596 109 611 59 621 c 0
 38 625 29 629 29 640 c 0
 29 649 41 653 56 653 c 0
 105 653 129 651 175 651 c 0
 217 651 322 659 355 659 c 0
 607 659 728 519 728 340 c 0
 728 152 577 -7 377 -7 c 0
365 32 m 0
 515 32 613 151 613 321 c 0
 613 509 488 622 351 622 c 0
 270 622 226 621 226 567 c 2
 226 124 l 2
 226 47 291 32 365 32 c 0
EndSplineSet
EndChar

StartChar: E
Encoding: 69 69 4
Width: 574
GlyphClass: 2
Flags: HW
TeX: 653 5
ItalicCorrection: 14
TopAccentHorizontal: 288
HStem: -5 31<37.5734 111.174> 1 37<249.621 463.629> 317 36<238.608 396.622> 616 34<45.7846 124.1 244.867 450.616>
VStem: 138 100<46.3005 316.764 352.8 605.843> 412 31<238.543 299.985 368.664 425.471> 489 27<516.812 566.362>
LayerCount: 2
Fore
SplineSet
64 -5 m 0xbe
 48 -5 37 -1 37 7 c 0
 37 16 46 22 67 26 c 0xbe
 116 36 138 52 138 98 c 2
 138 549 l 2
 138 596 123 612 73 621 c 0
 52 625 42 632 42 641 c 0
 42 649 53 653 69 653 c 0
 137 653 175 650 239 650 c 0
 289 650 350 651 397 651 c 1
 414 651 478 655 480 655 c 1
 488 655 499 652 500 643 c 0
 507 602 516 562 516 533 c 0
 516 521 508 517 502 517 c 0
 495 517 492 520 489 528 c 0
 480 553 473 577 463 588 c 0
 445 608 423 616 395 616 c 2
 279 616 l 2
 263 616 238 602 238 581 c 2
 238 375 l 2
 238 361 246 353 258 353 c 2
 354 353 l 2
 392 353 402 369 412 405 c 0
 416 419 422 426 430 426 c 0
 435 426 443 419 443 408 c 0
 442 395 440 353 440 335 c 0
 440 313 441 270 442 257 c 0
 442 246 441 237 433 237 c 0
 423 237 415 249 410 268 c 0
 401 301 389 317 363 317 c 2
 270 317 l 2
 249 317 238 313 238 292 c 2
 238 101 l 2
 238 53 257 38 300 38 c 2
 378 38 l 2
 417 38 444 42 465 56 c 0
 486 71 502 95 522 133 c 0
 526 142 531 147 538 146 c 0
 545 145 549 139 549 131 c 0
 549 109 530 43 518 11 c 0
 514 2 510 -5 502 -5 c 0
 399 -5 289 1 185 1 c 0x7e
 141 1 115 -5 64 -5 c 0xbe
EndSplineSet
EndChar

StartChar: F
Encoding: 70 70 5
Width: 525
GlyphClass: 2
Flags: HW
TeX: 660 5
ItalicCorrection: 18
TopAccentHorizontal: 258
HStem: -5 31<30.5519 103.148 254.696 326.722> 317 37<227.03 394.312> 614 36<232.919 436.851> 621 32<36.3701 103.055>
VStem: 127 99<47.6684 315.217 351.208 603.699> 410 32<251.705 302.051> 473 26<518.193 564.833>
LayerCount: 2
Fore
SplineSet
57 -5 m 0xee
 42 -5 30 -1 30 7 c 0
 30 17 39 22 60 26 c 0
 110 35 127 52 127 99 c 2
 127 528 l 2
 127 584 115 612 66 621 c 0
 45 625 36 632 36 641 c 0
 36 649 47 653 63 653 c 0xde
 130 653 165 650 228 650 c 2
 367 650 l 2
 413 650 449 660 475 660 c 0
 482 660 493 658 494 649 c 0
 497 620 499 557 499 538 c 0
 499 526 496 518 490 518 c 0
 483 518 475 523 473 531 c 0
 466 556 458 575 447 587 c 0
 428 607 405 614 378 614 c 2
 266 614 l 2
 235 614 227 592 226 565 c 1
 225 550 226 490 226 469 c 1
 226 436 225 400 226 374 c 0
 226 362 229 351 240 351 c 0
 280 351 325 354 351 354 c 0
 381 354 400 373 411 398 c 0
 413 405 425 415 430 415 c 0
 435 415 444 407 443 397 c 0
 441 372 439 355 439 338 c 0
 439 316 440 298 442 269 c 0
 442 258 441 250 433 250 c 0
 420 250 412 264 410 273 c 0
 400 306 380 316 362 316 c 0
 345 316 329 317 313 317 c 0
 291 317 271 317 250 315 c 0
 237 314 226 307 226 291 c 0
 226 230 227 165 229 100 c 0
 231 57 245 35 297 26 c 0
 318 22 327 18 327 8 c 0
 327 0 317 -4 301 -4 c 0
 250 -4 226 2 188 2 c 0
 141 2 109 -5 57 -5 c 0xee
EndSplineSet
EndChar

StartChar: G
Encoding: 71 71 6
Width: 732
GlyphClass: 2
Flags: HW
TeX: 663 14
ItalicCorrection: 15
TopAccentHorizontal: 389
HStem: -14 41<314.677 496.636> 259 35<425.842 520.14 644.525 697.641> 621 42<321.601 518.744>
VStem: 45 117<199.507 425.254> 546 81<71.8712 239.278> 599 39<485.275 547.265>
LayerCount: 2
Fore
SplineSet
393 -14 m 0xf8
 206 -14 45 125 45 312 c 0
 45 506 209 663 416 663 c 0
 464 663 585 644 616 630 c 0
 623 627 627 623 628 614 c 0
 633 573 638 532 638 505 c 0
 638 495 631 485 623 485 c 0
 609 485 603 499 599 511 c 0xf4
 590 533 581 550 563 570 c 0
 547 588 500 621 412 621 c 0
 260 621 162 482 162 328 c 0
 162 140 276 27 408 27 c 0
 473 27 503 49 515 61 c 0
 530 74 544 101 544 135 c 0
 544 152 546 181 546 199 c 0
 546 213 544 226 536 231 c 0
 519 250 467 258 447 259 c 0
 440 260 426 267 426 277 c 0
 426 287 440 294 446 294 c 0
 494 294 527 290 579 290 c 0
 615 290 641 294 678 294 c 0
 684 294 698 291 698 278 c 0
 698 268 684 260 677 259 c 0
 646 250 636 237 632 210 c 0
 627 181 627 160 627 135 c 2
 627 107 l 2
 627 100 631 96 635 90 c 0
 639 83 647 78 647 72 c 0
 647 66 645 54 631 52 c 0
 611 49 522 -14 393 -14 c 0xf8
EndSplineSet
EndChar

StartChar: H
Encoding: 72 72 7
Width: 818
GlyphClass: 2
Flags: HW
TeX: 653 5
ItalicCorrection: 8
TopAccentHorizontal: 404
HStem: -5 31<37.2085 106.82 262.947 332.28 495.121 564.891 709.383 777.792> 306 42<226.8 592> 621 32<42.7356 112.269 251.547 323.555 496.466 568.205 707.527 776.046>
VStem: 127 100<53.0005 305.8 347.8 602.74> 592 100<46.5819 305.8 347.8 603.289>
LayerCount: 2
Fore
SplineSet
64 -5 m 0
 49 -5 37 1 37 9 c 0
 37 19 45 22 66 26 c 0
 115 35 127 53 127 99 c 2
 127 551 l 2
 127 596 122 611 72 621 c 0
 51 625 42 630 42 640 c 0
 42 648 52 653 69 653 c 0
 121 653 141 650 181 650 c 0
 221 650 246 653 298 653 c 0
 316 653 324 649 324 640 c 0
 324 630 315 625 294 621 c 0
 243 610 227 590 227 551 c 2
 227 358 l 2
 227 350 234 348 241 348 c 2
 583 348 l 2
 589 348 592 352 592 361 c 2
 592 552 l 2
 592 589 577 610 526 621 c 0
 505 625 496 630 496 640 c 0
 496 649 506 653 522 653 c 0
 574 653 603 650 647 650 c 0
 684 650 698 653 750 653 c 0
 767 653 776 648 776 640 c 0
 776 630 767 625 747 621 c 0
 697 611 692 591 692 552 c 2
 692 99 l 2
 692 52 700 35 749 26 c 0
 770 22 778 19 778 9 c 0
 778 1 766 -5 751 -5 c 0
 701 -5 680 0 639 0 c 0
 597 0 573 -4 521 -4 c 0
 506 -4 495 1 495 9 c 0
 495 19 503 22 524 26 c 0
 568 35 592 55 592 97 c 2
 592 290 l 2
 592 298 592 306 585 306 c 2
 234 306 l 2
 227 306 227 302 227 293 c 2
 227 104 l 2
 227 63 256 35 303 26 c 0
 324 22 332 19 332 9 c 0
 332 1 322 -4 306 -4 c 0
 255 -4 225 0 181 0 c 0
 138 0 114 -5 64 -5 c 0
EndSplineSet
EndChar

StartChar: I
Encoding: 73 73 8
Width: 348
GlyphClass: 2
Flags: HW
TeX: 653 5
ItalicCorrection: 10
TopAccentHorizontal: 176
HStem: -5 31<19.5519 94.8689 253.668 329.506> 621 32<28.2818 102.19 247.888 322.976>
VStem: 124 100<47.4865 603.127>
LayerCount: 2
Fore
SplineSet
46 -5 m 0
 31 -5 19 -1 19 7 c 0
 19 17 28 22 49 26 c 0
 99 35 124 53 124 98 c 2
 124 550 l 2
 124 596 108 611 57 621 c 0
 36 625 28 632 28 642 c 0
 28 650 39 653 54 653 c 0
 106 653 133 650 178 650 c 0
 220 650 246 653 297 653 c 0
 312 653 324 649 324 641 c 0
 324 631 315 625 294 621 c 0
 243 610 224 595 224 550 c 2
 224 98 l 2
 224 53 250 36 300 26 c 0
 321 22 330 18 330 8 c 0
 330 0 319 -4 304 -4 c 0
 252 -4 222 0 178 0 c 0
 130 0 98 -5 46 -5 c 0
EndSplineSet
EndChar

StartChar: J
Encoding: 74 74 9
Width: 359
GlyphClass: 2
Flags: HW
TeX: 653 200
ItalicCorrection: 9
TopAccentHorizontal: 178
HStem: -200 41<32.4364 104.27> 621 32<36.6182 109.58 248.345 319.777>
VStem: 132 100<-38.4163 604.934>
LayerCount: 2
Fore
SplineSet
44 -200 m 0
 -31 -200 -69 -182 -69 -149 c 0
 -69 -125 -44 -99 -27 -99 c 0
 -10 -99 5 -106 19 -123 c 0
 38 -147 50 -159 67 -159 c 0
 112 -159 132 -102 132 1 c 2
 132 551 l 2
 132 596 115 611 66 621 c 0
 46 625 36 632 36 642 c 0
 36 650 47 653 62 653 c 0
 114 653 143 650 187 650 c 0
 225 650 243 653 294 653 c 0
 309 653 320 649 320 641 c 0
 320 631 311 625 291 621 c 0
 240 610 232 596 232 551 c 2
 232 57 l 2
 232 -19 188 -91 152 -135 c 0
 121 -173 86 -200 44 -200 c 0
EndSplineSet
EndChar

StartChar: K
Encoding: 75 75 10
Width: 707
GlyphClass: 2
Flags: HW
TeX: 655 5
ItalicCorrection: 29
TopAccentHorizontal: 360
HStem: -5 32<31.4715 105.753 258.117 325.353 413.608 467.101 634.872 713.962> 317 25<227.71 251.205> 621 32<31.8183 105.68 244.811 313.377 420.948 470.724 599.885 698.786>
VStem: 128 100<50.1281 316.591 341.409 604.934>
LayerCount: 2
Fore
SplineSet
60 -5 m 0
 44 -5 31 -1 31 7 c 0
 31 17 41 23 62 27 c 0
 112 36 128 52 128 100 c 2
 128 551 l 2
 128 596 111 611 61 621 c 0
 40 625 31 632 31 642 c 0
 31 650 43 653 58 653 c 0
 110 653 135 651 178 651 c 0
 216 651 237 653 288 653 c 0
 303 653 314 649 314 641 c 0
 314 631 304 625 284 621 c 0
 233 610 228 590 228 551 c 2
 228 359 l 2
 228 353 229 341 234 341 c 0
 241 341 252 351 260 359 c 2
 458 563 l 2
 468 573 474 585 474 594 c 0
 474 605 465 615 449 619 c 0
 428 624 421 629 421 639 c 0
 421 647 432 651 447 651 c 2
 505 651 l 2
 565 651 649 655 677 655 c 0
 690 655 700 651 700 643 c 0
 700 633 689 627 668 623 c 0
 613 614 559 595 515 558 c 0
 446 501 396 449 328 377 c 0
 322 371 325 364 332 356 c 2
 574 96 l 2
 613 52 626 39 682 27 c 0
 703 22 714 18 714 8 c 0
 714 0 702 -5 683 -5 c 0
 624 -5 590 0 533 0 c 0
 502 0 485 -1 440 -1 c 0
 425 -1 414 2 414 10 c 0
 414 20 421 25 439 29 c 0
 461 34 470 42 470 51 c 0
 470 59 464 68 455 78 c 2
 256 300 l 2
 248 309 238 317 233 317 c 0
 228 317 228 304 228 296 c 0
 228 234 229 183 232 107 c 0
 234 66 244 37 294 27 c 0
 315 23 326 18 326 8 c 0
 326 0 313 -5 297 -5 c 0
 241 -5 227 2 189 2 c 0
 142 2 117 -5 60 -5 c 0
EndSplineSet
EndChar

StartChar: L
Encoding: 76 76 11
Width: 585
GlyphClass: 2
Flags: HW
TeX: 653 5
ItalicCorrection: 15
TopAccentHorizontal: 175
HStem: -5 44<232.323 483.852> -5 31<27.3409 93.4683> 621 32<33.6182 110.23 251.76 337.777>
VStem: 125 100<47.7609 601.784> 542 36<141.886 166.908>
LayerCount: 2
Fore
SplineSet
53 -5 m 1x78
 37 -5 27 1 27 8 c 0
 27 19 43 25 49 26 c 0x78
 99 37 125 53 125 96 c 2
 125 558 l 2
 125 605 113 611 63 621 c 0
 42 625 33 632 33 642 c 0
 33 650 44 653 59 653 c 0
 111 653 137 650 180 650 c 0
 227 650 261 653 312 653 c 0
 327 653 338 649 338 641 c 0
 338 631 330 625 309 621 c 0
 258 610 225 602 225 563 c 2
 225 98 l 2
 225 58 237 39 296 39 c 2
 414 39 l 2xb8
 448 39 476 53 490 66 c 0
 515 88 526 104 542 139 c 0
 547 152 556 169 565 169 c 0
 573 169 578 159 578 151 c 0
 578 149 576 144 576 142 c 0
 561 88 553 56 549 12 c 0
 548 3 544 -5 534 -5 c 0
 422 -5 295 0 190 0 c 0
 142 0 62 -5 53 -5 c 1x78
EndSplineSet
EndChar

StartChar: M
Encoding: 77 77 12
Width: 907
GlyphClass: 2
Flags: HW
TeX: 656 10
TopAccentHorizontal: 442
HStem: -4 31<19.7872 82.6032 197.729 264.962 577.267 644.962 799.397 872.005> 623 33<42.6679 114.442 781.849 850.417>
VStem: 649 96<302.1 447.456> 661 211<7.59961 96.4004>
LayerCount: 2
Fore
SplineSet
46 -5 m 0xe0
 29 -5 19 -1 19 7 c 0
 19 17 29 21 50 25 c 0
 83 33 105 59 112 104 c 0
 133 261 150 423 153 525 c 1
 153 531 153 553 152 559 c 1
 151 573 149 584 135 595 c 0
 113 612 93 617 65 623 c 0
 52 626 42 634 42 644 c 0
 42 654 55 656 74 656 c 0
 104 656 199 648 235 648 c 0
 244 648 252 642 255 632 c 0
 263 608 268 582 278 556 c 2
 433 169 l 2
 437 160 449 157 453 166 c 2
 635 555 l 1
 642 583 650 615 654 635 c 0
 656 643 659 648 665 648 c 2
 703 648 l 2
 747 649 804 656 830 656 c 0
 838 656 852 654 852 645 c 0
 852 635 844 631 826 624 c 0
 811 618 791 611 776 604 c 0
 756 595 744 582 745 559 c 0xe0
 747 371 759 253 768 96 c 0
 770 57 794 36 842 27 c 0
 863 23 872 18 872 8 c 0
 872 0 861 -4 846 -4 c 0
 795 -4 763 0 719 0 c 0
 678 0 656 -5 604 -5 c 0
 588 -5 577 -1 577 7 c 0
 577 17 586 24 607 27 c 0
 649 33 662 50 661 96 c 0xd0
 660 234 655 333 649 462 c 0
 647 474 641 474 635 462 c 2
 415 -3 l 2
 411 -13 398 -12 395 -3 c 0
 339 153 277 298 206 466 c 0
 203 474 193 473 192 464 c 0
 176 334 167 230 167 102 c 0
 167 66 190 36 234 27 c 0
 255 23 266 18 266 8 c 0
 266 0 253 -4 238 -4 c 0
 184 -4 180 0 142 0 c 0
 104 0 88 -5 46 -5 c 0xe0
EndSplineSet
EndChar

StartChar: N
Encoding: 78 78 13
Width: 796
GlyphClass: 2
Flags: HW
TeX: 658 17
ItalicCorrection: 13
TopAccentHorizontal: 397
HStem: -5 32<33.761 92.405 207.166 278.14> 619 32<543.049 617.452 706.05 785.057> 620 38<13.2362 85.4964>
VStem: 139 40<307.709 494.391> 643 45<154.804 599.724>
LayerCount: 2
Fore
SplineSet
672 -17 m 0xd8
 658 -17 616 1 581 47 c 1
 539 97 256 428 209 480 c 0
 201 490 195 494 190 494 c 0
 183 494 181 482 181 474 c 0
 179 377 179 223 179 106 c 0
 179 68 196 36 247 26 c 0
 268 22 279 18 279 8 c 0
 279 0 266 -4 251 -4 c 0
 197 -4 190 0 152 0 c 0
 114 0 103 -5 61 -5 c 0
 46 -5 33 -1 33 7 c 0
 33 17 43 21 64 27 c 0
 100 37 116 68 120 109 c 0
 128 184 139 342 139 507 c 0
 139 577 99 601 42 620 c 0
 34 622 12 632 12 644 c 0
 12 656 27 658 36 658 c 0xb8
 106 656 129 653 201 653 c 0
 212 653 217 646 223 638 c 0
 265 587 568 222 611 173 c 0
 616 167 627 155 634 155 c 0
 639 155 642 161 643 174 c 0
 644 224 645 401 644 562 c 0
 643 591 610 613 582 619 c 0
 561 623 542 629 542 639 c 0
 542 647 563 651 578 651 c 1
 594 651 635 650 646 650 c 1
 692 650 700 653 759 653 c 0
 776 653 787 650 787 642 c 0
 787 632 777 625 756 621 c 0
 707 612 694 600 692 565 c 0
 691 520 688 264 688 119 c 0
 688 71 695 27 695 13 c 0
 695 -11 684 -17 672 -17 c 0xd8
EndSplineSet
EndChar

StartChar: O
Encoding: 79 79 14
Width: 771
GlyphClass: 2
Flags: HW
TeX: 664 14
TopAccentHorizontal: 382
HStem: -14 42<308.554 489.011> 621 43<275.059 464.797>
VStem: 45 115<212.995 438.806> 611 115<211.301 437.028>
LayerCount: 2
Fore
SplineSet
381 -14 m 0
 203 -14 45 118 45 315 c 0
 45 495 165 664 390 664 c 0
 568 664 726 532 726 335 c 0
 726 155 606 -14 381 -14 c 0
397 28 m 0
 540 28 611 130 611 285 c 0
 611 465 532 621 373 621 c 0
 232 621 160 519 160 365 c 0
 160 185 238 28 397 28 c 0
EndSplineSet
EndChar

StartChar: P
Encoding: 80 80 15
Width: 567
GlyphClass: 2
Flags: HW
TeX: 658 5
ItalicCorrection: 14
TopAccentHorizontal: 276
HStem: -5 31<24.5519 98.6663 254.158 323.923> 248 33<268.875 381.871> 626 32<34.5256 94.8872 235.99 362.442>
VStem: 126 100<47.3222 603.699> 440 104<370.217 557.558>
LayerCount: 2
Fore
SplineSet
51 -5 m 0
 36 -5 24 -1 24 7 c 0
 24 17 33 22 54 26 c 0
 104 35 126 52 126 99 c 2
 126 528 l 2
 126 584 114 612 65 621 c 0
 44 625 34 632 34 641 c 0
 34 649 45 653 61 653 c 0
 113 653 128 652 169 652 c 0
 211 652 250 658 288 658 c 0
 443 658 544 590 544 476 c 0
 544 352 470 248 315 248 c 0
 284 248 268 259 268 269 c 0
 268 276 277 284 284 284 c 0
 292 284 304 281 329 281 c 0
 403 281 440 351 440 465 c 0
 440 576 378 626 288 626 c 0
 250 626 226 613 226 582 c 2
 225 108 l 2
 225 61 243 35 295 26 c 0
 316 22 324 18 324 8 c 0
 324 0 314 -4 299 -4 c 0
 247 -4 223 2 185 2 c 0
 136 2 103 -5 51 -5 c 0
EndSplineSet
EndChar

StartChar: Q
Encoding: 81 81 16
Width: 768
GlyphClass: 2
Flags: HW
TeX: 664 248
ItalicCorrection: 7
TopAccentHorizontal: 372
HStem: -248 60<684.351 847.417> 620 44<275.059 464.797>
VStem: 45 115<214.275 438.987> 611 115<208.716 437.207>
LayerCount: 2
Fore
SplineSet
744 -248 m 0
 652 -248 584 -219 519 -172 c 0
 468 -136 428 -109 367 -58 c 0
 325 -23 287 -5 253 10 c 0
 150 56 45 145 45 315 c 0
 45 495 165 664 390 664 c 0
 568 664 726 532 726 335 c 0
 726 187 645 47 492 2 c 0
 485 0 483 -4 483 -6 c 0
 483 -9 484 -12 487 -15 c 0
 524 -54 559 -85 609 -122 c 0
 676 -172 727 -188 799 -188 c 0
 821 -188 840 -186 849 -182 c 0
 855 -180 863 -178 869 -178 c 0
 878 -178 885 -182 885 -190 c 0
 885 -202 881 -207 866 -216 c 0
 830 -238 787 -248 744 -248 c 0
397 28 m 0
 540 28 611 129 611 285 c 0
 611 466 532 620 373 620 c 0
 232 620 160 520 160 365 c 0
 160 183 238 28 397 28 c 0
EndSplineSet
EndChar

StartChar: R
Encoding: 82 82 17
Width: 727
GlyphClass: 2
Flags: HW
TeX: 657 21
ItalicCorrection: 20
TopAccentHorizontal: 237
HStem: -21 55<616.428 723.328> -5 31<24.5519 98.6663 254.158 323.923> 623 34<34.471 109.185 240.322 355.027>
VStem: 126 100<48.2346 307.24 335.254 610.321> 414 106<411.919 573.245>
LayerCount: 2
Fore
SplineSet
641 -21 m 0xb8
 572 -21 525 -2 489 43 c 0
 442 103 407 146 345 252 c 0
 335 269 324 280 306 289 c 0
 282 301 255 305 239 307 c 0
 229 308 225 299 225 287 c 2
 225 107 l 2
 225 64 243 35 295 26 c 0
 316 22 324 18 324 8 c 0
 324 0 314 -4 299 -4 c 0
 247 -4 223 2 185 2 c 0
 136 2 103 -5 51 -5 c 0
 36 -5 24 -1 24 7 c 0
 24 17 33 22 54 26 c 0x78
 104 35 126 52 126 99 c 2
 126 532 l 2
 126 601 120 614 65 621 c 0
 44 623 34 632 34 641 c 0
 34 649 45 653 61 653 c 0
 117 653 126 651 169 651 c 0
 209 651 228 657 290 657 c 0
 438 657 521 603 521 494 c 0
 521 404 456 355 399 329 c 0
 394 327 395 322 399 317 c 0
 460 224 510 148 596 70 c 0
 633 36 670 34 717 34 c 0
 727 34 732 30 732 21 c 0
 732 -12 678 -21 641 -21 c 0xb8
274 333 m 0
 362 333 414 399 414 476 c 0
 414 560 390 623 278 623 c 0
 238 623 229 601 227 530 c 0
 226 497 225 444 225 368 c 0
 225 336 243 333 274 333 c 0
EndSplineSet
EndChar

StartChar: S
Encoding: 83 83 18
Width: 477
GlyphClass: 2
Flags: HW
TeX: 664 16
TopAccentHorizontal: 245
HStem: -16 36<163.649 288.405> 626 38<191.922 319.885>
VStem: 40 37<122.279 181.37> 59 92<464.298 565.185> 339 97<88.646 211.974>
LayerCount: 2
Fore
SplineSet
212 -16 m 0xd8
 156 -16 106 0 67 31 c 0
 61 36 54 44 51 52 c 0
 42 81 41 133 40 168 c 0
 40 177 49 181 60 181 c 0
 69 181 75 178 77 170 c 0xe8
 104 68 164 20 226 20 c 0
 294 20 339 70 339 136 c 0
 339 213 299 239 226 283 c 0
 146 332 59 377 59 479 c 0
 59 584 136 664 275 664 c 0
 324 664 363 651 386 641 c 0
 398 637 405 628 409 615 c 0
 417 587 427 547 427 511 c 0
 427 503 420 499 411 499 c 0
 399 499 386 506 383 514 c 0
 357 586 319 626 260 626 c 0
 200 626 151 597 151 519 c 0
 151 462 213 423 290 377 c 0
 370 328 436 279 436 182 c 0
 436 58 346 -16 212 -16 c 0xd8
EndSplineSet
EndChar

StartChar: T
Encoding: 84 84 19
Width: 679
GlyphClass: 2
Flags: HW
TeX: 694 5
ItalicCorrection: 10
TopAccentHorizontal: 348
HStem: -5 31<187.195 263.346 425.437 500.672> 610 34<113.682 286.005 402.225 601.973>
VStem: 294 100<48.6487 605.193> 624 38<516.963 589.951>
LayerCount: 2
Fore
SplineSet
214 -5 m 0
 199 -5 187 -1 187 7 c 0
 187 17 196 22 217 26 c 0
 267 35 294 55 294 101 c 2
 294 496 l 2
 294 584 288 602 274 605 c 0
 257 609 238 610 210 610 c 2
 169 610 l 2
 135 610 97 594 81 566 c 0
 74 554 52 525 36 525 c 0
 29 525 27 532 27 539 c 0
 27 545 29 555 32 561 c 0
 53 602 60 628 66 672 c 0
 69 693 78 695 85 695 c 0
 91 695 104 674 112 663 c 0
 121 650 156 644 182 644 c 2
 541 644 l 2
 583 644 610 650 629 659 c 0
 646 668 654 682 670 682 c 0
 675 682 678 670 678 660 c 0
 678 653 676 640 675 634 c 0
 668 596 662 591 662 563 c 2
 662 549 l 2
 662 535 657 517 646 517 c 0
 636 517 630 531 624 557 c 0
 617 591 593 610 531 610 c 2
 443 610 l 2
 400 610 394 602 394 497 c 2
 394 101 l 2
 394 55 420 36 471 26 c 0
 492 22 501 18 501 8 c 0
 501 0 489 -4 474 -4 c 0
 423 -4 393 0 348 0 c 0
 300 0 266 -5 214 -5 c 0
EndSplineSet
EndChar

StartChar: U
Encoding: 85 85 20
Width: 744
GlyphClass: 2
Flags: HW
TeX: 653 14
ItalicCorrection: 11
TopAccentHorizontal: 376
HStem: -14 60<304.553 480.393> 620 34<25.2168 83.6676 223.606 279.406 513.313 567.718 669.586 732.747>
VStem: 103 100<156.053 603.746> 591 58<321.285 600.986> 594 46<163.853 463.378>
LayerCount: 2
Fore
SplineSet
376 -14 m 0xe8
 195 -14 103 89 103 244 c 2
 103 545 l 2
 103 590 81 613 56 620 c 0
 34 626 24 633 24 642 c 0
 24 650 36 654 53 654 c 0
 86 654 119 650 157 650 c 0
 190 650 226 652 252 652 c 0
 269 652 280 649 280 641 c 0
 280 630 266 626 244 618 c 0
 227 612 203 586 203 545 c 2
 203 269 l 2
 203 115 287 46 400 46 c 0
 533 46 594 141 594 295 c 0xe8
 594 341 593 430 591 503 c 0
 590 564 578 608 547 619 c 0
 533 624 512 630 512 640 c 0
 512 649 524 652 541 652 c 0
 576 652 592 650 622 650 c 0
 655 650 679 654 706 654 c 0
 722 654 734 651 734 642 c 0
 734 633 724 626 702 621 c 0
 665 612 651 585 649 543 c 0xf0
 642 432 643 344 640 253 c 0
 636 96 523 -14 376 -14 c 0xe8
EndSplineSet
EndChar

StartChar: V
Encoding: 86 86 21
Width: 680
GlyphClass: 2
Flags: HW
TeX: 653 12
ItalicCorrection: 3
TopAccentHorizontal: 339
HStem: -13 21G<323.4 329.2> 620 34<0.959068 63.5591 215.817 299.56 418.133 490.176 614.254 685.472>
VStem: 0 205<571.5 645.4>
LayerCount: 2
Fore
SplineSet
326 -13 m 0
 321 -13 316 -11 313 -4 c 0
 306 12 295 43 288 64 c 2
 101 548 l 2
 87 584 66 610 31 620 c 0
 11 626 0 631 0 641 c 0
 0 649 11 654 27 654 c 0
 60 654 111 650 155 650 c 0
 195 650 247 653 272 653 c 0
 287 653 300 649 300 641 c 0
 300 632 289 622 268 620 c 0
 230 615 205 604 205 581 c 0
 205 562 212 547 215 538 c 2
 355 163 l 2
 357 157 362 154 366 164 c 2
 497 509 l 2
 524 580 497 613 450 620 c 0
 432 623 417 630 417 640 c 0
 417 648 430 652 446 652 c 0
 476 652 507 650 545 650 c 0
 584 650 628 654 657 654 c 0
 674 654 687 651 687 642 c 0
 687 632 676 627 655 622 c 0
 608 611 578 574 560 532 c 2
 381 101 l 2
 369 74 353 24 340 -4 c 0
 337 -10 332 -13 326 -13 c 0
EndSplineSet
EndChar

StartChar: W
Encoding: 87 87 22
Width: 941
GlyphClass: 2
Flags: HW
TeX: 653 16
ItalicCorrection: 16
TopAccentHorizontal: 465
HStem: -13 21G<631.1 638.3> 620 34<1.08259 65.8594 207.541 258.088 271.586 337.914 644.724 717.868 738.902 794.319 886.088 954.143>
VStem: 0 206<579.1 645.4> 586 133<594.2 645.8>
LayerCount: 2
Fore
SplineSet
345 -16 m 0
 340 -16 334 -2 329 11 c 2
 103 554 l 2
 87 587 68 610 32 620 c 0
 12 626 0 631 0 641 c 0
 0 649 13 654 28 654 c 0
 61 654 94 650 129 650 c 0
 166 650 205 653 230 653 c 0
 246 653 259 650 259 640 c 0
 259 631 249 626 226 620 c 0
 209 616 206 603 206 588 c 0
 206 570 213 550 213 549 c 1
 272 401 312 307 375 162 c 0
 382 147 385 149 390 161 c 2
 462 330 l 2
 466 340 468 347 468 353 c 0
 468 360 466 367 461 379 c 2
 392 542 l 2
 376 582 336 610 301 620 c 0
 281 626 271 632 271 641 c 0
 271 650 282 654 297 654 c 0
 330 654 368 650 404 650 c 0
 436 650 468 652 493 652 c 0
 511 652 523 649 523 641 c 0
 523 625 488 622 483 603 c 1
 477 600 477 594 479 588 c 0
 484 573 515 493 525 472 c 0
 532 455 535 456 543 472 c 0
 558 506 578 566 584 585 c 0
 585 588 586 593 586 596 c 0
 586 622 546 622 546 640 c 0
 546 648 555 652 573 652 c 0
 604 652 608 650 627 650 c 0
 649 650 662 654 690 654 c 0
 707 654 719 650 719 641 c 0
 719 631 709 626 688 621 c 0
 646 611 636 597 619 569 c 0
 606 545 579 485 562 442 c 0
 557 431 554 411 558 401 c 2
 654 159 l 2
 657 151 661 155 665 164 c 0
 702 259 750 401 793 541 c 0
 799 559 800 570 800 580 c 0
 800 598 792 614 771 620 c 0
 757 624 738 630 738 640 c 0
 738 648 751 652 767 652 c 0
 797 652 815 650 839 650 c 0
 869 650 897 654 925 654 c 0
 942 654 956 651 956 642 c 0
 956 632 944 627 923 622 c 0
 876 611 855 567 843 538 c 2
 652 9 l 2
 649 1 642 -13 634 -13 c 0
 627 -13 620 -4 615 6 c 0
 570 107 544 179 495 298 c 0
 491 307 488 305 483 293 c 0
 437 189 409 121 367 13 c 0
 362 -1 354 -16 345 -16 c 0
EndSplineSet
EndChar

StartChar: X
Encoding: 88 88 23
Width: 718
GlyphClass: 2
Flags: HW
TeX: 656 5
ItalicCorrection: 10
TopAccentHorizontal: 347
HStem: -5 34<-3.91132 65.3375 202.575 267.452 390.213 451.244 641.841 710.186> 621 33<19.1377 86.5969 260.652 334.754 451.329 519.634 636.913 702.922>
LayerCount: 2
Fore
SplineSet
24 -5 m 0
 7 -5 -5 -2 -5 7 c 0
 -5 17 6 23 26 29 c 0
 61 39 121 70 164 124 c 2
 288 280 l 2
 302 300 311 316 292 343 c 2
 156 535 l 2
 113 595 84 611 49 621 c 0
 29 627 18 633 18 643 c 0
 18 651 29 654 45 654 c 0
 85 654 147 650 200 650 c 0
 241 650 282 653 307 653 c 0
 322 653 335 649 335 641 c 0
 335 632 324 626 303 620 c 0
 268 610 250 605 250 587 c 0
 250 576 260 559 279 532 c 2
 371 404 l 2
 385 384 391 385 402 401 c 2
 503 535 l 2
 519 556 528 574 528 587 c 0
 528 602 515 613 483 620 c 0
 469 623 451 630 451 640 c 0
 451 648 463 652 480 652 c 0
 508 652 532 650 564 650 c 0
 603 650 645 656 675 656 c 0
 692 656 705 653 705 644 c 0
 705 634 694 630 673 624 c 0
 637 614 591 568 553 522 c 2
 432 377 l 2
 414 357 413 351 422 334 c 2
 580 107 l 2
 608 67 643 38 678 29 c 0
 699 23 711 17 711 7 c 0
 711 -1 699 -5 683 -5 c 0
 643 -5 577 1 526 1 c 0
 485 1 447 0 419 -0 c 0
 403 0 390 3 390 11 c 0
 390 21 408 28 422 32 c 0
 444 38 470 52 470 77 c 0
 470 86 466 96 458 107 c 2
 353 259 l 2
 341 276 335 277 325 263 c 2
 201 100 l 2
 192 87 190 76 190 69 c 0
 190 50 208 36 235 30 c 0
 256 25 268 20 268 10 c 0
 268 2 255 -2 239 -2 c 0
 215 -2 179 1 146 1 c 0
 102 1 59 -5 24 -5 c 0
EndSplineSet
EndChar

StartChar: Y
Encoding: 89 89 24
Width: 594
GlyphClass: 2
Flags: HW
TeX: 653 5
ItalicCorrection: 9
TopAccentHorizontal: 310
HStem: -5 31<156.732 229.594 397.776 471.192> 620 34<0.959068 58.2864 209.728 275.7 394.502 463.804 560.407 635.154>
VStem: 264 100<52.0612 325.744> 470 167<577 646.2>
LayerCount: 2
Fore
SplineSet
185 -5 m 0
 168 -5 156 -1 156 7 c 0
 156 16 167 22 188 26 c 0
 238 35 264 62 264 108 c 2
 264 254 l 2
 264 286 245 321 237 335 c 2
 117 529 l 2
 101 554 66 610 31 620 c 0
 11 626 0 631 0 641 c 0
 0 649 11 654 27 654 c 0
 64 654 107 650 156 650 c 0
 190 650 221 653 248 653 c 0
 264 653 277 649 277 641 c 0
 277 632 265 625 245 620 c 0
 221 614 207 609 207 592 c 0
 207 584 211 571 220 556 c 2
 315 384 l 2
 327 362 334 352 340 352 c 0
 347 352 354 360 369 384 c 0
 399 433 421 475 454 535 c 0
 465 555 470 571 470 583 c 0
 470 608 447 617 426 620 c 0
 412 622 394 630 394 640 c 0
 394 648 407 652 423 652 c 0
 455 652 474 650 505 650 c 0
 544 650 581 654 608 654 c 0
 625 654 637 651 637 642 c 0
 637 632 614 625 590 618 c 0
 554 608 535 582 503 533 c 0
 452 453 434 424 389 351 c 0
 365 312 364 298 364 259 c 2
 364 109 l 2
 364 62 389 36 439 26 c 0
 460 22 472 17 472 7 c 0
 472 -1 460 -5 443 -5 c 0
 391 -5 362 1 318 1 c 0
 270 1 237 -5 185 -5 c 0
EndSplineSet
EndChar

StartChar: Z
Encoding: 90 90 25
Width: 602
GlyphClass: 2
Flags: HW
TeX: 676 5
ItalicCorrection: 14
TopAccentHorizontal: 308
HStem: -5 44<203.993 486.36> 608 39<127.078 422.57>
LayerCount: 2
Fore
SplineSet
532 -5 m 0
 441 -5 334 -2 240 -2 c 0
 198 -2 154 -3 114 -3 c 2
 37 -3 l 2
 29 -3 27 14 28 15 c 1
 32 30 64 77 86 108 c 0
 211 286 299 407 418 589 c 0
 420 592 423 595 423 599 c 0
 423 603 418 607 404 608 c 0
 371 609 322 609 276 609 c 0
 241 609 208 610 183 608 c 0
 145 605 98 581 77 531 c 0
 71 518 61 498 45 498 c 0
 38 498 35 504 35 511 c 0
 35 519 39 530 42 538 c 0
 53 566 66 614 69 659 c 0
 70 675 79 679 86 679 c 0
 93 679 110 666 123 661 c 0
 139 654 174 647 209 647 c 2
 333 647 l 2
 406 647 494 648 562 650 c 0
 569 650 579 636 575 631 c 2
 512 542 l 2
 386 368 308 251 194 75 c 0
 190 70 189 64 189 59 c 0
 189 51 194 44 203 43 c 0
 229 40 268 39 306 39 c 0
 353 39 400 41 444 47 c 0
 497 54 531 88 556 153 c 0
 559 161 568 172 578 172 c 0
 584 172 588 167 588 158 c 0
 588 141 563 42 552 13 c 0
 548 4 543 -5 532 -5 c 0
EndSplineSet
EndChar

StartChar: a
Encoding: 97 97 26
Width: 413
GlyphClass: 2
Flags: HW
TeX: 414 14
ItalicCorrection: 26
TopAccentHorizontal: 218
HStem: -14 55<101.8 200.138 309.3 382.857> 368 51<158.915 263.8>
VStem: 37 90<46.2534 129.402 284.374 322.437> 238 85<60.6931 171.796 205.104 357.388>
LayerCount: 2
Fore
SplineSet
122 -14 m 0
 81 -14 37 34 37 74 c 0
 37 117 61 140 112 161 c 2
 210 202 l 2
 236 213 237 216 238 243 c 2
 240 305 l 2
 241 341 221 368 185 368 c 0
 166 368 145 361 133 350 c 0
 126 344 124 334 124 323 c 2
 125 302 l 2
 125 291 76 266 53 266 c 0
 45 266 40 271 40 278 c 0
 40 299 55 324 82 347 c 0
 129 388 196 419 237 419 c 0
 291 419 329 378 328 320 c 2
 323 90 l 2
 322 61 336 41 357 41 c 0
 373 41 384 45 393 53 c 0
 397 57 399 57 401 57 c 0
 407 57 412 52 412 46 c 0
 412 40 407 30 399 22 c 0
 377 0 349 -14 326 -14 c 0
 293 -14 268 3 248 39 c 1
 245 39 l 1
 201 2 164 -14 122 -14 c 0
173 39 m 0
 196 39 211 46 224 60 c 0
 231 66 235 75 236 97 c 2
 238 152 l 2
 239 166 236 172 229 172 c 0
 226 172 220 171 211 167 c 0
 148 143 127 120 127 91 c 0
 127 55 151 39 173 39 c 0
EndSplineSet
EndChar

StartChar: b
Encoding: 98 98 27
Width: 524
GlyphClass: 2
Flags: HW
TeX: 705 14
TopAccentHorizontal: 114
HStem: -14 34<219.351 334.449> -4 21G<77.4 82.9> 373 46<223.781 332.86>
VStem: 73 86<70.1355 348.571 363.833 619.883> 398 93<112.837 295.201>
LayerCount: 2
Fore
SplineSet
263 -14 m 0xb8
 231 -14 200 -7 174 -0 c 0
 147 7 125 14 117 14 c 0
 108 14 99 7 92 1 c 0
 88 -2 84 -4 81 -4 c 0x78
 73 -4 66 1 66 8 c 0
 66 20 74 55 74 87 c 2
 73 562 l 2
 73 597 58 624 29 634 c 0
 23 637 16 642 16 650 c 0
 16 657 23 660 28 661 c 0
 59 667 127 695 145 702 c 0
 149 704 153 705 155 705 c 0
 159 705 162 701 162 697 c 0
 162 691 159 651 159 603 c 2
 159 396 l 2
 159 372 161 365 168 364 c 1
 209 396 266 419 309 419 c 0
 411 419 491 332 491 219 c 0
 491 80 398 -14 263 -14 c 0xb8
285 20 m 0
 355 20 398 97 398 196 c 0
 398 273 359 373 270 373 c 0
 225 373 186 357 159 333 c 1
 159 134 l 2
 159 65 221 20 285 20 c 0
EndSplineSet
EndChar

StartChar: c
Encoding: 99 99 28
Width: 414
GlyphClass: 2
Flags: HW
TeX: 414 15
TopAccentHorizontal: 204
HStem: -15 71<187.487 305.539> 378 41<163.815 271.112>
VStem: 35 81<134.215 286.78>
LayerCount: 2
Fore
SplineSet
216 -15 m 0
 113 -15 35 72 35 186 c 0
 35 316 131 419 250 419 c 0
 295 419 337 405 369 379 c 0
 377 373 380 367 380 360 c 0
 380 344 353 317 336 317 c 0
 327 317 320 323 312 330 c 0
 281 354 241 378 216 378 c 0
 155 378 116 318 116 221 c 0
 116 126 178 56 262 56 c 0
 301 56 325 68 357 98 c 0
 361 101 365 105 369 105 c 0
 375 105 380 98 380 90 c 0
 380 82 376 73 367 60 c 0
 338 19 283 -15 216 -15 c 0
EndSplineSet
EndChar

StartChar: d
Encoding: 100 100 29
Width: 520
GlyphClass: 2
Flags: HW
TeX: 704 19
ItalicCorrection: 19
TopAccentHorizontal: 382
HStem: -14 56<194.621 301.208> 22 26<444.729 516.672> 380 38<184.794 301.017> 634 27<295.809 334.426>
VStem: 35 89<116.086 288.719> 352 86<67.4216 335.481 404.804 622.377>
LayerCount: 2
Fore
SplineSet
361 -19 m 0x7c
 358 -19 348 -10 348 -7 c 0
 349 8 354 35 354 51 c 2
 354 57 l 1
 332 23 285 -14 222 -14 c 0xbc
 109 -14 35 86 35 191 c 0
 35 313 124 418 264 418 c 0
 289 418 317 413 333 408 c 1
 337 407 344 405 346 405 c 1
 349 405 352 410 352 426 c 2
 352 562 l 2
 352 614 337 628 306 634 c 0
 299 635 296 642 296 648 c 0
 296 654 299 659 305 661 c 0
 362 675 398 690 421 700 c 0
 429 704 434 704 437 704 c 0
 442 704 444 702 445 697 c 0
 445 689 438 654 438 579 c 2
 438 113 l 2
 438 67 444 48 459 48 c 0
 466 48 480 49 501 51 c 0
 513 52 518 50 518 42 c 0
 518 33 510 22 503 22 c 0
 463 17 424 7 377 -13 c 0
 366 -19 365 -19 361 -19 c 0x7c
262 42 m 0
 293 42 329 59 352 86 c 1
 352 277 l 2
 352 326 304 380 239 380 c 0
 193 380 124 339 124 215 c 0
 124 76 216 42 262 42 c 0
EndSplineSet
EndChar

StartChar: e
Encoding: 101 101 30
Width: 398
GlyphClass: 2
Flags: HW
TeX: 414 15
ItalicCorrection: 8
TopAccentHorizontal: 198
HStem: -15 71<182.785 301.574> 257 34<122.199 285.883> 387 32<169.353 266.122>
VStem: 30 77<135.102 254.091> 295 76<278.5 361.008>
LayerCount: 2
Fore
SplineSet
215 -15 m 0
 105 -15 30 74 30 203 c 0
 30 321 121 419 230 419 c 0
 311 419 371 365 371 290 c 0
 371 268 361 257 340 257 c 2
 133 257 l 2
 114 257 107 248 107 220 c 0
 107 129 172 56 255 56 c 0
 294 56 327 72 354 100 c 0
 359 106 361 108 365 108 c 0
 370 108 374 103 374 97 c 0
 374 86 369 74 359 59 c 0
 332 16 278 -15 215 -15 c 0
134 291 m 2
 217 291 l 2
 250 291 267 292 287 296 c 0
 293 297 295 305 295 319 c 0
 295 356 259 387 215 387 c 0
 171 387 121 342 121 302 c 0
 121 295 126 291 134 291 c 2
EndSplineSet
EndChar

StartChar: f
Encoding: 102 102 31
Width: 332
GlyphClass: 2
Flags: HW
TeX: 706 3
ItalicCorrection: 78
TopAccentHorizontal: 222
HStem: -3 29<25.4236 80.0871 191.683 264.051> 354 51<176.4 322.17> 664 42<231.516 341.225>
VStem: 90 86<36.4851 351.2 405.523 541.128>
LayerCount: 2
Fore
SplineSet
45 -3 m 0
 33 -3 25 1 25 9 c 0
 25 19 34 23 47 26 c 0
 80 34 90 43 90 69 c 2
 90 351 l 1
 77 351 59 351 38 353 c 0
 33 354 24 366 24 374 c 0
 24 377 28 380 31 381 c 1
 39 385 82 406 90 410 c 1
 93 637 229 706 320 706 c 0
 399 706 435 681 435 641 c 0
 435 613 420 598 400 598 c 0
 388 598 378 610 365 623 c 0
 346 642 322 664 278 664 c 0
 217 664 176 612 176 503 c 2
 176 416 l 2
 176 407 182 405 189 405 c 2
 310 405 l 2
 318 405 324 399 324 393 c 0
 324 384 321 370 317 362 c 0
 315 357 312 354 309 354 c 2
 200 354 l 2
 181 354 176 348 176 338 c 2
 176 73 l 2
 176 44 188 33 242 26 c 0
 256 24 264 19 264 9 c 0
 264 1 257 -3 245 -3 c 0
 205 -3 170 2 135 2 c 0
 100 2 85 -3 45 -3 c 0
EndSplineSet
EndChar

StartChar: g
Encoding: 103 103 32
Width: 453
GlyphClass: 2
Flags: HW
TeX: 416 290
TopAccentHorizontal: 206
HStem: -290 43<134.761 287.791> 103 37<168.461 256.795> 348 46<380.937 457.664> 388 33<167.203 251.836>
VStem: 11 79<-206.058 -106.555> 39 85<188.003 335.283> 40 74<25 79.9642> 297 79<203.734 339.412> 358 77<-151.333 -41.8999>
LayerCount: 2
Fore
SplineSet
445 394 m 0xe4
 453 394 459 388 459 377 c 0
 459 371 454 360 448 353 c 0
 445 350 442 348 439 348 c 2
 412 348 l 2
 394 348 384 345 381 340 c 0
 378 332 375 318 375 293 c 0
 375 190 298 103 207 103 c 0
 187 103 168 107 149 114 c 1
 128 103 114 86 114 76 c 0xe3
 114 50 156 35 247 29 c 0
 376 21 435 -12 435 -73 c 0
 435 -178 314 -290 201 -290 c 0
 83 -290 11 -245 11 -171 c 0xe880
 11 -135 20 -114 46 -94 c 0
 65 -78 95 -55 123 -33 c 1
 63 -19 40 5 40 44 c 0xe2
 40 57 46 69 64 82 c 0
 98 107 110 116 119 128 c 1
 73 156 39 204 39 259 c 0
 39 354 125 421 220 421 c 0xd4
 260 421 288 408 320 400 c 0
 350 392 368 391 390 391 c 0
 407 391 435 394 445 394 c 0xe4
214 141 m 0
 262 141 297 197 297 273 c 0
 297 335 255 388 208 388 c 0
 163 388 124 334 124 271 c 0xd5
 124 199 165 141 214 141 c 0
358 -114 m 0xc880
 358 -73 318 -54 213 -46 c 0
 194 -45 178 -43 163 -41 c 1
 110 -75 90 -105 90 -152 c 0
 90 -205 144 -247 213 -247 c 0
 255 -247 286 -238 308 -220 c 0
 339 -195 358 -156 358 -114 c 0xc880
EndSplineSet
EndChar

StartChar: h
Encoding: 104 104 33
Width: 528
GlyphClass: 2
Flags: HW
TeX: 705 3
ItalicCorrection: 15
TopAccentHorizontal: 122
HStem: -3 29<19.3074 72.3237 180.217 228.903 297.831 345.9 456.064 506.038> 358 60<243.321 360.5>
VStem: 84 86<33.4531 335.038 354.965 624.104> 358 87<33.5179 327.005>
LayerCount: 2
Fore
SplineSet
39 -3 m 0
 27 -3 19 1 19 9 c 0
 19 17 25 21 42 26 c 0
 62 32 83 39 84 66 c 2
 84 562 l 2
 84 598 75 628 41 634 c 0
 35 635 32 640 32 648 c 0
 32 655 34 659 40 661 c 0
 73 670 130 690 163 703 c 0
 166 704 168 705 170 705 c 0
 175 705 178 701 178 697 c 0
 178 685 170 666 170 579 c 2
 170 389 l 2
 170 370 172 363 177 355 c 1
 208 378 263 419 327 419 c 0
 394 419 445 362 445 281 c 2
 445 69 l 2
 445 42 464 32 484 26 c 0
 498 22 506 18 506 9 c 0
 506 1 500 -3 486 -3 c 0
 444 -3 439 2 402 2 c 0
 364 2 360 -3 318 -3 c 0
 304 -3 298 0 298 9 c 0
 298 18 306 21 320 26 c 0
 339 33 358 43 358 70 c 2
 358 272 l 2
 358 320 313 358 273 358 c 0
 249 358 214 351 194 336 c 0
 176 321 170 310 170 274 c 2
 170 67 l 2
 171 40 189 32 208 26 c 0
 221 22 229 17 229 9 c 0
 229 1 224 -3 210 -3 c 0
 170 -3 161 2 126 2 c 0
 91 2 79 -3 39 -3 c 0
EndSplineSet
EndChar

StartChar: i
Encoding: 105 105 34
Width: 260
GlyphClass: 2
Flags: HW
TeX: 617 3
ItalicCorrection: 3
TopAccentHorizontal: 125
HStem: -3 29<24.2808 80.116 187.275 242.114> 351 27<34.6096 72.3487> 510 116<86.2922 176.354>
VStem: 73 116<522.074 613.868> 90 87<33.3415 340.865>
LayerCount: 2
Fore
SplineSet
131 510 m 0xf0
 99 510 73 535 73 567 c 0
 73 600 99 626 131 626 c 0
 164 626 189 600 189 567 c 0
 189 535 164 510 131 510 c 0xf0
43 -3 m 0
 32 -3 24 1 24 9 c 0
 24 19 35 23 46 26 c 0
 76 33 90 40 90 63 c 2
 90 280 l 2
 90 318 78 346 45 351 c 0
 38 352 35 357 35 365 c 0
 35 372 38 377 44 378 c 0
 101 391 143 417 163 431 c 0
 169 435 174 438 178 438 c 0
 183 438 186 435 186 431 c 0
 185 410 177 339 177 293 c 2
 177 64 l 2xe8
 177 42 191 34 220 26 c 0
 231 23 242 19 242 9 c 0
 242 1 235 -3 223 -3 c 0
 185 -3 168 2 133 2 c 0
 98 2 82 -3 43 -3 c 0
EndSplineSet
Substitution2: "'dtls' Dotless Forms in Mathematical Alphanumeric Symbols lookup 1 subtable" dotlessi
EndChar

StartChar: j
Encoding: 106 106 35
Width: 241
GlyphClass: 2
Flags: HW
TeX: 617 287
TopAccentHorizontal: 116
HStem: -287 30<-19.5054 21.4703> 510 116<80.2922 170.354>
VStem: 67 116<522.074 613.868> 89 87<-117.171 340.375>
LayerCount: 2
Fore
SplineSet
125 510 m 0xe0
 93 510 67 535 67 567 c 0
 67 600 93 626 125 626 c 0
 158 626 183 600 183 567 c 0
 183 535 158 510 125 510 c 0xe0
6 -287 m 0
 -6 -287 -20 -283 -20 -275 c 0
 -20 -267 -12 -260 -7 -257 c 0
 17 -250 39 -235 57 -196 c 0
 86 -136 89 -3 89 64 c 2
 89 280 l 2
 89 318 76 344 43 351 c 0
 37 352 34 358 34 365 c 0
 34 371 37 378 42 379 c 0
 97 392 138 419 160 431 c 0
 168 435 173 438 175 438 c 0
 180 438 183 435 183 431 c 0
 179 391 175 324 175 278 c 2
 176 91 l 2xd0
 176 29 174 -72 143 -152 c 0
 117 -220 50 -287 6 -287 c 0
EndSplineSet
Substitution2: "'dtls' Dotless Forms in Mathematical Alphanumeric Symbols lookup 1 subtable" dotlessj
EndChar

StartChar: k
Encoding: 107 107 36
Width: 490
GlyphClass: 2
Flags: HW
TeX: 705 3
ItalicCorrection: 33
TopAccentHorizontal: 121
HStem: -3 29<19.3881 72.5675 178.333 225.904 264.493 304.314 442.636 500.135> 207 22<170.2 187.581> 382 23<281.86 319.867> 387 29<409.7 470.491>
VStem: 84 86<33.5108 206.78 228.602 624.916>
LayerCount: 2
Fore
SplineSet
41 -3 m 0xd8
 26 -3 19 1 19 9 c 0
 19 19 30 22 42 26 c 0
 62 32 84 39 84 66 c 2
 84 562 l 2
 84 607 73 626 40 634 c 0
 34 635 31 641 31 648 c 0
 31 655 34 660 39 661 c 0
 90 673 131 689 161 702 c 0
 165 704 168 705 171 705 c 0
 176 705 178 701 178 695 c 0
 178 682 170 650 170 579 c 2
 170 238 l 2
 170 232 172 229 176 229 c 0
 183 229 194 234 207 245 c 0
 259 291 299 335 312 351 c 0
 319 359 321 364 321 367 c 0
 321 374 308 379 294 382 c 0
 285 384 282 387 282 393 c 0
 282 401 291 405 304 405 c 2
 353 405 l 2xe8
 385 405 437 415 458 416 c 0
 466 416 471 412 471 406 c 0
 471 397 461 391 447 387 c 0
 422 380 397 368 375 355 c 0
 356 344 296 293 253 255 c 0
 249 251 247 248 247 245 c 0
 247 242 249 239 251 237 c 0
 301 173 367 103 395 75 c 0
 417 53 451 34 471 27 c 0
 485 22 501 19 501 9 c 0
 501 0 492 -3 480 -3 c 0
 420 -3 351 0 283 0 c 0
 269 0 264 4 264 10 c 0
 264 18 273 24 283 27 c 0
 297 32 307 37 307 48 c 0
 307 52 304 58 299 65 c 2
 184 201 l 2
 181 205 179 207 175 207 c 0
 172 207 170 204 170 199 c 0
 169 180 169 158 169 136 c 0
 169 113 169 89 170 66 c 0
 170 40 184 32 204 26 c 0
 215 22 226 19 226 9 c 0
 226 -1 210 -3 204 -3 c 0
 165 -3 161 2 126 2 c 0
 91 2 80 -3 41 -3 c 0xd8
EndSplineSet
EndChar

StartChar: l
Encoding: 108 108 37
Width: 252
GlyphClass: 2
Flags: HW
TeX: 705 3
ItalicCorrection: 7
TopAccentHorizontal: 120
HStem: -3 29<19.9388 74.5886 179.914 233.963>
VStem: 84 86<33.2519 623.666>
LayerCount: 2
Fore
SplineSet
39 -3 m 0
 31 -3 19 -1 19 7 c 0
 19 17 30 22 42 26 c 0
 62 32 84 37 84 64 c 2
 84 562 l 2
 84 600 72 627 39 634 c 0
 34 635 31 641 31 648 c 0
 31 655 34 660 38 661 c 0
 89 673 131 691 163 703 c 0
 166 704 168 705 170 705 c 0
 175 705 177 700 177 697 c 0
 177 685 170 653 170 579 c 2
 170 64 l 2
 170 37 192 32 212 26 c 0
 224 22 235 18 235 8 c 0
 235 0 224 -3 215 -3 c 0
 176 -3 161 2 126 2 c 0
 91 2 78 -3 39 -3 c 0
EndSplineSet
EndChar

StartChar: m
Encoding: 109 109 38
Width: 787
GlyphClass: 2
Flags: HW
TeX: 430 3
ItalicCorrection: 25
TopAccentHorizontal: 390
HStem: -3 29<24.3625 79.2947 183.84 235.613 289.713 342.666 446.667 500.852 554.081 607.166 710.467 765.03> 362 57<243.856 359.2 507.228 630.5>
VStem: 89 86<32.937 335.248> 351 86<32.3915 332.912> 615 87<32.6578 334.65>
LayerCount: 2
Fore
SplineSet
44 -3 m 0
 33 -3 24 0 24 9 c 0
 24 18 34 22 47 26 c 0
 66 32 89 37 89 64 c 2
 89 283 l 2
 89 317 84 344 52 350 c 0
 46 351 43 355 43 365 c 0
 43 373 46 377 51 378 c 0
 104 391 130 408 166 430 c 0
 169 432 172 435 176 435 c 0
 180 435 183 431 183 427 c 0
 183 418 178 383 178 364 c 0
 178 358 179 353 180 352 c 2
 182 352 l 1
 215 384 263 419 336 419 c 0
 382 419 415 397 435 348 c 1
 438 348 l 1
 480 388 534 419 598 419 c 0
 663 419 702 354 702 279 c 2
 702 64 l 2
 702 37 723 32 743 26 c 0
 756 22 765 18 765 9 c 0
 765 1 759 -3 746 -3 c 0
 706 -3 695 2 660 2 c 0
 625 2 613 -3 573 -3 c 0
 562 -3 554 1 554 9 c 0
 554 19 563 23 576 26 c 0
 596 31 615 37 615 62 c 2
 615 271 l 2
 615 319 581 362 541 362 c 0
 511 362 485 355 462 336 c 0
 446 323 437 303 437 272 c 2
 437 64 l 2
 437 37 459 31 479 26 c 0
 491 23 501 18 501 9 c 0
 501 1 494 -3 482 -3 c 0
 442 -3 431 2 396 2 c 0
 361 2 349 -3 309 -3 c 0
 299 -3 289 1 289 9 c 0
 289 19 301 22 312 26 c 0
 332 32 351 37 351 62 c 2
 351 271 l 2
 351 319 318 362 278 362 c 0
 248 362 222 355 198 336 c 0
 181 324 175 303 175 273 c 2
 175 64 l 2
 175 38 194 32 214 26 c 0
 225 22 236 19 236 9 c 0
 236 1 228 -3 217 -3 c 0
 177 -3 166 2 131 2 c 0
 96 2 84 -3 44 -3 c 0
EndSplineSet
EndChar

StartChar: n
Encoding: 110 110 39
Width: 539
GlyphClass: 2
Flags: HW
TeX: 430 3
ItalicCorrection: 13
TopAccentHorizontal: 264
HStem: -3 29<24.2292 79.5886 184.123 238.053 305.001 358.078 462.867 516.997> 362 57<243.589 341.329>
VStem: 89 86<32.5009 324.981> 367 87<32.6578 334.594>
LayerCount: 2
Fore
SplineSet
44 -3 m 0
 33 -3 24 1 24 9 c 0
 24 19 33 22 47 26 c 0
 67 31 89 37 89 64 c 2
 89 283 l 2
 89 317 85 342 53 350 c 0
 47 352 43 356 43 365 c 0
 43 372 46 377 52 378 c 0
 98 390 133 408 164 429 c 0
 168 432 173 435 177 435 c 0
 181 435 183 430 183 426 c 0
 183 417 178 383 178 364 c 0
 178 358 179 352 180 351 c 0
 226 395 275 419 338 419 c 0
 404 419 454 360 454 279 c 2
 454 64 l 2
 454 37 475 32 495 26 c 0
 506 22 518 17 518 7 c 0
 518 -1 506 -3 498 -3 c 0
 458 -3 446 2 411 2 c 0
 376 2 363 -3 323 -3 c 0
 316 -3 304 -1 304 7 c 0
 304 17 315 22 326 26 c 0
 346 32 367 37 367 64 c 2
 367 271 l 2
 367 327 334 361 284 362 c 0
 241 362 210 347 183 325 c 0
 178 320 175 311 175 303 c 2
 175 64 l 2
 175 37 196 31 216 26 c 0
 231 22 238 17 238 9 c 0
 238 1 231 -3 219 -3 c 0
 179 -3 168 2 133 2 c 0
 98 2 84 -3 44 -3 c 0
EndSplineSet
EndChar

StartChar: o
Encoding: 111 111 40
Width: 502
GlyphClass: 2
Flags: HW
TeX: 414 14
TopAccentHorizontal: 248
HStem: -14 34<209.869 318.773> 385 35<184.295 295.47>
VStem: 35 97<108.05 283.521> 371 97<112.652 297.146>
LayerCount: 2
Fore
SplineSet
238 -14 m 0
 124 -14 35 70 35 189 c 0
 35 304 133 419 258 419 c 0
 376 419 468 325 468 216 c 0
 468 96 391 -14 238 -14 c 0
259 20 m 0
 300 20 333 34 351 69 c 0
 367 99 371 147 371 192 c 0
 371 291 320 385 242 385 c 0
 210 385 185 377 164 350 c 0
 138 318 132 267 132 213 c 0
 132 115 186 20 259 20 c 0
EndSplineSet
EndChar

StartChar: p
Encoding: 112 112 41
Width: 530
GlyphClass: 2
Flags: HW
TeX: 426 285
TopAccentHorizontal: 252
HStem: -279 29<19.7303 73.9042 186.268 248.511> -15 35<232.288 328.06> 356 28<29.8097 60.2519> 366 51<244.78 341.51>
VStem: 84 86<-238.429 13.974 84.4871 336.558> 400 96<130.447 300.472>
LayerCount: 2
Fore
SplineSet
40 -279 m 0xdc
 33 -279 19 -276 19 -268 c 0
 19 -258 30 -254 42 -250 c 0
 64 -243 84 -237 84 -212 c 2
 84 288 l 2
 84 305 70 350 39 356 c 0
 34 357 30 363 30 371 c 0
 30 378 34 383 38 384 c 0xec
 88 396 127 411 161 426 c 0
 163 427 165 429 167 429 c 0
 171 429 174 423 174 419 c 0
 174 407 169 376 169 360 c 0
 169 356 169 351 170 350 c 1
 189 369 268 417 331 417 c 0
 435 417 496 321 496 226 c 0
 496 106 397 -15 270 -15 c 0
 244 -15 195 -2 174 14 c 0
 171 14 170 -22 170 -28 c 2
 170 -210 l 2
 170 -237 203 -243 227 -250 c 0
 239 -254 249 -258 249 -268 c 0
 249 -276 237 -279 229 -279 c 0
 190 -279 163 -274 128 -274 c 0
 93 -274 79 -279 40 -279 c 0xdc
280 20 m 0
 316 20 400 61 400 193 c 0
 400 345 314 366 274 366 c 0xdc
 229 366 172 329 172 315 c 0
 172 266 170 184 170 160 c 0
 170 88 226 20 280 20 c 0
EndSplineSet
EndChar

StartChar: q
Encoding: 113 113 42
Width: 528
GlyphClass: 2
Flags: HW
TeX: 421 285
ItalicCorrection: 16
TopAccentHorizontal: 278
HStem: -285 29<304.602 359.671 469.98 528.007> -14 57<202.696 307.632> 384 35<202.809 318.918>
VStem: 35 98<117.536 286.922> 372 86<-247.497 41.7944 63.0365 339.025>
LayerCount: 2
Fore
SplineSet
323 -285 m 0
 316 -285 304 -283 304 -275 c 0
 304 -265 315 -261 327 -257 c 0
 351 -250 372 -243 372 -216 c 2
 372 13 l 2
 372 34 370 42 366 42 c 0
 363 42 360 42 357 39 c 0
 338 23 281 -14 232 -14 c 0
 127 -14 35 60 35 182 c 0
 35 319 130 419 282 419 c 0
 350 419 404 396 414 396 c 0
 428 396 435 406 443 419 c 0
 445 421 449 423 452 423 c 0
 460 423 469 419 469 413 c 0
 469 400 457 356 457 299 c 2
 458 -218 l 2
 458 -244 484 -250 506 -256 c 0
 518 -260 529 -265 529 -275 c 0
 529 -283 517 -285 509 -285 c 0
 469 -285 450 -280 414 -280 c 0
 379 -280 363 -285 323 -285 c 0
274 43 m 0
 314 43 356 61 373 80 c 1
 373 118 373 247 372 276 c 0
 370 337 321 384 259 384 c 0
 192 384 133 318 133 209 c 0
 133 88 213 43 274 43 c 0
EndSplineSet
EndChar

StartChar: r
Encoding: 114 114 43
Width: 358
GlyphClass: 2
Flags: HW
TeX: 430 3
ItalicCorrection: 30
TopAccentHorizontal: 179
HStem: -3 29<29.2435 80.8251 193.312 252.295>
VStem: 90 87<37.7007 327.275>
LayerCount: 2
Fore
SplineSet
49 -3 m 0
 36 -3 29 1 29 9 c 0
 29 19 37 22 52 26 c 0
 78 33 90 45 90 64 c 2
 90 283 l 2
 90 317 83 343 52 350 c 0
 47 351 41 356 41 364 c 0
 41 371 46 377 51 378 c 0
 88 389 135 411 160 426 c 0
 168 431 174 434 177 434 c 0
 181 434 183 431 183 426 c 0
 183 418 182 379 180 350 c 0
 180 348 181 346 182 346 c 0
 214 385 259 419 301 419 c 0
 333 419 353 403 353 383 c 0
 353 360 331 324 309 324 c 0
 300 324 289 330 278 335 c 0
 266 340 254 345 244 345 c 0
 212 345 177 327 177 258 c 2
 177 66 l 2
 177 46 196 36 230 26 c 0
 244 22 253 18 253 9 c 0
 253 1 246 -3 233 -3 c 0
 193 -3 173 2 138 2 c 0
 103 2 89 -3 49 -3 c 0
EndSplineSet
EndChar

StartChar: s
Encoding: 115 115 44
Width: 333
GlyphClass: 2
Flags: HW
TeX: 414 14
TopAccentHorizontal: 160
HStem: -14 32<109.921 202.211> 388 31<137.184 222.447>
VStem: 47 70<285.115 367.993> 225 78<41.6766 129.777>
LayerCount: 2
Fore
SplineSet
150 -14 m 0
 108 -14 68 -2 41 21 c 1
 33 37 29 81 29 110 c 0
 29 117 36 121 44 121 c 0
 51 121 57 116 58 111 c 0
 77 48 118 18 159 18 c 0
 197 18 225 46 225 82 c 0
 225 118 201 139 147 171 c 0
 81 210 47 243 47 300 c 0
 47 368 98 419 188 419 c 0
 229 419 261 408 274 399 c 1
 284 384 292 347 292 315 c 0
 292 310 286 307 280 307 c 0
 271 307 262 313 260 318 c 0
 242 364 216 388 179 388 c 0
 147 388 117 367 117 331 c 0
 117 301 136 281 186 253 c 0
 265 209 303 176 303 112 c 0
 303 36 243 -14 150 -14 c 0
EndSplineSet
EndChar

StartChar: t
Encoding: 116 116 45
Width: 331
GlyphClass: 2
Flags: HW
TeX: 475 14
ItalicCorrection: 29
TopAccentHorizontal: 170
HStem: -14 59<192.334 277.332> 354 51<174.341 321.866>
VStem: 88 86<63.5288 353.393>
LayerCount: 2
Fore
SplineSet
199 -14 m 0
 128 -14 88 27 88 107 c 2
 88 339 l 2
 88 350 81 355 56 355 c 2
 48 355 l 2
 41 355 35 367 35 378 c 0
 35 381 39 388 42 389 c 0
 83 414 124 451 146 475 c 0
 153 482 157 487 165 487 c 0
 173 487 180 485 179 474 c 2
 173 425 l 2
 171 410 181 405 198 405 c 2
 313 405 l 2
 318 405 322 395 322 384 c 0
 322 370 317 354 312 354 c 2
 214 354 l 2
 181 354 174 352 174 327 c 2
 174 132 l 2
 174 76 198 45 240 45 c 0
 279 45 295 51 312 62 c 0
 313 63 315 64 317 64 c 0
 322 64 324 56 324 48 c 0
 324 37 264 -14 199 -14 c 0
EndSplineSet
EndChar

StartChar: u
Encoding: 117 117 46
Width: 537
GlyphClass: 2
Flags: HW
TeX: 415 19
ItalicCorrection: 7
TopAccentHorizontal: 273
HStem: -19 65<166.4 280.548> 22 31<469.898 526.978> 366 33<29.0048 70.6903 280.104 347.897>
VStem: 85 86<76.1017 356.372> 362 90<77.7225 355.993>
LayerCount: 2
Fore
SplineSet
364 -19 m 0xb8
 359 -19 357 -16 357 -11 c 0
 357 3 362 34 362 51 c 1
 362 53 361 58 361 59 c 1
 313 10 260 -14 198 -14 c 0
 133 -14 85 32 85 111 c 2
 85 309 l 2
 85 338 73 356 43 366 c 0
 36 368 29 372 29 383 c 0
 29 395 36 398 44 399 c 0
 92 402 116 408 156 417 c 0
 160 418 163 419 167 419 c 0
 174 419 179 416 178 405 c 0
 174 374 171 358 171 328 c 2
 171 134 l 2
 171 86 208 46 249 46 c 0xb8
 279 46 304 47 327 66 c 0
 340 76 365 99 365 138 c 2
 365 315 l 2
 365 354 325 366 302 366 c 0
 289 366 280 371 280 385 c 0
 280 397 291 401 302 401 c 0
 373 403 401 408 437 418 c 0
 440 419 445 420 448 420 c 0
 456 420 461 416 461 409 c 0
 461 406 460 403 459 398 c 0
 457 391 452 345 452 329 c 2
 452 97 l 2
 452 62 460 51 470 51 c 1
 476 51 505 53 511 53 c 1
 520 53 527 50 527 38 c 0
 527 27 522 23 512 22 c 0x78
 457 15 417 0 386 -13 c 0
 380 -15 370 -19 364 -19 c 0xb8
EndSplineSet
EndChar

StartChar: v
Encoding: 118 118 47
Width: 450
GlyphClass: 2
Flags: HW
TeX: 405 21
ItalicCorrection: 5
TopAccentHorizontal: 224
HStem: 383 27<5.47653 45.6055 175.126 211.305 279.818 320.442 412.351 454.603>
VStem: 330 125<332.7 404.8>
LayerCount: 2
Fore
SplineSet
221 -21 m 2
 215 -21 206 6 201 19 c 0
 191 41 181 69 173 92 c 0
 142 173 107 249 74 330 c 0
 63 355 44 377 23 383 c 0
 12 387 5 391 5 401 c 0
 5 409 19 410 26 410 c 0
 67 410 69 405 106 405 c 0
 143 405 150 410 191 410 c 0
 198 410 212 409 212 400 c 0
 212 390 201 386 189 382 c 0
 175 377 168 361 168 341 c 0
 168 331 169 320 172 312 c 2
 248 114 l 2
 249 113 250 113 251 114 c 2
 322 299 l 2
 327 311 330 327 330 338 c 0
 330 363 321 375 302 382 c 0
 286 388 279 390 279 400 c 0
 279 409 292 410 301 410 c 0
 321 410 341 406 372 406 c 0
 403 406 411 410 434 410 c 0
 444 410 455 409 455 400 c 0
 455 390 448 387 433 382 c 0
 412 375 386 349 372 316 c 2
 294 126 l 2
 288 113 260 39 258 34 c 1
 256 30 240 -9 232 -21 c 1
 221 -21 l 2
EndSplineSet
EndChar

StartChar: w
Encoding: 119 119 48
Width: 701
GlyphClass: 2
Flags: HW
TeX: 405 23
TopAccentHorizontal: 348
HStem: 382 29<5.93369 52.5133 176.1 213.777 264.074 310.232 424.999 471.397 531.654 574.382 662.998 705.274>
VStem: 5 166<337.3 405> 333 85<277.862 366.69>
LayerCount: 2
Fore
SplineSet
229 -25 m 0
 225 -25 220 -22 219 -17 c 2
 79 330 l 2
 69 357 48 376 27 382 c 0
 16 386 5 390 5 401 c 0
 5 409 19 411 26 411 c 0
 56 411 76 405 106 405 c 0
 138 405 161 411 194 411 c 0
 200 411 215 409 215 400 c 0
 215 390 203 386 192 382 c 0
 178 378 171 362 171 342 c 0
 171 333 173 323 176 314 c 2
 249 125 l 2
 250 122 251 121 253 121 c 0
 255 121 257 122 258 125 c 2
 325 285 l 2
 331 300 333 314 333 328 c 0
 333 353 308 373 285 382 c 0
 274 386 263 390 263 400 c 0
 263 409 276 411 285 411 c 0
 307 411 330 405 363 405 c 0
 400 405 425 411 451 411 c 0
 458 411 472 409 472 400 c 0
 472 390 461 386 450 382 c 0
 435 377 418 369 418 347 c 0
 418 337 420 326 425 314 c 2
 496 131 l 2
 498 125 501 122 503 122 c 0
 506 122 508 124 510 130 c 2
 580 298 l 2
 585 309 587 327 587 337 c 0
 587 360 570 376 554 381 c 0
 543 385 531 390 531 400 c 0
 531 408 545 410 552 410 c 0
 583 410 593 405 625 405 c 0
 657 405 659 409 685 410 c 0
 693 410 706 409 706 400 c 0
 706 390 695 385 684 381 c 0
 663 374 643 346 630 316 c 2
 492 -17 l 2
 490 -21 486 -25 481 -25 c 0
 477 -25 473 -21 471 -17 c 2
 361 249 l 2
 359 253 358 255 356 256 c 0
 354 256 353 254 350 248 c 2
 239 -17 l 2
 237 -21 233 -25 229 -25 c 0
EndSplineSet
EndChar

StartChar: x
Encoding: 120 120 49
Width: 450
GlyphClass: 2
Flags: HW
TeX: 405 4
ItalicCorrection: 7
TopAccentHorizontal: 218
HStem: -2 30<12.387 64.294 226.326 274.794 392.412 444.013> 383 25<184.353 224.849 381.74 429.166>
VStem: 278 168<2 60.2998>
LayerCount: 2
Fore
SplineSet
31 -4 m 0
 23 -4 10 -3 10 6 c 0
 10 17 20 22 32 25 c 0
 50 31 68 42 96 80 c 2
 177 192 l 2
 186 203 184 207 179 216 c 2
 98 337 l 2
 82 363 71 375 51 381 c 0
 40 384 30 389 30 400 c 0
 30 410 47 410 53 410 c 0
 94 410 89 405 137 405 c 0
 165 405 173 408 202 408 c 0
 208 408 225 408 225 398 c 0
 225 389 215 386 206 383 c 0
 195 380 183 376 183 364 c 0
 183 357 188 344 196 332 c 2
 242 264 l 2
 245 259 248 260 251 264 c 2
 296 334 l 2
 302 343 306 353 306 362 c 0
 306 370 302 377 291 380 c 0
 280 384 269 388 269 398 c 0
 269 408 286 408 292 408 c 0
 308 408 330 406 346 406 c 0
 379 406 388 410 410 410 c 0
 418 410 430 409 430 401 c 0
 430 390 420 386 409 382 c 0
 391 376 363 363 342 334 c 2
 277 239 l 2
 273 233 272 229 277 222 c 2
 371 71 l 2
 387 45 403 31 424 25 c 0
 435 21 446 17 446 6 c 0
 446 -2 433 -3 425 -3 c 0
 382 -3 382 1 333 1 c 0
 305 1 278 -2 249 -2 c 0
 232 -2 226 3 226 9 c 0
 226 21 235 24 250 28 c 0
 265 32 278 40 278 57 c 0
 278 64 277 71 271 80 c 2
 214 170 l 2
 213 171 209 171 208 170 c 2
 147 75 l 2
 144 71 140 61 140 51 c 0
 140 40 144 30 155 27 c 0
 166 23 177 18 177 8 c 0
 177 -2 160 -2 154 -2 c 0
 137 -2 115 0 99 0 c 0
 67 0 54 -4 31 -4 c 0
EndSplineSet
EndChar

StartChar: y
Encoding: 121 121 50
Width: 448
GlyphClass: 2
Flags: HW
TeX: 405 285
ItalicCorrection: 3
TopAccentHorizontal: 224
HStem: -285 88<47.5778 120.171> 381 29<5.90746 49.4131 168.417 210.763 279.414 319.063 408.464 452.891>
VStem: 5 158<338.8 404.4> 12 130<-267.263 -200.446> 329 125<330.8 404.4>
LayerCount: 2
Fore
SplineSet
69 -285 m 0xd8
 41 -285 12 -270 12 -238 c 0xd8
 12 -214 24 -189 47 -189 c 0
 64 -189 80 -197 93 -197 c 0
 104 -197 110 -192 117 -181 c 0
 137 -149 164 -96 192 -24 c 0
 196 -15 197 -6 197 5 c 0
 197 18 195 30 191 40 c 2
 73 330 l 2
 62 355 48 375 27 381 c 0
 16 385 5 390 5 400 c 0
 5 409 19 410 26 410 c 0
 68 410 72 405 105 405 c 0
 142 405 148 410 190 410 c 0
 198 410 211 407 211 398 c 0
 211 388 194 380 183 377 c 0
 169 373 163 363 163 343 c 0xe8
 163 334 167 321 171 310 c 2
 248 124 l 2
 249 121 250 118 253 118 c 0
 255 118 256 121 257 124 c 2
 321 299 l 2
 325 308 329 326 329 336 c 0
 329 361 318 370 306 375 c 0
 295 380 279 388 279 398 c 0
 279 407 293 410 300 410 c 0
 323 410 338 405 371 405 c 0
 403 405 407 410 433 410 c 0
 441 410 454 409 454 400 c 0
 454 390 443 385 432 381 c 0
 411 375 386 348 373 316 c 2
 234 -18 l 2
 225 -39 179 -151 141 -239 c 0
 128 -269 102 -285 69 -285 c 0xd8
EndSplineSet
EndChar

StartChar: z
Encoding: 122 122 51
Width: 389
GlyphClass: 2
Flags: HW
TeX: 416 5
TopAccentHorizontal: 200
HStem: -5 42<147.127 305.237> 369 37<106.845 242.128>
VStem: 35 24<284.802 302.903>
LayerCount: 2
Fore
SplineSet
41 -5 m 0
 36 -5 25 8 25 15 c 0
 25 22 49 56 63 75 c 0
 130 173 175 240 249 359 c 0
 252 363 255 369 240 369 c 2
 152 371 l 2
 133 372 117 362 108 353 c 0
 94 338 71 303 59 287 c 0
 51 279 31 286 35 297 c 0
 41 316 55 373 55 402 c 0
 55 413 66 422 72 422 c 0
 76 422 82 417 88 412 c 0
 94 407 114 406 132 406 c 0
 147 406 162 407 171 407 c 0
 238 407 301 408 364 410 c 0
 372 410 378 396 374 391 c 0
 360 374 348 360 335 340 c 2
 147 52 l 2
 141 42 147 37 158 37 c 2
 261 37 l 2
 277 37 292 44 307 60 c 0
 324 78 341 103 362 136 c 0
 369 147 388 141 388 129 c 0
 388 118 364 33 357 9 c 0
 355 0 348 -5 340 -5 c 0
 310 -5 236 0 124 0 c 0
 95 0 58 -5 41 -5 c 0
EndSplineSet
EndChar

StartChar: Alpha
Encoding: 913 913 52
Width: 700
GlyphClass: 2
Flags: HW
TeX: 685 5
TopAccentHorizontal: 348
HStem: -5 37<-0.974098 68.9199 195.605 267.82 389.959 469.5 624.133 704.044> 245 38<242.006 424.243>
LayerCount: 2
Fore
SplineSet
27 -5 m 0
 10 -5 -2 0 -2 9 c 0
 -2 19 9 25 29 32 c 0
 65 42 94 60 114 106 c 0
 186 271 233 391 298 568 c 0
 308 596 312 615 315 632 c 1
 330 636 343 640 359 648 c 0
 374 656 381 676 386 683 c 0
 388 685 392 685 394 681 c 0
 397 674 399 666 402 658 c 0
 464 461 540 237 579 122 c 0
 603 52 635 37 675 29 c 0
 696 25 706 17 706 7 c 0
 706 -1 694 -4 679 -4 c 0
 648 -4 579 1 534 1 c 0
 495 1 445 -1 417 -1 c 0
 401 -1 390 4 390 12 c 0
 390 22 403 29 420 32 c 0
 466 40 485 55 483 81 c 0
 481 112 459 184 445 232 c 0
 442 242 437 245 421 245 c 2
 235 245 l 2
 228 245 222 240 218 227 c 0
 208 198 181 111 179 92 c 0
 176 60 199 41 238 31 c 0
 259 26 268 20 268 10 c 0
 268 2 257 -1 241 -1 c 0
 217 -1 183 1 145 1 c 0
 102 1 62 -5 27 -5 c 0
262 283 m 2
 411 283 l 2
 421 283 425 284 425 289 c 0
 425 292 424 295 423 299 c 2
 348 538 l 2
 344 549 343 554 340 554 c 0
 338 554 336 548 332 539 c 2
 244 299 l 2
 243 296 242 293 242 291 c 0
 242 284 250 283 262 283 c 2
EndSplineSet
EndChar

StartChar: Beta
Encoding: 914 914 53
Width: 601
GlyphClass: 2
Flags: HW
TeX: 657 5
TopAccentHorizontal: 283
HStem: -5 31<19.5734 94.0595> -4 45<234.336 373.066> 338 32<230.173 351.745> 623 34<27.6728 102.292 228.746 360.271>
VStem: 123 98<53.8594 331.27 373.83 606.63> 419 102<430.426 574.32> 448 113<113.987 269.638>
LayerCount: 2
Fore
SplineSet
46 -5 m 0xba
 30 -5 19 -1 19 7 c 0
 19 16 28 22 49 26 c 0
 98 36 123 52 123 98 c 2
 123 549 l 2
 123 596 107 615 58 621 c 0
 37 623 28 632 28 641 c 0
 28 649 39 653 55 653 c 0
 111 653 124 651 167 651 c 0
 207 651 225 657 286 657 c 0
 443 657 521 617 521 508 c 0xbc
 521 464 502 427 483 410 c 0
 462 389 446 379 414 368 c 0
 409 366 408 360 414 358 c 0
 477 340 561 310 561 194 c 0
 561 83 498 50 457 29 c 0
 415 8 361 -4 285 -4 c 0x7a
 260 -4 221 0 179 0 c 0
 129 0 100 -5 46 -5 c 0xba
266 370 m 0
 301 370 340 376 377 399 c 0
 390 407 419 436 419 493 c 0
 419 557 393 623 284 623 c 0
 233 623 221 609 221 579 c 2
 221 407 l 2
 221 374 250 370 266 370 c 0
296 41 m 0x7a
 377 41 448 104 448 188 c 0
 448 263 405 299 380 314 c 0
 364 324 331 338 276 338 c 0
 239 338 221 318 221 303 c 2
 221 110 l 2
 221 58 248 41 296 41 c 0x7a
EndSplineSet
EndChar

StartChar: Gamma
Encoding: 915 915 54
Width: 520
GlyphClass: 2
Flags: HW
TeX: 653 5
TopAccentHorizontal: 266
HStem: -5 31<19.5519 94.8689 253.668 329.506> 616 34<31.7846 110.1 234 447.187>
VStem: 124 100<47.4865 605.877> 492 27<497.47 555.39>
LayerCount: 2
Fore
SplineSet
46 -5 m 0
 31 -5 19 -1 19 7 c 0
 19 17 28 22 49 26 c 0
 99 35 124 53 124 98 c 2
 124 550 l 2
 124 596 109 612 59 621 c 0
 38 625 28 632 28 641 c 0
 28 649 39 653 55 653 c 0
 107 653 135 650 179 650 c 2
 458 650 l 2
 472 650 491 653 495 653 c 0
 504 653 515 651 515 643 c 0
 516 600 519 547 519 512 c 0
 519 504 514 497 508 497 c 0
 501 497 494 505 492 513 c 0
 483 545 475 574 455 593 c 0
 439 607 418 616 385 616 c 2
 269 616 l 2
 237 616 224 597 224 549 c 2
 224 98 l 2
 224 53 250 36 300 26 c 0
 321 22 330 18 330 8 c 0
 330 0 319 -4 304 -4 c 0
 252 -4 222 0 178 0 c 0
 130 0 98 -5 46 -5 c 0
EndSplineSet
EndChar

StartChar: Delta
Encoding: 916 916 55
Width: 675
GlyphClass: 2
Flags: HW
TeX: 670 0
TopAccentHorizontal: 331
HStem: 0 57<117.012 487.996>
VStem: 488 129<17.7998 78.1292>
LayerCount: 2
Fore
SplineSet
52 0 m 2
 39 0 33 10 33 21 c 0
 33 26 34 31 36 35 c 2
 279 558 l 2
 288 578 290 591 293 601 c 1
 301 611 305 624 313 627 c 0
 328 632 337 639 348 645 c 0
 361 651 370 671 375 669 c 0
 380 667 382 661 385 652 c 2
 615 34 l 2
 616 31 617 28 617 24 c 0
 617 12 610 0 599 0 c 2
 52 0 l 2
152 57 m 2
 471 57 l 2
 483 57 488 61 488 69 c 0
 488 79 481 95 472 120 c 2
 331 534 l 2
 327 546 325 552 322 552 c 0
 320 552 318 546 313 535 c 2
 126 105 l 2
 120 91 117 82 117 75 c 0
 117 57 133 57 152 57 c 2
EndSplineSet
EndChar

StartChar: Epsilon
Encoding: 917 917 56
Width: 574
GlyphClass: 2
Flags: HW
TeX: 653 5
TopAccentHorizontal: 288
HStem: -5 31<37.5734 111.174> 1 37<249.621 463.629> 317 36<238.608 396.622> 616 34<45.7846 124.1 244.867 450.616>
VStem: 138 100<46.3005 316.764 352.8 605.843> 412 31<238.543 299.985 368.664 425.471> 489 27<516.812 566.362>
LayerCount: 2
Fore
SplineSet
64 -5 m 0xbe
 48 -5 37 -1 37 7 c 0
 37 16 46 22 67 26 c 0xbe
 116 36 138 52 138 98 c 2
 138 549 l 2
 138 596 123 612 73 621 c 0
 52 625 42 632 42 641 c 0
 42 649 53 653 69 653 c 0
 137 653 175 650 239 650 c 0
 289 650 350 651 397 651 c 1
 414 651 478 655 480 655 c 1
 488 655 499 652 500 643 c 0
 507 602 516 562 516 533 c 0
 516 521 508 517 502 517 c 0
 495 517 492 520 489 528 c 0
 480 553 473 577 463 588 c 0
 445 608 423 616 395 616 c 2
 279 616 l 2
 263 616 238 602 238 581 c 2
 238 375 l 2
 238 361 246 353 258 353 c 2
 354 353 l 2
 392 353 402 369 412 405 c 0
 416 419 422 426 430 426 c 0
 435 426 443 419 443 408 c 0
 442 395 440 353 440 335 c 0
 440 313 441 270 442 257 c 0
 442 246 441 237 433 237 c 0
 423 237 415 249 410 268 c 0
 401 301 389 317 363 317 c 2
 270 317 l 2
 249 317 238 313 238 292 c 2
 238 101 l 2
 238 53 257 38 300 38 c 2
 378 38 l 2
 417 38 444 42 465 56 c 0
 486 71 502 95 522 133 c 0
 526 142 531 147 538 146 c 0
 545 145 549 139 549 131 c 0
 549 109 530 43 518 11 c 0
 514 2 510 -5 502 -5 c 0
 399 -5 289 1 185 1 c 0x7e
 141 1 115 -5 64 -5 c 0xbe
EndSplineSet
EndChar

StartChar: Zeta
Encoding: 918 918 57
Width: 602
GlyphClass: 2
Flags: HW
TeX: 676 5
TopAccentHorizontal: 308
HStem: -5 44<203.993 486.36> 608 39<127.078 422.57>
LayerCount: 2
Fore
SplineSet
532 -5 m 0
 441 -5 334 -2 240 -2 c 0
 198 -2 154 -3 114 -3 c 2
 37 -3 l 2
 29 -3 27 14 28 15 c 1
 32 30 64 77 86 108 c 0
 211 286 299 407 418 589 c 0
 420 592 423 595 423 599 c 0
 423 603 418 607 404 608 c 0
 371 609 322 609 276 609 c 0
 241 609 208 610 183 608 c 0
 145 605 98 581 77 531 c 0
 71 518 61 498 45 498 c 0
 38 498 35 504 35 511 c 0
 35 519 39 530 42 538 c 0
 53 566 66 614 69 659 c 0
 70 675 79 679 86 679 c 0
 93 679 110 666 123 661 c 0
 139 654 174 647 209 647 c 2
 333 647 l 2
 406 647 494 648 562 650 c 0
 569 650 579 636 575 631 c 2
 512 542 l 2
 386 368 308 251 194 75 c 0
 190 70 189 64 189 59 c 0
 189 51 194 44 203 43 c 0
 229 40 268 39 306 39 c 0
 353 39 400 41 444 47 c 0
 497 54 531 88 556 153 c 0
 559 161 568 172 578 172 c 0
 584 172 588 167 588 158 c 0
 588 141 563 42 552 13 c 0
 548 4 543 -5 532 -5 c 0
EndSplineSet
EndChar

StartChar: Eta
Encoding: 919 919 58
Width: 818
GlyphClass: 2
Flags: HW
TeX: 653 5
TopAccentHorizontal: 404
HStem: -5 31<37.2085 106.82 262.947 332.28 495.121 564.891 709.383 777.792> 306 42<226.8 592> 621 32<42.7356 112.269 251.547 323.555 496.466 568.205 707.527 776.046>
VStem: 127 100<53.0005 305.8 347.8 602.74> 592 100<46.5819 305.8 347.8 603.289>
LayerCount: 2
Fore
SplineSet
64 -5 m 0
 49 -5 37 1 37 9 c 0
 37 19 45 22 66 26 c 0
 115 35 127 53 127 99 c 2
 127 551 l 2
 127 596 122 611 72 621 c 0
 51 625 42 630 42 640 c 0
 42 648 52 653 69 653 c 0
 121 653 141 650 181 650 c 0
 221 650 246 653 298 653 c 0
 316 653 324 649 324 640 c 0
 324 630 315 625 294 621 c 0
 243 610 227 590 227 551 c 2
 227 358 l 2
 227 350 234 348 241 348 c 2
 583 348 l 2
 589 348 592 352 592 361 c 2
 592 552 l 2
 592 589 577 610 526 621 c 0
 505 625 496 630 496 640 c 0
 496 649 506 653 522 653 c 0
 574 653 603 650 647 650 c 0
 684 650 698 653 750 653 c 0
 767 653 776 648 776 640 c 0
 776 630 767 625 747 621 c 0
 697 611 692 591 692 552 c 2
 692 99 l 2
 692 52 700 35 749 26 c 0
 770 22 778 19 778 9 c 0
 778 1 766 -5 751 -5 c 0
 701 -5 680 0 639 0 c 0
 597 0 573 -4 521 -4 c 0
 506 -4 495 1 495 9 c 0
 495 19 503 22 524 26 c 0
 568 35 592 55 592 97 c 2
 592 290 l 2
 592 298 592 306 585 306 c 2
 234 306 l 2
 227 306 227 302 227 293 c 2
 227 104 l 2
 227 63 256 35 303 26 c 0
 324 22 332 19 332 9 c 0
 332 1 322 -4 306 -4 c 0
 255 -4 225 0 181 0 c 0
 138 0 114 -5 64 -5 c 0
EndSplineSet
EndChar

StartChar: Theta
Encoding: 920 920 59
Width: 781
GlyphClass: 2
Flags: HW
TeX: 664 14
TopAccentHorizontal: 382
HStem: -14 43<316.142 495.631> 295 81<303.541 481.723> 621 43<295.252 478.285>
VStem: 50 115<214.297 443.336> 518 33<386.057 418.362> 617 114<211.333 453.221>
LayerCount: 2
Fore
SplineSet
390 -14 m 0
 211 -14 50 127 50 319 c 0
 50 499 170 660 392 664 c 1
 584 664 731 526 731 335 c 0
 731 155 613 -14 390 -14 c 0
402 29 m 0
 544 29 617 136 617 305 c 0
 617 492 536 621 384 621 c 0
 244 621 165 493 165 349 c 0
 165 176 260 29 402 29 c 0
504 240 m 0
 496 240 491 252 485 267 c 0
 479 282 465 295 443 295 c 2
 330 295 l 2
 300 295 278 292 268 276 c 0
 262 266 247 242 233 242 c 0
 227 242 225 248 225 255 c 0
 225 262 228 272 231 277 c 0
 247 311 268 369 271 413 c 0
 272 428 280 432 286 432 c 0
 292 432 296 424 299 412 c 0
 304 392 312 376 330 376 c 2
 469 376 l 2
 490 376 509 386 518 399 c 0
 529 414 536 422 544 422 c 0
 550 422 560 415 551 396 c 0
 537 360 525 313 520 265 c 0
 519 253 517 240 504 240 c 0
EndSplineSet
EndChar

StartChar: Iota
Encoding: 921 921 60
Width: 348
GlyphClass: 2
Flags: HW
TeX: 653 5
TopAccentHorizontal: 176
HStem: -5 31<19.5519 94.8689 253.668 329.506> 621 32<28.2818 102.19 247.888 322.976>
VStem: 124 100<47.4865 603.127>
LayerCount: 2
Fore
SplineSet
46 -5 m 0
 31 -5 19 -1 19 7 c 0
 19 17 28 22 49 26 c 0
 99 35 124 53 124 98 c 2
 124 550 l 2
 124 596 108 611 57 621 c 0
 36 625 28 632 28 642 c 0
 28 650 39 653 54 653 c 0
 106 653 133 650 178 650 c 0
 220 650 246 653 297 653 c 0
 312 653 324 649 324 641 c 0
 324 631 315 625 294 621 c 0
 243 610 224 595 224 550 c 2
 224 98 l 2
 224 53 250 36 300 26 c 0
 321 22 330 18 330 8 c 0
 330 0 319 -4 304 -4 c 0
 252 -4 222 0 178 0 c 0
 130 0 98 -5 46 -5 c 0
EndSplineSet
EndChar

StartChar: Kappa
Encoding: 922 922 61
Width: 707
GlyphClass: 2
Flags: HW
TeX: 655 5
TopAccentHorizontal: 360
HStem: -5 32<31.4715 105.753 258.117 325.353 413.608 467.101 634.872 713.962> 317 25<227.71 251.205> 621 32<31.8183 105.68 244.811 313.377 420.948 470.724 599.885 698.786>
VStem: 128 100<50.1281 316.591 341.409 604.934>
LayerCount: 2
Fore
SplineSet
60 -5 m 0
 44 -5 31 -1 31 7 c 0
 31 17 41 23 62 27 c 0
 112 36 128 52 128 100 c 2
 128 551 l 2
 128 596 111 611 61 621 c 0
 40 625 31 632 31 642 c 0
 31 650 43 653 58 653 c 0
 110 653 135 651 178 651 c 0
 216 651 237 653 288 653 c 0
 303 653 314 649 314 641 c 0
 314 631 304 625 284 621 c 0
 233 610 228 590 228 551 c 2
 228 359 l 2
 228 353 229 341 234 341 c 0
 241 341 252 351 260 359 c 2
 458 563 l 2
 468 573 474 585 474 594 c 0
 474 605 465 615 449 619 c 0
 428 624 421 629 421 639 c 0
 421 647 432 651 447 651 c 2
 505 651 l 2
 565 651 649 655 677 655 c 0
 690 655 700 651 700 643 c 0
 700 633 689 627 668 623 c 0
 613 614 559 595 515 558 c 0
 446 501 396 449 328 377 c 0
 322 371 325 364 332 356 c 2
 574 96 l 2
 613 52 626 39 682 27 c 0
 703 22 714 18 714 8 c 0
 714 0 702 -5 683 -5 c 0
 624 -5 590 0 533 0 c 0
 502 0 485 -1 440 -1 c 0
 425 -1 414 2 414 10 c 0
 414 20 421 25 439 29 c 0
 461 34 470 42 470 51 c 0
 470 59 464 68 455 78 c 2
 256 300 l 2
 248 309 238 317 233 317 c 0
 228 317 228 304 228 296 c 0
 228 234 229 183 232 107 c 0
 234 66 244 37 294 27 c 0
 315 23 326 18 326 8 c 0
 326 0 313 -5 297 -5 c 0
 241 -5 227 2 189 2 c 0
 142 2 117 -5 60 -5 c 0
EndSplineSet
EndChar

StartChar: Lambda
Encoding: 923 923 62
Width: 696
GlyphClass: 2
Flags: HW
TeX: 670 5
TopAccentHorizontal: 348
HStem: -5 37<-0.974098 69.3358 196.057 267.02 390.5 463.495 619.281 699.244> 653 20G<385.1 391.3>
LayerCount: 2
Fore
SplineSet
27 -5 m 0
 10 -5 -2 0 -2 9 c 0
 -2 19 9 25 29 32 c 0
 64 42 96 59 114 106 c 2
 295 568 l 2
 299 578 304 588 308 602 c 0
 312 615 311 633 313 634 c 0
 328 638 339 645 353 651 c 0
 372 659 381 673 388 673 c 0
 394 673 398 667 401 657 c 2
 574 122 l 2
 597 52 630 38 670 29 c 0
 691 25 701 17 701 7 c 0
 701 -1 689 -4 674 -4 c 0
 643 -4 574 1 529 1 c 0
 490 1 445 -1 417 -1 c 0
 402 -1 390 3 390 11 c 0
 390 20 404 27 421 32 c 0
 472 45 484 61 472 103 c 2
 346 539 l 2
 342 550 341 556 338 556 c 0
 336 556 334 549 330 540 c 2
 180 104 l 2
 167 65 196 42 237 31 c 0
 258 26 267 20 267 10 c 0
 267 2 256 -1 240 -1 c 0
 216 -1 183 1 146 1 c 0
 103 1 62 -5 27 -5 c 0
EndSplineSet
EndChar

StartChar: Mu
Encoding: 924 924 63
Width: 907
GlyphClass: 2
Flags: HW
TeX: 656 10
TopAccentHorizontal: 442
HStem: -4 31<19.7872 82.6032 197.729 264.962 577.267 644.962 799.397 872.005> 623 33<42.6679 114.442 781.849 850.417>
VStem: 649 96<302.1 447.456> 661 211<7.59961 96.4004>
LayerCount: 2
Fore
SplineSet
46 -5 m 0xe0
 29 -5 19 -1 19 7 c 0
 19 17 29 21 50 25 c 0
 83 33 105 59 112 104 c 0
 133 261 150 423 153 525 c 1
 153 531 153 553 152 559 c 1
 151 573 149 584 135 595 c 0
 113 612 93 617 65 623 c 0
 52 626 42 634 42 644 c 0
 42 654 55 656 74 656 c 0
 104 656 199 648 235 648 c 0
 244 648 252 642 255 632 c 0
 263 608 268 582 278 556 c 2
 433 169 l 2
 437 160 449 157 453 166 c 2
 635 555 l 1
 642 583 650 615 654 635 c 0
 656 643 659 648 665 648 c 2
 703 648 l 2
 747 649 804 656 830 656 c 0
 838 656 852 654 852 645 c 0
 852 635 844 631 826 624 c 0
 811 618 791 611 776 604 c 0
 756 595 744 582 745 559 c 0xe0
 747 371 759 253 768 96 c 0
 770 57 794 36 842 27 c 0
 863 23 872 18 872 8 c 0
 872 0 861 -4 846 -4 c 0
 795 -4 763 0 719 0 c 0
 678 0 656 -5 604 -5 c 0
 588 -5 577 -1 577 7 c 0
 577 17 586 24 607 27 c 0
 649 33 662 50 661 96 c 0xd0
 660 234 655 333 649 462 c 0
 647 474 641 474 635 462 c 2
 415 -3 l 2
 411 -13 398 -12 395 -3 c 0
 339 153 277 298 206 466 c 0
 203 474 193 473 192 464 c 0
 176 334 167 230 167 102 c 0
 167 66 190 36 234 27 c 0
 255 23 266 18 266 8 c 0
 266 0 253 -4 238 -4 c 0
 184 -4 180 0 142 0 c 0
 104 0 88 -5 46 -5 c 0xe0
EndSplineSet
EndChar

StartChar: Nu
Encoding: 925 925 64
Width: 796
GlyphClass: 2
Flags: HW
TeX: 658 17
TopAccentHorizontal: 397
HStem: -5 32<33.761 92.405 207.166 278.14> 619 32<543.049 617.452 706.05 785.057> 620 38<13.2362 85.4964>
VStem: 139 40<307.709 494.391> 643 45<154.804 599.724>
LayerCount: 2
Fore
SplineSet
672 -17 m 0xd8
 658 -17 616 1 581 47 c 1
 539 97 256 428 209 480 c 0
 201 490 195 494 190 494 c 0
 183 494 181 482 181 474 c 0
 179 377 179 223 179 106 c 0
 179 68 196 36 247 26 c 0
 268 22 279 18 279 8 c 0
 279 0 266 -4 251 -4 c 0
 197 -4 190 0 152 0 c 0
 114 0 103 -5 61 -5 c 0
 46 -5 33 -1 33 7 c 0
 33 17 43 21 64 27 c 0
 100 37 116 68 120 109 c 0
 128 184 139 342 139 507 c 0
 139 577 99 601 42 620 c 0
 34 622 12 632 12 644 c 0
 12 656 27 658 36 658 c 0xb8
 106 656 129 653 201 653 c 0
 212 653 217 646 223 638 c 0
 265 587 568 222 611 173 c 0
 616 167 627 155 634 155 c 0
 639 155 642 161 643 174 c 0
 644 224 645 401 644 562 c 0
 643 591 610 613 582 619 c 0
 561 623 542 629 542 639 c 0
 542 647 563 651 578 651 c 1
 594 651 635 650 646 650 c 1
 692 650 700 653 759 653 c 0
 776 653 787 650 787 642 c 0
 787 632 777 625 756 621 c 0
 707 612 694 600 692 565 c 0
 691 520 688 264 688 119 c 0
 688 71 695 27 695 13 c 0
 695 -11 684 -17 672 -17 c 0xd8
EndSplineSet
EndChar

StartChar: Xi
Encoding: 926 926 65
Width: 652
GlyphClass: 2
Flags: HW
TeX: 675 8
TopAccentHorizontal: 327
HStem: -8 21G<40.6001 134.2> 0 80<106.603 551.291> 297 81<197.19 442.245> 572 79<137.568 523.216> 656 20G<588.7 596.4>
VStem: 72 28<92.7206 170.132> 447 32<240.515 289.402> 470 30<389.676 421.484> 537 36<497.61 553.015>
LayerCount: 2
Fore
SplineSet
555 498 m 0x3c80
 545 498 540 511 537 523 c 0
 531 550 512 572 459 572 c 2
 190 572 l 2
 137 572 113 565 92 533 c 0
 84 521 69 503 57 503 c 0
 50 503 47 508 47 514 c 0
 47 519 49 526 52 531 c 0
 72 572 86 612 96 657 c 0
 100 671 110 678 117 678 c 0
 124 678 130 670 137 664 c 0
 149 653 181 651 210 651 c 2
 494 651 l 2
 525 651 555 656 567 664 c 0
 577 669 584 676 594 676 c 0
 600 676 603 670 603 663 c 0
 603 660 602 656 601 653 c 0
 586 614 579 566 573 526 c 0
 571 512 566 498 555 498 c 0x3c80
467 239 m 0
 461 239 451 251 447 263 c 0x3e80
 442 284 432 297 405 297 c 2
 224 297 l 2
 189 297 181 286 168 262 c 0
 165 255 155 239 146 239 c 0
 139 239 137 246 137 255 c 0
 137 260 138 265 139 270 c 0
 146 294 162 387 164 405 c 0
 166 424 172 428 178 428 c 0
 184 428 191 421 193 409 c 0
 195 394 214 378 230 378 c 2
 429 378 l 2
 444 378 461 392 470 406 c 0
 477 417 482 423 490 423 c 0
 496 423 502 417 500 407 c 0x3d80
 487 354 479 298 479 264 c 0x3e80
 479 252 476 239 467 239 c 0
45 -8 m 2xbc80
 37 -8 29 0 29 8 c 0
 29 22 39 45 49 69 c 0
 58 90 69 125 72 145 c 0
 75 163 81 170 88 170 c 0
 96 170 100 160 100 152 c 0
 103 101 100 80 163 80 c 2
 483 80 l 2
 536 80 570 110 585 145 c 0
 589 153 601 173 614 173 c 0
 622 173 624 165 624 159 c 2
 624 150 l 2
 624 128 592 56 587 14 c 0
 586 4 582 -8 571 -8 c 1
 568 -8 547 0 464 0 c 2
 134 0 l 2x7c80
 82 0 45 -8 45 -8 c 2xbc80
EndSplineSet
EndChar

StartChar: Omicron
Encoding: 927 927 66
Width: 771
GlyphClass: 2
Flags: HW
TeX: 664 14
TopAccentHorizontal: 382
HStem: -14 42<308.554 489.011> 621 43<275.059 464.797>
VStem: 45 115<212.995 438.806> 611 115<211.301 437.028>
LayerCount: 2
Fore
SplineSet
381 -14 m 0
 203 -14 45 118 45 315 c 0
 45 495 165 664 390 664 c 0
 568 664 726 532 726 335 c 0
 726 155 606 -14 381 -14 c 0
397 28 m 0
 540 28 611 130 611 285 c 0
 611 465 532 621 373 621 c 0
 232 621 160 519 160 365 c 0
 160 185 238 28 397 28 c 0
EndSplineSet
EndChar

StartChar: Pi
Encoding: 928 928 67
Width: 828
GlyphClass: 2
Flags: HW
TeX: 653 5
TopAccentHorizontal: 408
HStem: -5 31<37.5519 111.659 273.736 345.923 479.094 550.936 713.151 787.448> 608 40<240.8 583> 621 32<46.2818 119.125 707.391 781.318>
VStem: 141 100<49.5398 604.893> 583 101<48.8803 604.022>
LayerCount: 2
Fore
SplineSet
64 -5 m 0xd8
 49 -5 37 -1 37 7 c 0
 37 17 46 22 67 26 c 0
 116 35 141 53 141 98 c 2
 141 550 l 2
 141 596 125 611 75 621 c 0
 54 625 46 632 46 642 c 0
 46 650 57 653 72 653 c 0xb8
 124 653 146 649 187 649 c 0
 276 649 339 648 413 648 c 0xd8
 485 648 551 650 639 650 c 0
 681 650 703 653 755 653 c 0
 770 653 782 650 782 642 c 0
 782 632 773 625 752 621 c 0xb8
 702 611 684 596 684 550 c 2
 684 98 l 2
 684 53 709 35 758 26 c 0
 779 22 788 17 788 7 c 0
 788 -1 777 -5 762 -5 c 0
 711 -5 683 0 639 0 c 0
 591 0 556 -4 505 -4 c 0
 490 -4 479 0 479 8 c 0
 479 18 487 22 508 26 c 0
 558 36 582 58 583 99 c 0
 587 264 585 430 583 595 c 0
 583 603 579 604 573 604 c 0
 500 605 458 608 399 608 c 0
 350 608 309 606 248 604 c 0
 242 604 241 600 241 592 c 0
 234 428 235 263 241 99 c 0
 242 58 267 36 317 26 c 0
 338 22 346 18 346 8 c 0
 346 0 336 -4 321 -4 c 0
 269 -4 239 0 195 0 c 0
 147 0 114 -5 64 -5 c 0xd8
EndSplineSet
EndChar

StartChar: Rho
Encoding: 929 929 68
Width: 567
GlyphClass: 2
Flags: HW
TeX: 658 5
TopAccentHorizontal: 276
HStem: -5 31<24.5519 98.6663 254.158 323.923> 248 33<268.875 381.871> 626 32<34.5256 94.8872 235.99 362.442>
VStem: 126 100<47.3222 603.699> 440 104<370.217 557.558>
LayerCount: 2
Fore
SplineSet
51 -5 m 0
 36 -5 24 -1 24 7 c 0
 24 17 33 22 54 26 c 0
 104 35 126 52 126 99 c 2
 126 528 l 2
 126 584 114 612 65 621 c 0
 44 625 34 632 34 641 c 0
 34 649 45 653 61 653 c 0
 113 653 128 652 169 652 c 0
 211 652 250 658 288 658 c 0
 443 658 544 590 544 476 c 0
 544 352 470 248 315 248 c 0
 284 248 268 259 268 269 c 0
 268 276 277 284 284 284 c 0
 292 284 304 281 329 281 c 0
 403 281 440 351 440 465 c 0
 440 576 378 626 288 626 c 0
 250 626 226 613 226 582 c 2
 225 108 l 2
 225 61 243 35 295 26 c 0
 316 22 324 18 324 8 c 0
 324 0 314 -4 299 -4 c 0
 247 -4 223 2 185 2 c 0
 136 2 103 -5 51 -5 c 0
EndSplineSet
EndChar

StartChar: Sigma
Encoding: 931 931 69
Width: 605
GlyphClass: 2
Flags: HW
TeX: 678 6
TopAccentHorizontal: 300
HStem: -6 21G<43.7002 72.2002> 0 85<164.611 525.739> 613 33<181.803 398.87>
LayerCount: 2
Fore
SplineSet
50 -6 m 0xa0
 37 -6 25 1 25 13 c 0
 25 26 247 233 316 310 c 0
 320 315 318 320 314 325 c 0
 215 420 27 617 27 629 c 0
 27 643 36 649 44 649 c 0
 118 647 193 646 282 646 c 0
 331 646 383 646 438 647 c 0
 469 647 491 655 505 664 c 0
 516 671 530 678 537 678 c 0
 544 678 553 674 554 659 c 0
 558 612 569 556 571 530 c 0
 572 522 572 514 570 509 c 0
 568 502 565 497 558 500 c 0
 543 508 538 530 529 543 c 1
 509 585 489 600 442 603 c 0
 389 607 268 613 201 613 c 0
 186 613 182 610 182 606 c 0
 182 603 184 600 186 597 c 0
 219 554 331 439 411 375 c 0
 423 365 417 356 409 348 c 1
 379 320 195 138 166 108 c 1
 158 100 163 92 174 91 c 0
 234 86 361 85 448 85 c 0
 496 85 528 94 554 141 c 0
 564 159 573 174 586 174 c 0
 593 174 597 168 597 163 c 1
 596 158 l 1
 578 107 557 40 552 13 c 0
 550 4 548 -5 537 -5 c 0
 507 -5 486 0 458 0 c 0
 394 1 332 1 275 1 c 0
 233 1 194 1 158 0 c 0x60
 108 -1 94 -6 50 -6 c 0xa0
EndSplineSet
EndChar

StartChar: Tau
Encoding: 932 932 70
Width: 679
GlyphClass: 2
Flags: HW
TeX: 694 5
TopAccentHorizontal: 348
HStem: -5 31<187.195 263.346 425.437 500.672> 610 34<113.682 286.005 402.225 601.973>
VStem: 294 100<48.6487 605.193> 624 38<516.963 589.951>
LayerCount: 2
Fore
SplineSet
214 -5 m 0
 199 -5 187 -1 187 7 c 0
 187 17 196 22 217 26 c 0
 267 35 294 55 294 101 c 2
 294 496 l 2
 294 584 288 602 274 605 c 0
 257 609 238 610 210 610 c 2
 169 610 l 2
 135 610 97 594 81 566 c 0
 74 554 52 525 36 525 c 0
 29 525 27 532 27 539 c 0
 27 545 29 555 32 561 c 0
 53 602 60 628 66 672 c 0
 69 693 78 695 85 695 c 0
 91 695 104 674 112 663 c 0
 121 650 156 644 182 644 c 2
 541 644 l 2
 583 644 610 650 629 659 c 0
 646 668 654 682 670 682 c 0
 675 682 678 670 678 660 c 0
 678 653 676 640 675 634 c 0
 668 596 662 591 662 563 c 2
 662 549 l 2
 662 535 657 517 646 517 c 0
 636 517 630 531 624 557 c 0
 617 591 593 610 531 610 c 2
 443 610 l 2
 400 610 394 602 394 497 c 2
 394 101 l 2
 394 55 420 36 471 26 c 0
 492 22 501 18 501 8 c 0
 501 0 489 -4 474 -4 c 0
 423 -4 393 0 348 0 c 0
 300 0 266 -5 214 -5 c 0
EndSplineSet
EndChar

StartChar: Upsilon
Encoding: 933 933 71
Width: 740
GlyphClass: 2
Flags: HW
TeX: 650 5
TopAccentHorizontal: 371
HStem: -5 31<213.352 285.532 452.077 523.306> 596 57<95.5757 213.193 532.127 670.998>
VStem: 318 100<51.3234 438.207>
LayerCount: 2
Fore
SplineSet
239 -5 m 0
 224 -5 213 -1 213 7 c 0
 213 17 222 22 243 26 c 0
 293 35 318 60 318 106 c 2
 318 291 l 2
 318 407 270 596 148 596 c 0
 98 596 56 575 35 551 c 0
 33 549 31 548 28 548 c 0
 24 548 20 552 20 556 c 0
 20 563 26 569 34 581 c 0
 59 612 113 653 174 653 c 0
 297 653 353 528 370 484 c 0
 372 479 372 474 374 474 c 0
 377 474 378 479 380 483 c 0
 400 527 469 653 589 653 c 0
 647 653 690 624 719 593 c 0
 725 587 730 577 730 571 c 0
 730 566 727 562 722 562 c 0
 720 562 716 564 713 566 c 0
 688 585 648 597 607 597 c 0
 478 597 418 442 418 292 c 2
 418 106 l 2
 418 63 444 36 494 26 c 0
 515 22 524 18 524 8 c 0
 524 0 513 -4 498 -4 c 0
 446 -4 416 0 372 0 c 0
 324 0 291 -5 239 -5 c 0
EndSplineSet
EndChar

StartChar: Phi
Encoding: 934 934 72
Width: 753
GlyphClass: 2
Flags: HW
TeX: 672 5
TopAccentHorizontal: 387
HStem: -5 31<237.173 315.059 445.583 523.906> 95 38<271.391 330.2 429 497.484> 545 35<262.317 330.2 429 493.916> 640 32<246.018 316.269 442.679 517.377>
VStem: 40 104<252.17 429.459> 330 99<38.991 95 133.2 544.4 580.2 629.069> 608 105<244.698 441.635>
LayerCount: 2
Fore
SplineSet
263 -5 m 0
 248 -5 237 -1 237 7 c 0
 237 17 246 22 267 26 c 0
 316 35 330 45 330 79 c 2
 330 95 l 1
 169 103 40 179 40 328 c 0
 40 480 162 572 330 580 c 1
 330 596 l 2
 330 618 315 632 275 640 c 0
 254 644 245 651 245 661 c 0
 245 669 257 672 272 672 c 0
 312 672 340 669 385 669 c 0
 427 669 461 672 492 672 c 0
 507 672 518 668 518 660 c 0
 518 650 509 643 488 640 c 0
 443 632 429 618 429 597 c 2
 429 580 l 1
 594 577 713 493 713 347 c 0
 713 197 600 106 429 95 c 1
 429 78 l 2
 429 45 446 35 494 26 c 0
 515 22 524 18 524 8 c 0
 524 0 513 -4 498 -4 c 0
 447 -4 429 0 385 0 c 0
 340 0 303 -5 263 -5 c 0
330 133 m 1
 330 545 l 1
 218 535 144 468 144 359 c 0
 144 239 213 151 330 133 c 1
429 130 m 1
 533 142 608 224 608 331 c 0
 608 460 547 532 429 544 c 1
 429 130 l 1
EndSplineSet
EndChar

StartChar: Chi
Encoding: 935 935 73
Width: 718
GlyphClass: 2
Flags: HW
TeX: 656 5
TopAccentHorizontal: 347
HStem: -5 34<-3.91132 65.3375 202.575 267.452 390.213 451.244 641.841 710.186> 621 33<19.1377 86.5969 260.652 334.754 451.329 519.634 636.913 702.922>
LayerCount: 2
Fore
SplineSet
24 -5 m 0
 7 -5 -5 -2 -5 7 c 0
 -5 17 6 23 26 29 c 0
 61 39 121 70 164 124 c 2
 288 280 l 2
 302 300 311 316 292 343 c 2
 156 535 l 2
 113 595 84 611 49 621 c 0
 29 627 18 633 18 643 c 0
 18 651 29 654 45 654 c 0
 85 654 147 650 200 650 c 0
 241 650 282 653 307 653 c 0
 322 653 335 649 335 641 c 0
 335 632 324 626 303 620 c 0
 268 610 250 605 250 587 c 0
 250 576 260 559 279 532 c 2
 371 404 l 2
 385 384 391 385 402 401 c 2
 503 535 l 2
 519 556 528 574 528 587 c 0
 528 602 515 613 483 620 c 0
 469 623 451 630 451 640 c 0
 451 648 463 652 480 652 c 0
 508 652 532 650 564 650 c 0
 603 650 645 656 675 656 c 0
 692 656 705 653 705 644 c 0
 705 634 694 630 673 624 c 0
 637 614 591 568 553 522 c 2
 432 377 l 2
 414 357 413 351 422 334 c 2
 580 107 l 2
 608 67 643 38 678 29 c 0
 699 23 711 17 711 7 c 0
 711 -1 699 -5 683 -5 c 0
 643 -5 577 1 526 1 c 0
 485 1 447 0 419 -0 c 0
 403 0 390 3 390 11 c 0
 390 21 408 28 422 32 c 0
 444 38 470 52 470 77 c 0
 470 86 466 96 458 107 c 2
 353 259 l 2
 341 276 335 277 325 263 c 2
 201 100 l 2
 192 87 190 76 190 69 c 0
 190 50 208 36 235 30 c 0
 256 25 268 20 268 10 c 0
 268 2 255 -2 239 -2 c 0
 215 -2 179 1 146 1 c 0
 102 1 59 -5 24 -5 c 0
EndSplineSet
EndChar

StartChar: Psi
Encoding: 936 936 74
Width: 775
GlyphClass: 2
Flags: HW
TeX: 653 5
TopAccentHorizontal: 376
HStem: -5 31<231.552 306.742 465.668 541.506> 555 67<17.0068 73.7839 700.779 759.971> 621 32<240.282 314.054 459.889 534.977>
VStem: 336 100<47.6002 287.364 318.763 603.177>
LayerCount: 2
Fore
SplineSet
258 -5 m 0xd0
 243 -5 231 -1 231 7 c 0
 231 17 240 22 261 26 c 0
 311 35 336 53 336 99 c 2
 336 267 l 2
 336 290 332 286 323 287 c 0
 204 299 162 377 128 447 c 0
 100 504 78 555 20 555 c 0
 6 555 0 561 0 569 c 0
 0 596 35 621 81 622 c 0xd0
 163 624 189 549 212 473 c 0
 234 400 258 323 330 317 c 0
 336 316 336 321 336 336 c 2
 336 551 l 2
 336 596 320 611 269 621 c 0
 248 625 240 632 240 642 c 0
 240 650 251 653 266 653 c 0
 318 653 345 650 390 650 c 0
 432 650 458 653 509 653 c 0
 524 653 536 649 536 641 c 0
 536 631 527 625 506 621 c 0xb0
 455 610 436 596 436 551 c 2
 436 334 l 2
 436 319 436 316 446 317 c 0
 513 322 536 393 559 463 c 0
 586 541 613 622 703 622 c 0
 742 622 773 599 775 569 c 0
 775 561 770 555 756 555 c 0
 701 555 672 503 655 466 c 0
 609 359 569 299 447 287 c 0
 436 286 436 275 436 263 c 2
 436 99 l 2
 436 54 462 36 512 26 c 0
 533 22 542 18 542 8 c 0
 542 0 531 -4 516 -4 c 0
 464 -4 434 0 390 0 c 0
 342 0 310 -5 258 -5 c 0xd0
EndSplineSet
EndChar

StartChar: Omega
Encoding: 937 937 75
Width: 842
GlyphClass: 2
Flags: HW
TeX: 664 5
TopAccentHorizontal: 421
HStem: 1 84<99.0326 273.9 565 740.512> 628 36<343.905 488.905>
VStem: 100 118<252.247 465.811> 626 118<263.701 463.441>
LayerCount: 2
Fore
SplineSet
100 -5 m 0
 90 -5 87 3 84 12 c 0
 74 45 39 121 39 147 c 0
 39 153 44 158 50 158 c 0
 62 158 70 146 78 131 c 0
 99 90 140 85 190 85 c 2
 266 86 l 2
 274 86 276 92 274 98 c 1
 168 149 100 240 100 357 c 0
 100 534 249 664 427 664 c 0
 593 664 744 540 744 373 c 0
 744 253 676 156 571 101 c 0
 565 97 559 87 565 85 c 2
 661 85 l 2
 712 84 748 101 768 139 c 0
 776 154 785 165 797 165 c 0
 803 165 807 161 807 154 c 0
 807 130 768 48 760 12 c 0
 758 3 754 -5 744 -5 c 0
 719 -5 695 -0 663 -0 c 0
 628 0 605 1 584 1 c 1
 564 1 517 0 483 0 c 1
 477 0 475 4 475 11 c 0
 475 30 488 63 505 77 c 0
 566 124 626 227 626 334 c 0
 626 476 548 628 416 628 c 0
 291 628 218 498 218 369 c 0
 218 246 264 132 343 72 c 0
 358 60 365 35 368 11 c 0
 369 6 368 0 361 0 c 1
 327 0 278 1 258 1 c 1
 239 1 216 0 182 -0 c 0
 150 -0 125 -5 100 -5 c 0
EndSplineSet
EndChar

StartChar: alpha
Encoding: 945 945 76
Width: 465
GlyphClass: 2
Flags: HW
TeX: 419 15
TopAccentHorizontal: 261
HStem: -15 92<335.739 427.165> -15 48<92.6661 171.935> 318 90<163.042 240.298>
VStem: 35 46<40.8348 204.82> 336 72<318.647 412.349>
LayerCount: 2
Fore
SplineSet
128 -15 m 0x78
 74 -15 35 48 35 125 c 0
 35 248 108 408 194 408 c 0
 243 408 268 355 292 264 c 0
 293 259 296 259 297 264 c 0
 312 309 326 358 336 402 c 0
 340 418 344 428 360 428 c 0
 385 428 408 382 408 364 c 0
 408 331 369 229 313 140 c 1
 329 94 355 77 379 77 c 0
 412 77 438 100 450 112 c 0
 455 117 458 119 462 117 c 0
 470 115 470 107 470 97 c 0
 470 27 412 -15 371 -15 c 0xb8
 338 -15 302 26 291 108 c 1
 244 41 185 -15 128 -15 c 0x78
120 33 m 0x78
 167 33 215 87 255 165 c 0
 263 181 272 200 280 219 c 1
 253 291 239 318 207 318 c 0
 152 318 81 201 81 108 c 0
 81 66 98 33 120 33 c 0x78
EndSplineSet
EndChar

StartChar: beta
Encoding: 946 946 77
Width: 514
GlyphClass: 2
Flags: HW
TeX: 705 285
TopAccentHorizontal: 246
HStem: -14 75<203.93 345.626> 628 78<188.624 315.152>
VStem: 60 49<-145.793 74.1942 114.383 530.895> 356 36<429.373 582.062> 419 59<128.838 253.574>
LayerCount: 2
Fore
SplineSet
118 -285 m 0
 80 -285 62 -235 62 -138 c 1
 62 -47 60 349 60 399 c 1
 60 567 104 706 241 706 c 0
 336 706 392 617 392 519 c 0
 392 434 367 372 352 351 c 0
 350 349 348 343 348 340 c 0
 348 337 357 333 366 329 c 0
 442 293 478 245 478 165 c 0
 478 58 386 -14 279 -14 c 0
 217 -14 163 33 138 63 c 0
 132 70 127 74 124 74 c 0
 118 74 109 66 109 58 c 2
 109 -70 l 2
 109 -152 182 -201 182 -227 c 0
 182 -255 139 -285 118 -285 c 0
266 61 m 0
 344 61 419 118 419 195 c 0
 419 244 383 290 340 290 c 0
 323 290 304 270 289 253 c 0
 274 236 257 221 245 223 c 0
 233 225 198 258 199 281 c 0
 200 305 248 322 272 343 c 0
 329 390 356 447 356 526 c 0
 356 568 321 628 259 628 c 0
 162 628 111 537 111 418 c 2
 109 166 l 2
 109 100 201 61 266 61 c 0
EndSplineSet
EndChar

StartChar: gamma
Encoding: 947 947 78
Width: 437
GlyphClass: 2
Flags: HW
TeX: 426 285
TopAccentHorizontal: 237
HStem: 322 97<26.8234 111.304>
VStem: 124 96<-264.05 -118.875> 197 41<-36.8726 42.5872> 352 72<332.98 413.877>
LayerCount: 2
Fore
SplineSet
189 -285 m 0xd0
 160 -285 124 -251 124 -222 c 0xd0
 124 -154 173 -45 186 -16 c 0
 199 14 199 56 197 85 c 0
 188 218 139 319 55 322 c 0
 14 323 -11 299 -19 299 c 0
 -27 299 -30 301 -30 312 c 0
 -30 349 22 419 91 419 c 0
 183 419 225 265 225 117 c 0
 225 112 226 104 231 104 c 0
 235 104 238 106 241 112 c 0
 291 203 337 340 352 412 c 0
 354 420 361 431 369 431 c 0
 395 431 423 396 423 361 c 0
 423 325 321 166 246 22 c 0
 240 10 238 -5 238 -9 c 0xb0
 237 -38 223 -229 220 -251 c 0
 218 -272 202 -285 189 -285 c 0xd0
EndSplineSet
EndChar

StartChar: delta
Encoding: 948 948 79
Width: 429
GlyphClass: 2
Flags: HW
TeX: 701 14
TopAccentHorizontal: 225
HStem: -14 63<128.607 226.079> 335 62<147 287.5> 616 85<126.108 242.612>
VStem: 35 49<80.6143 223.582> 81 78<598.706 662.9> 312 77<145.415 323.321>
LayerCount: 2
Fore
SplineSet
198 -14 m 0xec
 129 -14 35 59 35 165 c 0xf4
 35 263 103 396 191 397 c 0
 212 397 255 372 268 364 c 0
 276 359 283 363 280 367 c 0
 246 422 176 514 131 561 c 0
 119 574 81 622 81 655 c 0
 81 671 122 701 153 701 c 0
 262 701 420 583 420 477 c 0
 420 470 415 464 408 464 c 0
 390 464 347 543 271 586 c 0
 239 605 208 616 172 616 c 0
 168 616 159 614 159 608 c 0
 159 597 172 574 182 562 c 0
 213 526 268 461 312 411 c 0
 349 370 391 310 389 229 c 0
 385 80 283 -14 198 -14 c 0xec
168 49 m 0
 229 49 312 130 312 231 c 0
 312 265 303 335 272 335 c 0
 172 335 84 244 84 132 c 0
 84 83 128 49 168 49 c 0
EndSplineSet
EndChar

StartChar: epsilon
Encoding: 949 949 80
Width: 345
GlyphClass: 2
Flags: HW
TeX: 412 14
TopAccentHorizontal: 170
HStem: -14 77<103.581 245.524> 175 92<183.468 266.473> 343 75<139.371 276.108>
VStem: 45 54<221.917 307.114> 45 46<76.2384 150.641>
LayerCount: 2
Fore
SplineSet
166 -14 m 0xe8
 102 -14 45 27 45 87 c 0xe8
 45 136 81 171 93 180 c 0
 102 187 104 194 94 199 c 0
 66 212 45 226 45 272 c 0
 45 351 134 418 232 418 c 0
 258 418 282 401 282 381 c 0
 282 363 257 343 232 343 c 0
 150 343 99 310 99 254 c 0xf0
 99 234 112 220 130 220 c 0
 150 220 206 267 239 267 c 0
 264 267 282 250 282 233 c 0
 282 201 249 175 222 175 c 0
 203 175 170 177 144 169 c 0
 113 159 91 134 91 108 c 0
 91 87 120 63 160 63 c 0
 205 63 264 89 289 109 c 0
 301 118 309 124 311 124 c 0
 320 124 323 120 323 107 c 0
 323 44 245 -14 166 -14 c 0xe8
EndSplineSet
EndChar

StartChar: zeta
Encoding: 950 950 81
Width: 341
GlyphClass: 2
Flags: HW
TeX: 721 199
TopAccentHorizontal: 194
HStem: -197 79<134.714 210.508> -5 90<100.831 256.06> 2 89<152.513 290.406> 547 28<145.594 168.996>
VStem: 35 42<110.665 298.255> 52 77<584.315 689.019> 291 36<-53.8696 24.7998>
LayerCount: 2
Fore
SplineSet
176 -197 m 0xba
 152 -197 119 -167 119 -144 c 0
 119 -124 129 -120 144 -118 c 0
 218 -106 291 -56 291 -21 c 0
 291 -5 278 2 257 2 c 0xba
 238 2 166 -5 144 -5 c 0
 69 -5 35 85 35 174 c 0xda
 35 262 77 394 159 519 c 0
 169 534 169 537 169 542 c 0
 169 548 164 547 156 547 c 0
 101 550 52 580 52 637 c 0
 52 684 102 726 155 726 c 0
 162 726 164 725 164 715 c 0
 164 712 161 708 156 704 c 0
 144 690 130 670 129 639 c 0xd6
 128 602 146 575 179 575 c 0
 188 575 191 576 198 584 c 0
 254 654 294 689 310 689 c 0
 333 689 347 670 347 633 c 0
 347 609 328 591 276 560 c 1
 186 498 77 346 77 171 c 0
 77 120 106 85 159 85 c 0xda
 174 85 242 91 257 91 c 0
 285 91 327 44 327 6 c 0
 327 -91 241 -197 176 -197 c 0xba
EndSplineSet
EndChar

StartChar: eta
Encoding: 951 951 82
Width: 478
GlyphClass: 2
Flags: HW
TeX: 414 285
TopAccentHorizontal: 225
HStem: -14 21G<125.2 142> 323 96<56.1957 119.724> 336 83<294.216 360.321>
VStem: 126 39<195.614 316.737> 305 104<-266.601 -119.719> 367 43<-73.7254 331.656>
LayerCount: 2
Fore
SplineSet
381 -285 m 0xb8
 344 -285 304 -260 305 -227 c 0xb8
 305 -212 314 -185 321 -153 c 0
 336 -90 367 199 367 284 c 0
 367 315 351 336 329 336 c 0xb4
 285 336 214 208 164 37 c 0
 157 13 150 -14 134 -14 c 0
 116 -14 89 3 89 24 c 0
 89 47 99 86 109 123 c 0
 118 158 126 202 126 250 c 0
 126 306 116 323 77 323 c 0
 44 323 35 311 28 311 c 0
 21 311 17 313 17 323 c 0
 17 361 63 419 101 419 c 0xd4
 151 419 166 382 166 314 c 0
 166 266 162 243 155 203 c 0
 154 198 157 194 160 194 c 0
 163 194 165 195 170 206 c 0
 226 339 287 419 328 419 c 0
 368 419 410 347 410 289 c 1xb4
 410 219 409 -165 409 -234 c 1
 409 -266 399 -285 381 -285 c 0xb8
EndSplineSet
EndChar

StartChar: theta
Encoding: 952 952 83
Width: 438
GlyphClass: 2
Flags: HW
TeX: 697 14
TopAccentHorizontal: 225
HStem: -14 86<157.246 253.773> 328 63<108.538 328.265> 610 89<179.867 281.07>
VStem: 45 48<179.132 382.64> 340 53<302.474 513.539>
LayerCount: 2
Fore
SplineSet
207 -14 m 0
 114 -14 45 188 45 333 c 0
 45 509 135 699 229 699 c 0
 320 699 393 510 393 365 c 0
 393 207 326 -14 207 -14 c 0
118 391 m 2
 327 391 l 2
 335 391 340 399 340 410 c 0
 340 538 313 610 238 610 c 0
 177 610 140 572 109 403 c 0
 108 397 111 391 118 391 c 2
202 72 m 0
 281 72 318 194 329 313 c 0
 330 324 328 328 317 328 c 2
 104 328 l 2
 96 328 93 321 93 314 c 0
 93 167 122 72 202 72 c 0
EndSplineSet
EndChar

StartChar: iota
Encoding: 953 953 84
Width: 252
GlyphClass: 2
Flags: HW
TeX: 411 14
TopAccentHorizontal: 111
HStem: -14 91<110.41 190.277>
VStem: 64 70<79.8296 323.439> 67 95<192.141 414.428>
LayerCount: 2
Fore
SplineSet
130 -14 m 0xc0
 91 -14 63 22 64 93 c 2xc0
 67 397 l 2
 67 411 78 417 129 417 c 0
 159 417 162 409 162 396 c 0xa0
 162 357 134 167 134 106 c 0
 134 82 150 77 166 77 c 0
 187 77 212 89 217 89 c 0
 226 89 229 84 229 72 c 0
 229 40 188 -14 130 -14 c 0xc0
EndSplineSet
EndChar

StartChar: kappa
Encoding: 954 954 85
Width: 481
GlyphClass: 2
Flags: HW
TeX: 414 15
TopAccentHorizontal: 244
HStem: -15 21G<360.3 399.5> 320 99<59.3857 127.37> 333 86<339.626 442.4>
VStem: 91 78<-8.59888 99.8616> 132 41<197.385 316.094>
LayerCount: 2
Fore
SplineSet
377 -15 m 0xa8
 344 -15 303 24 279 71 c 0
 260 107 242 162 235 198 c 0
 234 203 231 201 227 194 c 0
 205 146 188 93 169 31 c 0
 163 11 155 -14 138 -14 c 0
 125 -14 91 -7 91 14 c 0xb0
 91 35 101 80 112 119 c 0
 123 159 132 221 132 270 c 0
 132 310 122 320 85 320 c 0
 52 320 37 317 29 317 c 0
 22 317 18 319 18 330 c 0
 18 368 70 419 110 419 c 0xc8
 162 419 173 377 173 302 c 0
 173 256 170 238 165 203 c 0
 164 199 167 196 170 196 c 0
 173 196 174 197 180 208 c 0
 251 333 341 419 394 419 c 0
 448 419 453 379 453 347 c 0
 453 338 449 328 440 328 c 0
 429 328 432 333 396 333 c 0
 341 333 299 298 261 241 c 0
 256 234 254 230 256 224 c 0
 280 146 316 75 402 70 c 0
 445 68 472 106 477 106 c 0
 483 106 485 100 485 96 c 0
 485 24 422 -15 377 -15 c 0xa8
EndSplineSet
EndChar

StartChar: lambda
Encoding: 955 955 86
Width: 488
GlyphClass: 2
Flags: HW
TeX: 699 18
TopAccentHorizontal: 144
HStem: -15 99<355.2 448.965> 622 80<49.3421 153.359>
LayerCount: 2
Fore
SplineSet
95 -18 m 0
 78 -18 30 2 30 23 c 0
 30 37 33 38 43 52 c 0
 95 129 196 280 234 387 c 0
 240 404 241 409 238 426 c 0
 219 539 176 622 82 622 c 0
 63 622 41 614 22 601 c 0
 12 594 4 591 -1 591 c 0
 -8 591 -10 593 -10 603 c 0
 -10 633 52 702 112 702 c 0
 211 702 248 580 284 380 c 0
 301 287 317 209 336 142 c 0
 350 96 380 84 404 84 c 0
 441 83 467 100 475 100 c 0
 480 100 486 96 486 89 c 0
 486 37 449 -15 393 -15 c 0
 359 -15 330 2 314 52 c 0
 293 117 274 218 262 291 c 0
 261 297 257 299 255 293 c 0
 231 231 164 95 122 19 c 0
 116 6 105 -18 95 -18 c 0
EndSplineSet
EndChar

StartChar: mu
Encoding: 956 956 87
Width: 546
GlyphClass: 2
Flags: HW
TeX: 415 285
TopAccentHorizontal: 252
HStem: -15 98<413.119 501.795> -15 78<187.553 265.843>
VStem: 85 103<237.496 408.254> 87 34<-165.362 66.7912> 343 100<262.745 403.633>
LayerCount: 2
Fore
SplineSet
154 -285 m 0x58
 120 -285 109 -259 99 -228 c 0
 92 -204 87 -75 87 0 c 1x58
 87 70 85 360 85 393 c 1
 85 412 91 419 119 419 c 0
 154 419 188 402 188 387 c 0
 188 338 152 174 152 136 c 0
 152 108 169 63 209 63 c 0x68
 258 63 287 92 325 177 c 1
 337 234 342 334 343 402 c 0
 344 414 349 420 366 420 c 0
 408 420 443 393 443 377 c 0
 443 332 420 252 392 164 c 1
 392 127 414 83 458 83 c 0
 495 83 523 116 531 116 c 0
 536 116 542 111 542 106 c 0
 542 27 492 -15 447 -15 c 0xa8
 414 -15 385 24 375 83 c 0
 373 95 372 108 372 121 c 1
 369 121 l 1
 362 105 291 -15 245 -15 c 0
 209 -15 180 11 161 32 c 0
 146 48 134 67 130 67 c 0
 125 67 121 55 121 35 c 0
 121 7 125 -86 126 -123 c 0
 127 -199 212 -222 212 -242 c 0
 212 -265 177 -285 154 -285 c 0x58
EndSplineSet
EndChar

StartChar: nu
Encoding: 957 957 88
Width: 419
GlyphClass: 2
Flags: HW
TeX: 418 14
TopAccentHorizontal: 228
HStem: -14 21G<161.2 172.6> 323 96<38.546 118.513>
VStem: 158 34<110.006 255.2> 324 61<237.76 398.963>
LayerCount: 2
Fore
SplineSet
166 -14 m 0
 156 -14 152 1 152 20 c 0
 152 23 158 51 158 94 c 0
 158 282 127 323 65 323 c 0
 36 323 16 314 6 313 c 0
 -2 312 -5 315 -5 327 c 0
 -5 363 40 419 103 419 c 0
 186 419 192 253 192 123 c 0
 192 118 192 110 197 110 c 0
 201 110 203 110 213 119 c 0
 250 151 324 239 324 323 c 0
 324 380 306 397 306 403 c 0
 306 416 316 422 329 422 c 0
 356 422 385 381 385 322 c 0
 385 199 289 86 221 23 c 0
 194 -1 178 -14 166 -14 c 0
EndSplineSet
EndChar

StartChar: xi
Encoding: 958 958 89
Width: 383
GlyphClass: 2
Flags: HW
TeX: 742 210
TopAccentHorizontal: 200
HStem: -206 80<148.891 242.575> -18 84<82.7952 289.566> -0 89<136.536 325.991> 323 88<254.074 334.152> 597 88<256.066 335.211>
VStem: 35 35<83.0435 187.486> 40 75<619.23 709.747> 60 55<378.72 482.994> 328 36<-60.8825 34.1001>
LayerCount: 2
Fore
SplineSet
191 -206 m 0xbc80
 167 -206 131 -174 131 -151 c 0
 131 -133 142 -125 156 -125 c 0
 228 -125 328 -66 328 -32 c 0
 328 -15 315 0 294 -0 c 0xbc80
 285 0 250 -5 220 -9 c 0
 189 -13 156 -18 143 -18 c 0
 75 -18 35 46 35 117 c 0xdc80
 35 205 93 278 145 320 c 0
 153 326 161 330 145 336 c 0
 100 354 60 375 60 439 c 0xd980
 60 477 98 546 137 579 c 0
 146 587 147 590 140 590 c 0
 83 592 40 615 40 661 c 0
 39 708 98 749 149 749 c 0
 156 749 157 750 157 740 c 0
 157 735 146 726 137 717 c 0
 125 706 115 689 115 668 c 0xda80
 115 632 134 612 164 612 c 0
 168 612 179 618 184 621 c 0
 224 650 286 685 320 685 c 0
 338 685 347 677 347 660 c 0
 347 642 343 607 298 597 c 1
 208 568 115 495 115 422 c 0xd980
 115 390 142 364 180 364 c 0
 205 364 234 379 259 391 c 0
 281 401 299 411 311 411 c 0
 331 411 348 391 348 378 c 0
 348 355 326 330 304 323 c 0
 182 282 70 223 70 124 c 0
 70 87 98 66 128 66 c 0xdc80
 150 66 181 72 208 78 c 0
 235 83 269 89 286 89 c 0
 319 89 364 64 364 4 c 0
 364 -94 256 -206 191 -206 c 0xbc80
EndSplineSet
EndChar

StartChar: omicron
Encoding: 959 959 90
Width: 409
GlyphClass: 2
Flags: HW
TeX: 414 14
TopAccentHorizontal: 200
HStem: -14 82<110.497 240.282> 333 86<160.553 291.534>
VStem: 35 42<100.987 245.228> 333 42<159.075 296.889>
LayerCount: 2
Fore
SplineSet
179 -14 m 0
 77 -14 35 99 35 198 c 0
 35 311 105 419 220 419 c 0
 325 419 375 308 375 197 c 0
 375 86 296 -14 179 -14 c 0
158 68 m 0
 256 69 333 144 333 239 c 1
 331 285 296 333 246 333 c 0
 148 334 77 259 77 164 c 0
 77 117 108 68 158 68 c 0
EndSplineSet
EndChar

StartChar: pi
Encoding: 960 960 91
Width: 535
GlyphClass: 2
Flags: HW
TeX: 430 17
TopAccentHorizontal: 268
HStem: -14 100<366.042 434.747> 328 78<262.3 342.56 384.449 499.979> 337 79<90.2704 188.69 228.667 324.143>
VStem: 15 28<234.84 280.815> 113 78<-0.317407 121.226> 317 44<52.5 265.444>
LayerCount: 2
Fore
SplineSet
180 -17 m 0xdc
 156 -17 113 8 113 23 c 0
 113 48 121 70 129 99 c 2
 187 309 l 2
 192 326 189 337 167 337 c 0
 96 337 68 318 43 249 c 0
 41 244 39 234 31 234 c 0
 23 234 15 248 15 276 c 0
 15 334 56 416 191 416 c 0xbc
 237 416 286 413 328 410 c 0
 363 408 394 406 421 406 c 0
 454 406 476 415 491 423 c 0
 506 431 511 438 518 438 c 0
 530 438 536 427 536 400 c 0
 536 361 507 325 483 325 c 0
 459 325 432 328 417 328 c 0
 395 328 387 323 383 297 c 0
 379 268 361 165 361 125 c 0
 361 97 382 87 402 86 c 0
 413 85 428 88 439 92 c 0
 447 95 452 97 454 97 c 0
 464 97 465 92 465 80 c 0
 465 43 438 -14 384 -14 c 0
 348 -14 317 20 317 84 c 0
 317 139 343 273 343 304 c 0
 343 316 336 330 326 330 c 2
 252 332 l 2
 237 333 231 326 226 307 c 0
 197 196 188 123 186 74 c 0
 185 42 188 21 191 8 c 0
 194 -9 193 -17 180 -17 c 0xdc
EndSplineSet
EndChar

StartChar: rho
Encoding: 961 961 92
Width: 430
GlyphClass: 2
Flags: HW
TeX: 414 285
TopAccentHorizontal: 226
HStem: -13 82<156 265.647> 343 76<198.12 315.111>
VStem: 60 97<-270.475 -126.649> 61 60<-166.218 36.4775 76.7201 254.026> 353 44<156.456 316.253>
LayerCount: 2
Fore
SplineSet
128 -285 m 0xe8
 95 -285 60 -265 60 -230 c 0xe8
 60 -172 61 108 61 205 c 0
 61 326 129 419 244 419 c 0
 348 419 397 313 397 207 c 0
 397 80 317 -13 218 -13 c 0
 197 -13 152 22 131 47 c 0
 124 55 121 43 121 26 c 0xd8
 121 -3 123 -41 128 -76 c 0
 138 -161 157 -240 157 -258 c 0
 157 -278 150 -285 128 -285 c 0xe8
168 69 m 0
 288 69 353 142 353 254 c 0
 353 301 323 343 273 343 c 0
 186 344 118 282 118 112 c 0
 118 89 144 69 168 69 c 0
EndSplineSet
EndChar

StartChar: uni03C2
Encoding: 962 962 93
Width: 352
GlyphClass: 2
Flags: HW
TeX: 413 190
TopAccentHorizontal: 179
HStem: -192 81<153.048 236.561> -6 91<107.186 282.912> 321 99<193.456 313.521>
VStem: 35 43<114.768 251.539> 284 39<-65.9751 37.1001>
LayerCount: 2
Fore
SplineSet
194 -192 m 0
 172 -192 135 -160 135 -139 c 0
 135 -118 145 -112 160 -112 c 0
 234 -112 284 -60 284 -25 c 0
 284 -9 271 -1 250 -1 c 0
 232 -1 157 -6 135 -6 c 0
 64 -6 35 74 35 163 c 0
 35 304 175 420 270 420 c 0
 291 420 322 405 322 373 c 0
 322 346 303 321 272 321 c 0
 166 321 78 275 78 181 c 0
 78 132 108 85 157 85 c 0
 174 85 254 89 271 89 c 0
 301 89 323 67 323 7 c 0
 323 -92 257 -192 194 -192 c 0
EndSplineSet
EndChar

StartChar: sigma
Encoding: 963 963 94
Width: 486
GlyphClass: 2
Flags: HW
TeX: 433 14
TopAccentHorizontal: 260
HStem: -14 86<118.278 239.854> 334 80<330.782 452.433> 342 79<162.252 362.148>
VStem: 35 46<100.65 251.841> 323 51<157.053 291.8>
LayerCount: 2
Fore
SplineSet
186 -14 m 0xd8
 81 -14 35 103 35 198 c 0
 35 319 133 421 221 421 c 0xb8
 261 421 374 414 422 414 c 0
 452 414 478 435 485 437 c 0
 492 439 494 438 496 434 c 0
 500 395 476 366 453 357 c 1
 441 343 373 334 354 334 c 0
 345 334 330 330 331 324 c 1
 346 304 375 269 375 218 c 0
 375 115 296 -14 186 -14 c 0xd8
162 72 m 0
 261 72 323 154 323 239 c 0
 323 271 315 330 284 339 c 1
 270 341 246 342 232 342 c 0
 137 342 81 243 81 162 c 0
 81 111 113 72 162 72 c 0
EndSplineSet
EndChar

StartChar: tau
Encoding: 964 964 95
Width: 421
GlyphClass: 2
Flags: HW
TeX: 430 14
TopAccentHorizontal: 218
HStem: -14 100<235.635 297.26> 324 82<268.743 405.516> 337 77<71.5407 300.614>
VStem: 15 23<260.915 293.844> 174 57<47.1001 246.973>
LayerCount: 2
Fore
SplineSet
239 -14 m 0xd8
 201 -14 174 14 174 80 c 0
 174 162 207 296 209 316 c 0
 210 329 203 334 192 335 c 0
 183 336 148 337 130 337 c 0
 88 337 59 324 38 273 c 0
 36 268 33 261 28 261 c 0
 19 261 15 271 15 293 c 0
 15 351 63 414 148 414 c 0xb8
 218 414 267 406 327 406 c 0
 362 406 381 412 392 418 c 0
 410 427 410 438 416 438 c 0
 428 438 433 429 431 402 c 0
 428 365 397 324 365 324 c 0
 340 324 283 332 268 332 c 0
 255 332 246 328 244 317 c 0
 237 276 230 194 230 127 c 0
 230 100 252 87 276 86 c 0
 287 85 299 87 312 91 c 0
 322 94 330 98 331 98 c 0
 341 98 342 93 342 81 c 0
 342 44 293 -14 239 -14 c 0xd8
EndSplineSet
EndChar

StartChar: upsilon
Encoding: 965 965 96
Width: 446
GlyphClass: 2
Flags: HW
TeX: 424 14
TopAccentHorizontal: 220
HStem: -14 88<146.638 262.679> 326 92<53.4266 115.877>
VStem: 120 18<132.8 275.4> 336 67<161.911 367.294>
LayerCount: 2
Fore
SplineSet
205 -14 m 0
 137 -14 86 40 86 88 c 0
 86 127 120 229 120 275 c 0
 120 314 107 326 73 326 c 0
 41 326 30 319 23 319 c 0
 16 319 13 321 13 331 c 0
 13 365 59 419 112 419 c 0
 158 419 178 398 177 356 c 0
 176 313 138 179 138 133 c 0
 138 91 157 74 207 74 c 0
 275 74 336 163 336 254 c 0
 336 349 311 393 295 422 c 0
 293 427 301 430 305 430 c 0
 322 430 339 420 354 408 c 0
 385 381 403 314 403 230 c 0
 403 110 308 -14 205 -14 c 0
EndSplineSet
EndChar

StartChar: phi
Encoding: 966 966 97
Width: 550
GlyphClass: 2
Flags: HW
TeX: 469 285
TopAccentHorizontal: 269
HStem: -18 77<158.809 216.2 266.4 365.031> 338 132<327.691 394.712>
VStem: 35 41<120.734 255.388> 207 76<-275.766 -27.5513> 216 50<-232.708 -21.5996 58.7998 239.125> 474 43<151.619 292.634>
LayerCount: 2
Fore
SplineSet
264 -285 m 0xf4
 236 -285 207 -268 207 -244 c 0xf4
 207 -217 214 -111 216 -18 c 1
 118 2 35 94 35 204 c 0
 35 360 175 469 336 469 c 0
 381 469 416 440 408 410 c 1
 473 385 517 316 517 242 c 0
 517 97 407 -19 266 -22 c 1xec
 269 -149 283 -249 283 -256 c 0
 283 -270 284 -285 264 -285 c 0xf4
218 59 m 1
 219 178 225 315 275 378 c 1
 166 355 76 279 76 181 c 0
 76 114 138 70 218 59 c 1
265 57 m 1
 368 59 474 123 474 222 c 0
 474 278 436 338 375 338 c 0
 282 338 267 154 265 57 c 1
EndSplineSet
EndChar

StartChar: chi
Encoding: 967 967 98
Width: 440
GlyphClass: 2
Flags: HW
TeX: 414 290
TopAccentHorizontal: 219
HStem: -268 98<316.479 400.142> 322 94<28.8158 135.848>
LayerCount: 2
Fore
SplineSet
53 -289 m 0
 41 -289 17 -281 17 -223 c 0
 17 -205 24 -171 37 -149 c 2
 199 133 l 2
 198 137 198 144 197 148 c 0
 183 241 157 322 71 322 c 0
 37 322 8 302 0 302 c 0
 -7 302 -10 305 -10 315 c 0
 -10 355 26 416 87 416 c 0
 163 416 197 313 210 240 c 1
 211 234 223 170 225 166 c 1
 327 375 l 2
 335 391 346 416 356 416 c 0
 371 416 439 409 439 382 c 0
 439 377 431 370 422 363 c 0
 407 351 395 330 381 308 c 2
 247 87 l 2
 243 82 241 74 243 64 c 0
 247 35 254 4 261 -22 c 0
 294 -149 329 -171 362 -171 c 0
 408 -171 429 -147 439 -147 c 0
 444 -147 450 -151 450 -158 c 0
 450 -196 404 -268 345 -268 c 0
 301 -268 273 -236 255 -175 c 0
 238 -115 227 -32 217 36 c 1
 214 36 l 1
 110 -156 l 2
 64 -241 74 -289 53 -289 c 0
EndSplineSet
EndChar

StartChar: psi
Encoding: 968 968 99
Width: 575
GlyphClass: 2
Flags: HW
TeX: 616 285
TopAccentHorizontal: 302
HStem: -16 97<231.161 282.4 325.8 353.823> 320 99<52.5176 127.34> 372 46<543.641 604.054>
VStem: 276 75<338.363 612.278> 282 43<-184.41 -16.2002 84.4004 282.701>
LayerCount: 2
Fore
SplineSet
333 -285 m 0xa8
 289 -285 282 -185 282 -88 c 2
 282 -16 l 1xa8
 210 -13 162 63 157 145 c 0
 147 310 122 320 76 320 c 0
 50 320 34 304 26 304 c 0
 19 304 15 306 15 317 c 0
 15 358 51 418 103 419 c 0
 156 421 179 341 194 171 c 0
 199 121 238 86 283 81 c 1
 282 422 276 536 276 577 c 0
 276 603 287 616 307 616 c 0
 335 616 351 605 351 571 c 0xd0
 351 545 329 437 326 84 c 1
 374 99 394 160 420 246 c 0
 452 347 485 419 561 419 c 0
 590 419 605 405 605 390 c 0
 605 381 599 373 591 372 c 0
 547 364 523 336 507 298 c 0
 487 251 459 161 441 103 c 0
 419 32 366 0 325 -11 c 1
 325 -61 l 2
 325 -189 378 -239 378 -251 c 0
 378 -264 352 -285 333 -285 c 0xa8
EndSplineSet
EndChar

StartChar: omega
Encoding: 969 969 100
Width: 575
GlyphClass: 2
Flags: HW
TeX: 414 15
TopAccentHorizontal: 281
HStem: -14 72<99.8743 209.98 328.752 420.41>
VStem: 35 41<75.3519 218.607> 251 60<97.1975 196.396> 463 79<110.549 310.755>
LayerCount: 2
Fore
SplineSet
161 -14 m 0
 77 -14 35 90 35 163 c 0
 35 315 149 419 176 419 c 0
 195 419 219 390 219 373 c 0
 219 367 194 345 165 318 c 0
 121 276 76 206 76 137 c 0
 76 99 94 58 132 58 c 0
 207 58 251 102 251 154 c 0
 251 177 236 212 236 234 c 0
 236 256 264 278 293 278 c 0
 314 278 338 261 338 233 c 0
 338 207 324 159 311 129 c 0
 309 123 312 110 314 103 c 0
 320 82 330 57 366 57 c 0
 440 57 463 146 463 224 c 0
 463 343 392 396 392 401 c 0
 392 411 403 420 410 420 c 0
 478 420 542 306 542 203 c 0
 542 97 480 -15 373 -15 c 0
 329 -15 296 52 289 70 c 0
 287 76 282 76 278 71 c 0
 264 52 229 -14 161 -14 c 0
EndSplineSet
EndChar

StartChar: uni03D1
Encoding: 977 977 101
Width: 472
GlyphClass: 2
Flags: HW
TeX: 703 14
TopAccentHorizontal: 244
HStem: -14 84<187.358 276.367> 156 80<78.2225 133.786> 315 72<242.025 360.8 407.8 456.629> 620 83<189.87 308.375>
VStem: 84 42<460.16 573.161> 366 42<389.984 544.961>
LayerCount: 2
Fore
SplineSet
232 -14 m 0
 201 -14 172 8 160 43 c 0
 144 91 132 156 123 156 c 0
 89 156 65 114 54 114 c 0
 48 114 28 133 28 167 c 0
 28 203 59 236 99 236 c 0
 124 236 144 210 154 173 c 0
 168 125 184 70 226 70 c 0
 303 70 351 195 361 315 c 1
 356 315 l 2
 215 315 84 407 84 512 c 0
 84 607 182 703 254 703 c 0
 343 703 405 567 408 390 c 1
 435 393 449 398 457 398 c 0
 465 398 474 390 474 378 c 0
 474 365 472 350 459 334 c 0
 452 326 430 322 405 319 c 1
 397 160 356 -14 232 -14 c 0
364 387 m 1
 365 403 366 418 366 432 c 0
 367 553 322 620 241 620 c 0
 186 620 126 578 126 510 c 0
 126 430 254 390 364 387 c 1
EndSplineSet
EndChar

StartChar: uni03D5
Encoding: 981 981 102
Width: 525
GlyphClass: 2
Flags: HW
TeX: 616 285
TopAccentHorizontal: 255
HStem: -27 82<289.2 368.588> 359 74<183.892 243 294.6 349.788>
VStem: 35 42<117.825 252.747> 227 73<-277.123 -33.5725> 237 64<436.973 612.859> 247 41<55 84.0605 147.304 359.2 432.128 552.075> 449 42<119.442 260.095>
LayerCount: 2
Fore
SplineSet
274 -285 m 0xf2
 246 -285 227 -259 227 -235 c 0xf2
 227 -211 237 -142 244 -28 c 1
 212 -26 183 -16 156 -2 c 0
 103 27 35 116 35 203 c 0
 35 320 122 420 243 433 c 1
 240 505 237 549 237 570 c 0
 237 599 237 616 263 616 c 0
 297 616 302 590 302 553 c 0xea
 302 538 298 506 295 433 c 1
 407 416 491 318 491 203 c 0
 491 137 442 37 384 1 c 0
 357 -15 322 -24 289 -27 c 1
 292 -159 300 -246 300 -247 c 0
 300 -268 296 -285 274 -285 c 0xf2
247 54 m 1xe6
 248 84 248 121 248 155 c 2
 247 277 l 1
 247 295 247 344 246 359 c 1
 150 345 77 264 77 175 c 0
 77 100 161 58 247 54 c 1xe6
288 55 m 1
 371 61 449 106 449 180 c 0
 449 265 381 344 291 359 c 1
 290 337 290 302 289 276 c 2
 288 155 l 2
 287 122 288 87 288 55 c 1
EndSplineSet
EndChar

StartChar: uni03D6
Encoding: 982 982 103
Width: 574
GlyphClass: 2
Flags: HW
TeX: 497 14
TopAccentHorizontal: 286
HStem: -14 73<95.6312 218.24 326.498 422.657> 303 62<184.999 411.908> 448 55<175.486 360.104>
VStem: 35 42<78.736 218.52> 108 54<378.172 430.76> 251 62<90.0018 207.18> 469 75<117.526 324.524>
LayerCount: 2
Fore
SplineSet
154 -14 m 0
 67 -14 35 86 35 172 c 0
 35 278 83 346 119 375 c 1
 111 387 108 402 108 417 c 0
 108 465 185 503 249 503 c 0
 337 503 421 465 474 403 c 1
 512 418 529 432 535 432 c 0
 546 432 551 421 551 410 c 0
 551 401 547 393 540 387 c 0
 529 377 516 369 503 361 c 1
 529 321 544 270 544 219 c 0
 544 113 486 -14 379 -14 c 0
 310 -14 295 47 287 67 c 0
 285 75 281 74 275 67 c 0
 259 47 226 -14 154 -14 c 0
257 365 m 0
 324 365 374 373 414 384 c 1
 377 426 326 448 266 448 c 0
 209 448 162 429 162 408 c 0
 162 375 213 365 257 365 c 0
366 56 m 0
 440 56 469 136 469 248 c 0
 469 280 462 309 449 334 c 1
 389 310 325 302 284 303 c 0
 246 303 207 312 176 329 c 1
 154 299 77 221 77 142 c 0
 77 100 98 59 138 59 c 0
 212 59 251 94 251 148 c 0
 251 172 239 208 239 230 c 0
 239 258 258 274 293 274 c 0
 313 274 337 266 337 232 c 0
 337 206 326 166 313 136 c 0
 311 130 313 116 315 109 c 0
 321 88 330 56 366 56 c 0
EndSplineSet
EndChar

StartChar: uni03F0
Encoding: 1008 1008 104
Width: 502
GlyphClass: 2
Flags: HW
TeX: 420 9
TopAccentHorizontal: 244
HStem: -10 86<357.369 446.831> 327 92<75.5837 138.583>
VStem: 45 103<14.6 81.2601> 156 21<200.226 252.154> 304 19<192.979 208.594>
LayerCount: 2
Fore
SplineSet
387 -10 m 0
 320 -10 279 44 279 112 c 0
 279 144 287 180 304 214 c 1
 304 215 304 216 304 216 c 1
 304 220 298 222 293 217 c 2
 176 109 l 1
 162 90 154 76 148 60 c 0
 138 31 120 -9 106 -9 c 0
 89 -9 45 28 45 48 c 0
 45 59 60 75 77 91 c 0
 94 109 134 149 142 169 c 0
 151 193 156 219 156 244 c 0
 156 289 138 327 97 327 c 0
 62 327 49 312 41 312 c 0
 33 312 29 313 30 324 c 0
 31 362 84 419 127 419 c 0
 178 419 195 380 195 327 c 0
 195 291 188 249 177 207 c 0
 176 203 178 200 181 200 c 0
 184 200 189 201 199 210 c 2
 316 319 l 1
 348 381 395 424 413 424 c 0
 434 424 460 400 460 376 c 0
 460 359 447 346 423 327 c 2
 347 262 l 1
 325 242 323 208 323 193 c 0
 319 123 361 76 408 76 c 0
 432 75 458 86 479 113 c 0
 483 119 489 123 490 123 c 0
 497 123 499 117 499 113 c 0
 498 33 433 -10 387 -10 c 0
EndSplineSet
EndChar

StartChar: uni03F1
Encoding: 1009 1009 105
Width: 436
GlyphClass: 2
Flags: HW
TeX: 414 291
TopAccentHorizontal: 226
HStem: -290 44<209.337 329.876> -13 82<166.856 269.593> 341 78<202.494 319.581>
VStem: 62 63<-128.252 40.565 76.1416 248.753> 357 44<156.456 316.49>
LayerCount: 2
Fore
SplineSet
291 -290 m 0
 196 -290 62 -196 62 -16 c 0
 62 27 62 108 62 205 c 0
 62 326 133 419 248 419 c 0
 352 419 401 313 401 207 c 0
 401 80 323 -13 220 -13 c 0
 189 -13 153 15 135 40 c 0
 129 48 125 42 125 25 c 0
 125 -5 126 -40 127 -55 c 0
 138 -201 200 -246 294 -246 c 0
 305 -246 318 -233 332 -223 c 0
 346 -212 359 -202 374 -202 c 0
 386 -202 402 -229 402 -254 c 0
 402 -274 352 -290 291 -290 c 0
172 69 m 0
 292 69 357 142 357 254 c 0
 357 301 329 341 279 341 c 0
 193 342 123 279 123 112 c 0
 123 89 148 69 172 69 c 0
EndSplineSet
EndChar

StartChar: uni03F4
Encoding: 1012 1012 106
Width: 771
GlyphClass: 2
Flags: HW
TeX: 664 14
TopAccentHorizontal: 382
HStem: -14 42<306.946 489.011> 313 43<161.8 607.2> 621 43<275.059 464.445>
VStem: 45 115<214.959 313 355.6 437.716> 611 115<211.301 435.255>
LayerCount: 2
Fore
SplineSet
390 664 m 0
 568 664 726 532 726 335 c 0
 726 155 606 -14 381 -14 c 0
 203 -14 45 118 45 315 c 0
 45 495 165 664 390 664 c 0
373 621 m 0
 232 621 160 519 160 365 c 2
 160 356 l 1
 607 356 l 1
 588 505 511 621 373 621 c 0
397 28 m 0
 540 28 611 130 611 285 c 0
 611 295 611 303 610 313 c 1
 162 313 l 1
 176 156 253 28 397 28 c 0
EndSplineSet
EndChar

StartChar: uni03F5
Encoding: 1013 1013 107
Width: 345
GlyphClass: 2
Flags: HW
TeX: 412 14
TopAccentHorizontal: 170
HStem: -14 77<103.581 245.524> 175 92<183.468 266.473> 343 75<139.371 276.108>
VStem: 45 54<221.917 307.114> 45 46<76.2384 150.641>
LayerCount: 2
Fore
SplineSet
166 -14 m 0xe8
 102 -14 45 27 45 87 c 0xe8
 45 136 81 171 93 180 c 0
 102 187 104 194 94 199 c 0
 66 212 45 226 45 272 c 0
 45 351 134 418 232 418 c 0
 258 418 282 401 282 381 c 0
 282 363 257 343 232 343 c 0
 150 343 99 310 99 254 c 0xf0
 99 234 112 220 130 220 c 0
 150 220 206 267 239 267 c 0
 264 267 282 250 282 233 c 0
 282 201 249 175 222 175 c 0
 203 175 170 177 144 169 c 0
 113 159 91 134 91 108 c 0
 91 87 120 63 160 63 c 0
 205 63 264 89 289 109 c 0
 301 118 309 124 311 124 c 0
 320 124 323 120 323 107 c 0
 323 44 245 -14 166 -14 c 0xe8
EndSplineSet
EndChar

StartChar: u1D434
Encoding: 119860 119860 108
Width: 695
GlyphClass: 2
Flags: HW
TeX: 676 5
TopAccentHorizontal: 562
HStem: -5 35<-50.4927 30.4465 311.695 392.513 541.308 606.07> 253 36<330.231 464.831> 655 20G<627.734 635.834>
LayerCount: 2
Fore
SplineSet
-27 -5 m 0
 -43 -5 -50 -1 -51 9 c 0
 -52 20 -39 24 -19 30 c 0
 33 43 80 69 113 106 c 0
 257 265 365 409 487 561 c 0
 514 593 528 623 537 623 c 0
 566 623 578 632 596 648 c 0
 615 667 624 675 632 675 c 0
 640 675 643 664 638 636 c 2
 535 120 l 2
 523 61 535 39 576 27 c 0
 596 21 607 18 607 8 c 0
 607 0 595 -4 576 -4 c 0
 546 -4 490 1 447 1 c 0
 410 1 361 -1 334 -1 c 0
 319 -1 313 4 312 12 c 0
 310 22 323 29 339 32 c 0
 401 43 420 57 433 109 c 2
 464 228 l 2
 469 246 456 253 439 253 c 2
 316 252 l 2
 297 252 286 246 277 234 c 2
 183 110 l 2
 143 58 161 43 192 34 c 0
 206 29 217 22 217 12 c 0
 217 3 204 -1 188 -1 c 0
 165 -1 135 1 100 1 c 0
 59 1 6 -5 -27 -5 c 0
346 289 m 2
 457 289 l 2
 471 289 477 295 482 314 c 2
 529 533 l 2
 533 547 534 554 527 554 c 0
 523 554 515 551 509 543 c 2
 330 310 l 2
 320 297 314 289 346 289 c 2
EndSplineSet
AlternateSubs2: "'ssty' Script Style in Mathematical Alphanumeric Symbols lookup 2 subtable" u1D434.s u1D434.ss
EndChar

StartChar: u1D435
Encoding: 119861 119861 109
Width: 633
GlyphClass: 2
Flags: HW
TeX: 655 5
ItalicCorrection: 5
TopAccentHorizontal: 382
HStem: -4 27<-7.41681 62.4362 235.745 329.569> 342 27<302.762 381.363> 625 29<366.255 465.884> 625 20<192.103 234.634 312.8 405>
VStem: 454 101<129.714 278.778> 516 95<457.093 587.689>
LayerCount: 2
Fore
SplineSet
14 -5 m 0xe8
 -1 -5 -8 -3 -8 6 c 0
 -8 16 5 22 26 26 c 0
 75 36 103 52 118 98 c 2
 257 549 l 2
 272 597 260 612 217 620 c 0
 199 624 192 628 192 637 c 0
 192 647 207 651 223 651 c 0
 263 651 280 645 313 645 c 0xd8
 347 645 390 654 425 654 c 0
 557 654 611 598 611 525 c 0xe4
 611 434 512 377 431 365 c 0
 421 364 423 357 428 355 c 0
 505 326 555 284 555 193 c 0
 555 69 431 -4 272 -4 c 0
 217 -4 181 2 141 2 c 0
 95 2 65 -5 14 -5 c 0xe8
318 369 m 0
 349 369 376 375 406 383 c 1
 467 413 516 460 516 528 c 0
 516 581 475 625 405 625 c 0xe4
 379 625 368 621 363 605 c 2
 302 387 l 2
 298 373 304 369 318 369 c 0
272 23 m 0
 360 26 454 109 454 211 c 0xc8
 454 294 404 342 308 342 c 0
 293 342 284 336 280 322 c 2
 216 106 l 2
 210 84 210 60 224 47 c 0
 236 34 250 23 272 23 c 0
EndSplineSet
AlternateSubs2: "'ssty' Script Style in Mathematical Alphanumeric Symbols lookup 2 subtable" u1D435.s u1D435.ss
EndChar

StartChar: u1D436
Encoding: 119862 119862 110
Width: 685
GlyphClass: 2
Flags: HW
TeX: 665 14
ItalicCorrection: 50
TopAccentHorizontal: 453
HStem: -14 33<272.402 413.383> 459 21G<610 620.5> 632 32<410.869 542.414>
VStem: 66 106<142.021 358.893> 601 35<458.779 530.482>
LayerCount: 2
Fore
SplineSet
319 -14 m 0
 202 -14 66 88 66 243 c 0
 66 482 259 664 484 664 c 0
 523 664 559 658 594 646 c 0
 619 638 637 630 651 630 c 0
 658 630 665 634 673 638 c 0
 681 642 689 646 697 646 c 0
 709 646 709 635 704 628 c 0
 681 597 647 525 636 479 c 0
 634 468 625 459 616 459 c 0
 604 459 599 474 601 490 c 0
 606 520 605 553 584 581 c 0
 561 611 525 632 481 632 c 0
 329 632 172 438 172 220 c 0
 172 72 264 19 349 19 c 0
 446 19 491 74 537 146 c 0
 544 157 550 167 561 167 c 0
 568 167 571 159 570 146 c 0
 566 115 509 -9 495 -9 c 0
 488 -9 481 -3 474 2 c 0
 468 7 460 11 449 11 c 0
 438 11 424 6 405 -0 c 0
 384 -7 355 -14 319 -14 c 0
EndSplineSet
AlternateSubs2: "'ssty' Script Style in Mathematical Alphanumeric Symbols lookup 2 subtable" u1D436.s u1D436.ss
EndChar

StartChar: u1D437
Encoding: 119863 119863 111
Width: 774
GlyphClass: 2
Flags: HW
TeX: 655 7
ItalicCorrection: 6
TopAccentHorizontal: 403
HStem: -7 32<-6.66248 79.1659 247.882 415.624> 620 29<165.499 243.032 378.269 528.828>
VStem: 648 105<267.7 493.246>
LayerCount: 2
Fore
SplineSet
323 -7 m 0
 291 -7 192 1 129 1 c 0
 91 1 63 -5 15 -5 c 0
 1 -5 -8 -1 -7 7 c 0
 -6 17 6 24 27 26 c 0
 88 30 101 53 116 99 c 2
 264 558 l 2
 278 605 231 611 186 621 c 0
 168 625 164 632 165 642 c 0
 166 650 179 653 193 653 c 0
 244 653 291 649 333 649 c 0
 373 649 394 655 446 655 c 0
 633 655 753 554 753 379 c 0
 753 175 574 -7 323 -7 c 0
327 25 m 0
 512 25 648 211 648 397 c 0
 648 551 572 620 450 620 c 0
 376 620 371 604 360 571 c 2
 224 136 l 2
 198 52 247 25 327 25 c 0
EndSplineSet
AlternateSubs2: "'ssty' Script Style in Mathematical Alphanumeric Symbols lookup 2 subtable" u1D437.s u1D437.ss
EndChar

StartChar: u1D438
Encoding: 119864 119864 112
Width: 637
GlyphClass: 2
Flags: HW
TeX: 660 5
ItalicCorrection: 51
TopAccentHorizontal: 449
HStem: 1 28<4.21588 88.6204 232.861 468.526> 320 31<312.241 466.621> 623 30<193.645 265.131 391.995 584.788>
VStem: 477 28<233.031 309.641> 603 58<568.232 611.655>
LayerCount: 2
Fore
SplineSet
22 -5 m 0
 7 -5 0 -1 0 7 c 0
 0 16 13 22 34 26 c 0
 96 38 118 54 132 98 c 2
 270 549 l 2
 287 603 273 615 218 623 c 0
 199 626 193 632 194 641 c 0
 194 649 208 653 227 653 c 0
 244 653 308 650 349 650 c 2
 511 650 l 2
 615 650 641 661 648 661 c 0
 654 661 661 653 661 646 c 0
 661 631 638 583 632 529 c 0
 630 515 621 510 615 510 c 0
 608 510 603 518 603 533 c 0
 604 598 594 620 541 620 c 2
 430 620 l 2
 398 620 386 611 376 579 c 2
 314 380 l 2
 307 358 311 349 331 350 c 2
 446 353 l 2
 480 354 500 371 517 395 c 0
 526 406 538 423 549 423 c 0
 558 423 560 410 553 396 c 0
 541 372 532 352 525 331 c 0
 517 308 511 284 505 255 c 0
 502 244 498 233 491 233 c 0
 480 233 477 250 477 259 c 0
 478 300 465 318 441 318 c 2
 330 320 l 2
 309 320 293 316 286 290 c 2
 235 110 l 2
 217 46 229 29 273 29 c 2
 410 29 l 2
 441 29 468 40 490 55 c 0
 512 70 531 96 550 126 c 0
 556 134 560 143 568 143 c 0
 575 143 576 132 576 122 c 0
 576 103 549 41 532 14 c 0
 524 2 516 -5 501 -5 c 0
 391 -5 246 1 147 1 c 0
 100 1 70 -5 22 -5 c 0
EndSplineSet
AlternateSubs2: "'ssty' Script Style in Mathematical Alphanumeric Symbols lookup 2 subtable" u1D438.s u1D438.ss
EndChar

StartChar: u1D439
Encoding: 119865 119865 113
Width: 623
GlyphClass: 2
Flags: HW
TeX: 662 5
ItalicCorrection: 62
TopAccentHorizontal: 434
HStem: -5 31<9.0601 88.0011 235.389 306.008> 319 30<305.644 460.36> 618 32<198.609 262.089 382.868 583.345> 642 20G<642.555 650.555>
VStem: 470 30<242.411 309.196> 599 28<513.186 588.874>
LayerCount: 2
Fore
SplineSet
30 -5 m 0xec
 16 -5 7 -2 8 7 c 0
 9 17 21 22 42 26 c 0
 92 35 111 52 126 99 c 2
 264 549 l 2
 279 596 264 612 221 621 c 0
 201 625 196 632 197 641 c 0
 197 649 212 653 228 653 c 0
 248 653 301 650 343 650 c 2
 502 650 l 2xec
 593 650 639 662 647 662 c 0xdc
 655 662 658 659 657 650 c 0
 657 644 655 638 652 628 c 0
 645 604 632 564 627 531 c 0
 626 523 622 513 610 513 c 0
 601 513 599 524 599 535 c 0
 599 561 599 585 586 600 c 0
 577 611 564 618 542 618 c 2
 419 618 l 2
 392 618 380 603 373 584 c 0
 368 571 320 420 307 376 c 0
 303 363 305 349 322 349 c 2
 434 352 l 2
 465 353 492 368 512 394 c 0
 521 405 533 414 538 414 c 0
 545 414 550 407 546 397 c 0
 523 345 512 313 500 262 c 0
 497 251 492 242 485 242 c 0
 474 242 470 256 470 265 c 0
 470 304 456 317 434 318 c 0
 412 320 343 319 325 319 c 0
 302 319 286 314 279 289 c 2
 227 110 l 2
 209 47 228 36 284 26 c 0
 302 22 307 19 306 8 c 0
 305 -1 292 -4 278 -4 c 0
 230 -4 195 2 156 2 c 0
 111 2 78 -5 30 -5 c 0xec
EndSplineSet
AlternateSubs2: "'ssty' Script Style in Mathematical Alphanumeric Symbols lookup 2 subtable" u1D439.s u1D439.ss
EndChar

StartChar: u1D43A
Encoding: 119866 119866 114
Width: 697
GlyphClass: 2
Flags: HW
TeX: 663 14
ItalicCorrection: 28
TopAccentHorizontal: 453
HStem: -14 30<284.498 412.263> 262 32<398.626 484.531 606.714 671.714> 458 21G<599.879 610.879> 633 31<390.589 534.522>
VStem: 591 35<458.18 531.46>
LayerCount: 2
Fore
SplineSet
350 -14 m 0
 172 -14 38 87 53 278 c 1
 64 495 248 664 489 664 c 0
 533 664 564 653 589 644 c 0
 610 636 625 629 641 629 c 0
 649 629 657 634 665 638 c 0
 673 643 679 646 687 646 c 0
 699 646 699 635 694 628 c 0
 671 597 637 527 626 481 c 0
 623 468 616 458 607 458 c 0
 594 458 588 469 591 490 c 0
 596 522 593 556 573 584 c 0
 556 608 522 633 473 633 c 0
 305 633 170 453 154 245 c 0
 144 106 252 16 357 16 c 0
 415 16 452 55 464 101 c 2
 493 210 l 2
 499 233 494 244 476 250 c 0
 459 255 438 260 427 262 c 0
 414 265 398 270 399 279 c 0
 400 288 413 294 429 294 c 0
 475 294 511 287 556 287 c 0
 590 287 613 294 653 294 c 0
 665 294 673 287 672 279 c 0
 671 271 661 263 642 259 c 0
 609 253 594 242 582 215 c 0
 564 178 545 113 545 98 c 0
 545 85 548 76 558 64 c 1
 541 24 416 -14 350 -14 c 0
EndSplineSet
AlternateSubs2: "'ssty' Script Style in Mathematical Alphanumeric Symbols lookup 2 subtable" u1D43A.s u1D43A.ss
EndChar

StartChar: u1D43B
Encoding: 119867 119867 115
Width: 829
GlyphClass: 2
Flags: HW
TeX: 653 5
ItalicCorrection: 73
TopAccentHorizontal: 517
HStem: -4 31<-6.84791 67.1081 211.781 271.812 414.065 490.244 626.227 681.382> 307 40<278.371 591.858> 621 32<191.506 246.027 378.734 456.977 611.199 664.734 798.911 873.108>
LayerCount: 2
Fore
SplineSet
13 -5 m 0
 -1 -5 -9 -1 -8 7 c 0
 -7 17 3 21 24 27 c 0
 68 39 86 46 96 78 c 2
 243 551 l 2
 257 596 257 611 213 621 c 0
 195 625 190 632 191 642 c 0
 192 650 206 653 220 653 c 0
 269 653 287 650 325 650 c 0
 363 650 389 653 437 653 c 0
 451 653 458 649 458 641 c 0
 457 631 445 625 424 621 c 0
 373 610 350 590 338 551 c 2
 278 357 l 2
 276 349 282 347 289 347 c 2
 600 347 l 2
 606 347 609 351 612 360 c 2
 672 552 l 2
 683 589 676 610 631 621 c 0
 613 625 609 631 610 641 c 0
 610 649 623 653 638 653 c 0
 686 653 714 650 755 650 c 0
 790 650 804 653 853 653 c 0
 867 653 875 650 874 642 c 0
 873 632 861 625 840 621 c 0
 791 611 780 591 768 552 c 2
 624 85 l 2
 614 51 621 35 659 27 c 0
 677 23 682 17 681 7 c 0
 680 -1 667 -5 653 -5 c 0
 605 -5 586 0 548 0 c 0
 509 0 482 -4 434 -4 c 0
 419 -4 413 0 413 8 c 0
 414 18 426 23 447 27 c 0
 492 36 519 55 533 97 c 2
 593 291 l 2
 596 299 599 307 592 307 c 2
 273 307 l 2
 267 307 264 302 262 294 c 2
 203 103 l 2
 187 50 207 37 250 27 c 0
 268 23 273 18 272 8 c 0
 271 0 259 -4 244 -4 c 0
 196 -4 168 0 126 0 c 0
 86 0 61 -5 13 -5 c 0
EndSplineSet
AlternateSubs2: "'ssty' Script Style in Mathematical Alphanumeric Symbols lookup 2 subtable" u1D43B.s u1D43B.ss
EndChar

StartChar: u1D43C
Encoding: 119868 119868 116
Width: 425
GlyphClass: 2
Flags: HW
TeX: 653 5
ItalicCorrection: 79
TopAccentHorizontal: 335
HStem: -5 31<-5.93271 74.7446 226.576 290.209> 621 32<197.289 254.605 394.736 475.006>
LayerCount: 2
Fore
SplineSet
15 -5 m 0
 1 -5 -8 -1 -7 7 c 0
 -6 17 6 22 27 26 c 0
 77 35 106 53 120 98 c 2
 259 550 l 2
 273 596 262 611 217 621 c 0
 199 625 195 632 196 642 c 0
 196 650 210 653 224 653 c 0
 273 653 298 650 341 650 c 0
 381 650 407 653 455 653 c 0
 470 653 477 649 476 641 c 0
 475 631 462 625 441 621 c 0
 390 610 368 595 354 550 c 2
 219 108 l 2
 203 54 219 37 263 27 c 0
 285 22 291 18 290 8 c 0
 289 0 276 -4 262 -4 c 0
 214 -4 183 0 141 0 c 0
 97 0 63 -5 15 -5 c 0
EndSplineSet
AlternateSubs2: "'ssty' Script Style in Mathematical Alphanumeric Symbols lookup 2 subtable" u1D43C.s u1D43C.ss
EndChar

StartChar: u1D43D
Encoding: 119869 119869 117
Width: 440
GlyphClass: 2
Flags: HW
TeX: 653 200
ItalicCorrection: 75
TopAccentHorizontal: 343
HStem: -200 38<-36.1745 45.8884> 621 32<219.637 276.808 408.79 485.91>
LayerCount: 2
Fore
SplineSet
-32 -200 m 0
 -102 -200 -132 -171 -132 -146 c 0
 -132 -115 -123 -95 -104 -95 c 0
 -91 -95 -74 -113 -53 -130 c 0
 -35 -145 -14 -162 8 -162 c 0
 45 -162 73 -127 112 2 c 2
 280 551 l 2
 294 596 285 611 240 621 c 0
 222 625 217 632 218 642 c 0
 218 650 233 653 247 653 c 0
 295 653 320 650 363 650 c 0
 398 650 419 653 467 653 c 0
 481 653 488 649 487 641 c 0
 486 631 474 625 453 621 c 0
 402 610 390 596 376 551 c 2
 245 122 l 2
 191 -54 155 -89 112 -132 c 0
 71 -172 25 -200 -32 -200 c 0
EndSplineSet
AlternateSubs2: "'ssty' Script Style in Mathematical Alphanumeric Symbols lookup 2 subtable" u1D43D.s u1D43D.ss
EndChar

StartChar: u1D43E
Encoding: 119870 119870 118
Width: 785
GlyphClass: 2
Flags: HW
TeX: 655 5
ItalicCorrection: 83
TopAccentHorizontal: 487
HStem: -5 32<6.99204 86.6898 232.668 291.834 404.821 463.193 631.327 699.734> 323 26<305.362 319.869> 621 32<200.674 260.338 388.902 468.456 567.866 613.689 734.536 837.786>
LayerCount: 2
Fore
SplineSet
30 -5 m 0
 15 -5 6 -1 6 7 c 0
 7 17 20 23 41 27 c 0
 91 36 111 52 126 100 c 2
 264 551 l 2
 278 596 268 611 223 621 c 0
 205 625 200 631 200 640 c 0
 200 649 215 653 232 653 c 0
 278 653 302 651 342 651 c 0
 378 651 400 653 448 653 c 0
 463 653 470 650 470 642 c 0
 470 631 456 625 435 621 c 0
 384 610 375 601 360 551 c 2
 304 363 l 2
 301 352 305 349 316 349 c 0
 338 349 359 364 388 389 c 2
 585 563 l 2
 602 578 615 589 615 600 c 0
 616 606 608 613 591 618 c 0
 576 623 568 629 568 638 c 0
 568 647 586 651 601 651 c 2
 658 651 l 2
 715 651 776 655 822 655 c 0
 834 655 840 651 840 643 c 0
 840 634 824 626 803 623 c 0
 749 614 695 596 642 558 c 0
 561 498 496 440 411 362 c 0
 404 355 404 349 408 341 c 0
 482 201 538 122 583 76 c 0
 613 46 640 37 673 27 c 0
 692 21 700 18 700 8 c 0
 700 0 686 -5 668 -5 c 0
 612 -5 593 0 510 0 c 0
 482 0 471 -1 428 -1 c 0
 413 -1 405 3 405 11 c 0
 405 21 416 25 435 29 c 0
 473 37 471 48 454 78 c 2
 327 301 l 2
 319 317 299 323 294 323 c 0
 288 323 286 312 284 304 c 2
 228 107 l 2
 213 54 224 37 268 27 c 0
 286 23 292 17 292 8 c 0
 292 -1 277 -5 261 -5 c 0
 208 -5 192 2 154 2 c 0
 109 2 84 -5 30 -5 c 0
EndSplineSet
AlternateSubs2: "'ssty' Script Style in Mathematical Alphanumeric Symbols lookup 2 subtable" u1D43E.s u1D43E.ss
EndChar

StartChar: u1D43F
Encoding: 119871 119871 119
Width: 588
GlyphClass: 2
Flags: HW
TeX: 653 5
ItalicCorrection: 31
TopAccentHorizontal: 348
HStem: -5 37<-3.91314 93.6658 230.923 445.335> 621 32<208.042 269.941 399.516 499.047>
LayerCount: 2
Fore
SplineSet
15 -5 m 0
 0 -5 -7 -1 -7 7 c 0
 -7 16 6 22 27 26 c 0
 76 36 114 52 128 98 c 2
 269 558 l 2
 283 605 275 611 230 621 c 0
 212 625 208 632 208 642 c 0
 208 650 222 653 236 653 c 0
 285 653 309 648 350 648 c 0
 394 648 431 653 479 653 c 0
 494 653 500 649 500 641 c 0
 499 630 485 625 464 623 c 0
 410 616 378 602 366 563 c 2
 234 122 l 2
 216 62 226 32 273 32 c 2
 341 32 l 2
 410 32 452 48 480 73 c 0
 508 98 526 124 547 159 c 0
 553 167 556 171 564 171 c 0
 570 171 573 166 573 158 c 0
 573 135 538 41 519 12 c 0
 514 4 505 -5 496 -5 c 0
 370 -5 243 1 144 1 c 0
 97 1 63 -5 15 -5 c 0
EndSplineSet
AlternateSubs2: "'ssty' Script Style in Mathematical Alphanumeric Symbols lookup 2 subtable" u1D43F.s u1D43F.ss
EndChar

StartChar: u1D440
Encoding: 119872 119872 120
Width: 1041
GlyphClass: 2
Flags: HW
TeX: 658 14
ItalicCorrection: 68
TopAccentHorizontal: 646
HStem: -14 21G<407.757 413.057> -3 30<-14.5727 66.0175 186.012 236.709 626.836 694.299 868.711 923.611> 625 33<238.323 328.707 994.051 1081.24>
VStem: 392 88<285.643 503.925> 400 90<167.623 262.348>
LayerCount: 2
Fore
SplineSet
411 -14 m 0xa8
 405 -14 400 -4 400 11 c 0xa8
 404 175 400 335 392 498 c 0
 391 523 378 520 365 494 c 0
 306 379 255 266 207 151 c 0
 169 59 177 34 209 27 c 0
 227 24 238 20 237 10 c 0
 236 2 218 -3 204 -3 c 0
 153 -3 142 0 97 0 c 0
 60 0 44 -5 5 -5 c 0
 -11 -5 -19 -2 -18 6 c 0
 -17 16 -4 21 17 25 c 0
 72 37 102 57 148 148 c 2
 339 524 l 2
 368 581 359 612 274 625 c 0
 248 629 238 631 238 642 c 0
 238 653 255 658 279 658 c 0
 315 658 404 653 449 653 c 0
 481 653 481 628 480 577 c 2x70
 490 177 l 2
 491 151 503 157 518 174 c 0
 637 305 748 445 855 575 c 1
 871 603 877 618 888 636 c 0
 894 646 900 650 909 650 c 2
 950 650 l 2
 975 650 1028 658 1050 658 c 0
 1066 658 1081 652 1081 643 c 0
 1081 632 1070 624 1037 619 c 0
 979 610 966 600 947 533 c 0
 911 407 881 273 856 142 c 0
 841 65 858 35 900 27 c 0
 918 24 925 20 924 10 c 0
 923 3 910 -3 895 -3 c 0x68
 847 -3 809 7 765 7 c 0
 720 7 696 -3 647 -3 c 0
 632 -3 625 2 626 10 c 0
 627 19 639 24 659 29 c 0
 705 40 723 58 738 102 c 0
 783 245 812 354 844 485 c 0
 846 492 840 493 833 486 c 2
 548 156 l 1
 436 9 l 2
 425 -5 416 -14 411 -14 c 0xa8
EndSplineSet
AlternateSubs2: "'ssty' Script Style in Mathematical Alphanumeric Symbols lookup 2 subtable" u1D440.s u1D440.ss
EndChar

StartChar: u1D441
Encoding: 119873 119873 121
Width: 821
GlyphClass: 2
Flags: HW
TeX: 658 5
ItalicCorrection: 88
TopAccentHorizontal: 474
HStem: -5 31<-18.1926 53.0151 170.949 239.771> 620 31<602.774 678.594 794.384 880.041> 624 34<145.422 238.414>
LayerCount: 2
Fore
SplineSet
4 -5 m 0xc0
 -10 -5 -20 -1 -19 7 c 0
 -18 17 -11 21 10 26 c 0
 68 39 89 64 101 99 c 2
 242 522 l 2
 263 585 258 619 181 624 c 0
 159 626 145 633 145 644 c 0
 145 656 163 658 172 658 c 0xa0
 223 658 276 653 316 653 c 0
 329 653 338 646 344 635 c 2
 565 164 l 2
 568 158 576 147 582 147 c 0
 587 147 589 152 595 165 c 0
 610 204 694 479 705 532 c 0
 718 589 693 609 627 620 c 0
 609 623 603 629 603 638 c 0
 603 646 619 651 634 651 c 0
 674 651 708 647 743 647 c 0
 782 647 805 653 860 653 c 0
 876 653 882 649 882 641 c 0
 882 632 866 623 845 621 c 0
 795 616 782 604 759 544 c 0
 745 508 638 186 619 123 c 0
 612 98 613 86 623 67 c 0
 630 50 643 41 654 33 c 0
 665 24 673 19 673 8 c 0
 673 0 668 0 662 0 c 0
 621 0 598 -6 576 -6 c 0
 550 -6 538 3 527 28 c 0
 465 160 371 396 311 509 c 0
 304 521 296 529 290 529 c 0
 283 529 274 517 268 499 c 0
 239 403 183 233 152 100 c 0
 142 59 161 36 213 25 c 0
 231 21 241 18 240 8 c 0
 240 0 225 -4 210 -4 c 0
 159 -4 146 0 112 0 c 0
 70 0 43 -5 4 -5 c 0xc0
EndSplineSet
AlternateSubs2: "'ssty' Script Style in Mathematical Alphanumeric Symbols lookup 2 subtable" u1D441.s u1D441.ss
EndChar

StartChar: u1D442
Encoding: 119874 119874 122
Width: 705
GlyphClass: 2
Flags: HW
TeX: 664 14
ItalicCorrection: 5
TopAccentHorizontal: 442
HStem: -14 33<232.798 362.413> 634 30<387.941 509.65>
VStem: 60 99<124.988 336.24> 585 99<309.256 525.226>
LayerCount: 2
Fore
SplineSet
288 -14 m 0
 137 -14 60 102 60 243 c 0
 60 441 211 664 456 664 c 0
 607 664 684 548 684 407 c 0
 684 209 533 -14 288 -14 c 0
290 19 m 0
 461 19 585 265 585 451 c 0
 585 543 546 634 453 634 c 0
 288 634 159 385 159 199 c 0
 159 107 197 19 290 19 c 0
EndSplineSet
AlternateSubs2: "'ssty' Script Style in Mathematical Alphanumeric Symbols lookup 2 subtable" u1D442.s u1D442.ss
EndChar

StartChar: u1D443
Encoding: 119875 119875 123
Width: 646
GlyphClass: 2
Flags: HW
TeX: 656 5
ItalicCorrection: 22
TopAccentHorizontal: 399
HStem: -5 31<0.800337 81.6139 233.169 298.012> 248 29<319.272 409.542> 625 28<179.629 250.286 379.378 468.96>
VStem: 542 99<387.079 559.725>
LayerCount: 2
Fore
SplineSet
22 -5 m 0
 8 -5 0 -1 0 7 c 0
 0 17 14 22 35 26 c 0
 85 35 110 52 125 99 c 2
 261 540 l 2
 278 595 265 618 204 625 c 0
 185 627 179 632 180 641 c 0
 180 649 196 653 211 653 c 0
 229 653 281 652 312 652 c 0
 335 652 396 656 428 656 c 0
 557 656 642 585 641 471 c 0
 640 340 510 248 362 248 c 0
 344 248 319 252 319 264 c 0
 319 272 330 276 342 277 c 0
 359 279 376 283 394 287 c 0
 481 308 542 379 542 479 c 0
 542 570 491 626 402 626 c 0
 384 626 379 616 366 575 c 2
 223 108 l 2
 207 57 222 37 274 26 c 0
 292 22 298 18 298 8 c 0
 298 0 284 -4 268 -4 c 0
 220 -4 188 2 152 2 c 0
 106 2 71 -5 22 -5 c 0
EndSplineSet
AlternateSubs2: "'ssty' Script Style in Mathematical Alphanumeric Symbols lookup 2 subtable" u1D443.s u1D443.ss
EndChar

StartChar: u1D444
Encoding: 119876 119876 124
Width: 758
GlyphClass: 2
Flags: HW
TeX: 664 270
ItalicCorrection: 5
TopAccentHorizontal: 461
HStem: -274 64<537.092 647.285> -14 25<304.693 342.374> 632 32<409.078 540.025>
VStem: 90 99<126.455 341.484> 619 99<297.358 523.612>
LayerCount: 2
Fore
SplineSet
712 -159 m 0
 729 -135 742 -150 735 -166 c 0
 714 -214 641 -274 567 -274 c 0
 495 -274 427 -235 363 -199 c 0
 303 -165 242 -135 179 -135 c 0
 156 -135 135 -138 119 -144 c 0
 99 -152 84 -161 72 -161 c 0
 61 -161 59 -160 59 -150 c 0
 59 -113 252 -57 322 -23 c 0
 329 -20 336 -17 343 -13 c 1
 338 -14 332 -14 326 -14 c 1
 171 -14 90 102 90 243 c 0
 90 441 237 664 486 664 c 0
 637 664 718 548 718 407 c 0
 718 267 638 122 489 29 c 0
 417 -17 367 -47 277 -80 c 1
 330 -82 392 -108 443 -137 c 0
 507 -174 567 -210 614 -210 c 0
 656 -210 689 -190 712 -159 c 0
379 11 m 2
 384 11 l 1
 534 106 619 259 619 451 c 0
 619 546 576 632 476 632 c 0
 314 632 189 389 189 199 c 0
 189 108 235 11 379 11 c 2
EndSplineSet
AlternateSubs2: "'ssty' Script Style in Mathematical Alphanumeric Symbols lookup 2 subtable" u1D444.s u1D444.ss
EndChar

StartChar: u1D445
Encoding: 119877 119877 125
Width: 687
GlyphClass: 2
Flags: HW
TeX: 655 5
ItalicCorrection: 5
TopAccentHorizontal: 386
HStem: -5 31<-11.8785 67.5931 215.926 272.207 577.215 644.004> 298 22<293.179 333.801> 621 32<162.979 249.486> 628 22<373.675 447.028>
VStem: 514 100<426.095 580.523>
LayerCount: 2
Fore
SplineSet
9 -5 m 0xd8
 -5 -5 -14 -1 -13 7 c 0
 -12 17 0 22 21 26 c 0
 71 35 96 52 111 99 c 2
 247 542 l 2
 267 606 259 613 191 621 c 0
 172 623 163 629 163 639 c 0
 163 649 183 653 198 653 c 1xe8
 214 653 285 650 298 650 c 1
 337 650 380 655 417 655 c 0
 527 655 614 607 614 507 c 0
 614 402 527 342 440 316 c 0
 432 313 428 308 432 300 c 0
 450 253 502 146 522 105 c 0
 547 55 570 37 611 32 c 0
 628 30 645 27 645 16 c 0
 645 -1 618 -3 573 -3 c 0
 506 -3 463 11 445 47 c 0
 415 105 377 191 354 253 c 0
 340 288 331 298 299 298 c 0
 274 298 267 294 263 280 c 2
 209 108 l 2
 194 61 204 35 250 26 c 0
 268 22 273 18 272 8 c 0
 271 0 259 -4 244 -4 c 0
 196 -4 174 2 138 2 c 0
 92 2 58 -5 9 -5 c 0xd8
334 320 m 0
 400 320 514 371 514 512 c 0
 514 577 466 628 403 628 c 0xd8
 375 628 365 618 346 550 c 2
 293 358 l 2
 285 328 295 320 334 320 c 0
EndSplineSet
AlternateSubs2: "'ssty' Script Style in Mathematical Alphanumeric Symbols lookup 2 subtable" u1D445.s u1D445.ss
EndChar

StartChar: u1D446
Encoding: 119878 119878 126
Width: 570
GlyphClass: 2
Flags: HW
TeX: 664 15
ItalicCorrection: 36
TopAccentHorizontal: 354
HStem: -15 33<154.75 290.198> 0 21G<34 39.8999> 460 21G<508.4 517> 633 31<325.191 441.909>
VStem: 17 80<20.2002 153.2> 174 86<436.586 561.754> 363 93<97.4027 224.736> 500 77<489.6 627.8> 500 31<460.003 557.011>
LayerCount: 2
Fore
SplineSet
224 -15 m 0xbf
 186 -15 148 -9 114 5 c 0
 97 12 85 17 81 17 c 0
 74 17 65 13 58 10 c 0
 50 5 42 0 37 0 c 0x7f
 31 0 17 12 17 20 c 0
 17 32 54 97 65 175 c 0
 67 191 72 199 83 199 c 0
 96 199 97 184 97 153 c 0
 97 79 135 18 218 18 c 0
 301 18 363 68 363 150 c 0
 363 200 345 234 276 297 c 0
 217 351 174 401 174 478 c 0
 174 585 268 664 391 664 c 0
 419 664 447 656 471 650 c 0
 497 642 514 634 526 634 c 0
 535 634 541 636 547 639 c 0
 553 643 558 646 566 646 c 0
 577 646 579 635 577 628 c 0xbf
 571 618 546 582 531 490 c 0xbe80
 528 471 520 460 514 460 c 0
 503 460 500 471 500 490 c 0
 500 581 453 633 383 633 c 0
 312 633 260 570 260 510 c 0
 260 458 283 420 354 356 c 0
 425 293 456 246 456 187 c 0
 456 79 373 -15 224 -15 c 0xbf
EndSplineSet
AlternateSubs2: "'ssty' Script Style in Mathematical Alphanumeric Symbols lookup 2 subtable" u1D446.s u1D446.ss
EndChar

StartChar: u1D447
Encoding: 119879 119879 127
Width: 629
GlyphClass: 2
Flags: HW
TeX: 666 5
ItalicCorrection: 105
TopAccentHorizontal: 376
HStem: -5 29<63.6762 143.187 302.768 361.198> 614 30<177.339 330.601 439.316 601.051> 654 20G<136.544 143.744 692.745 700.645>
VStem: 59 61<525.714 563.298> 626 29<495.807 568.703>
LayerCount: 2
Fore
SplineSet
85 -5 m 0
 71 -5 63 -1 63 7 c 0
 64 17 77 20 98 24 c 0
 148 33 179 55 193 101 c 2
 317 528 l 2
 337 598 334 614 315 614 c 2
 241 614 l 2
 181 614 146 582 120 552 c 0
 102 532 83 502 70 502 c 0
 61 502 59 505 59 516 c 0
 59 520 62 531 70 546 c 0
 90 578 108 614 120 652 c 0
 124 663 133 674 140 674 c 0
 147 674 156 665 164 658 c 0
 173 650 182 644 245 644 c 2
 581 644 l 2
 648 644 661 652 669 658 c 0
 681 665 689 673 697 673 c 0
 705 673 707 668 706 661 c 0
 706 653 701 642 697 635 c 0
 685 615 666 568 655 515 c 0
 652 501 648 496 641 496 c 0
 631 496 626 505 626 522 c 0
 625 581 608 614 557 614 c 2
 470 614 l 2
 442 614 433 601 412 526 c 2
 288 101 l 2
 274 55 293 34 338 24 c 0
 356 20 362 18 361 8 c 0
 360 0 347 -4 332 -4 c 0
 284 -4 255 0 214 0 c 0
 169 0 134 -5 85 -5 c 0
EndSplineSet
AlternateSubs2: "'ssty' Script Style in Mathematical Alphanumeric Symbols lookup 2 subtable" u1D447.s u1D447.ss
EndChar

StartChar: u1D448
Encoding: 119880 119880 128
Width: 785
GlyphClass: 2
Flags: HW
TeX: 653 14
ItalicCorrection: 71
TopAccentHorizontal: 473
HStem: -14 49<253.175 420.8> 620 34<157.25 206.348 339.248 404.096 593.92 652.76 753.984 826.547>
LayerCount: 2
Fore
SplineSet
304 -14 m 0
 164 -14 62 73 117 252 c 2
 206 545 l 2
 220 590 207 613 185 620 c 0
 166 626 156 633 156 642 c 0
 157 650 177 654 193 654 c 0
 224 654 256 650 292 650 c 0
 323 650 358 652 383 652 c 0
 399 652 407 649 406 641 c 0
 404 630 387 626 364 618 c 0
 343 611 315 587 299 534 c 2
 209 238 l 2
 168 101 242 35 336 35 c 0
 472 35 545 146 582 267 c 0
 606 345 633 431 645 468 c 0
 682 587 666 606 622 620 c 0
 610 624 592 630 593 640 c 0
 594 649 608 652 625 652 c 1
 641 652 714 650 727 650 c 1
 759 650 781 654 806 654 c 0
 822 654 831 651 829 642 c 0
 828 633 814 626 792 621 c 0
 755 612 741 603 707 512 c 0
 678 433 650 347 618 255 c 0
 563 98 482 -14 304 -14 c 0
EndSplineSet
AlternateSubs2: "'ssty' Script Style in Mathematical Alphanumeric Symbols lookup 2 subtable" u1D448.s u1D448.ss
EndChar

StartChar: u1D449
Encoding: 119881 119881 129
Width: 659
GlyphClass: 2
Flags: HW
TeX: 656 14
ItalicCorrection: 105
TopAccentHorizontal: 396
HStem: -15 21G<92.8677 114.167> 620 32<78.8655 143.488 278.018 356.142 491.874 538.082 660.345 734.177>
LayerCount: 2
Fore
SplineSet
105 -15 m 0
 80 -15 68 10 80 76 c 0
 117 284 142 433 153 551 c 0
 156 592 153 613 105 621 c 0
 85 625 78 632 78 642 c 0
 78 651 92 656 109 656 c 0
 139 656 182 650 223 650 c 0
 260 650 307 652 334 652 c 0
 349 652 359 648 358 640 c 0
 357 630 340 622 323 620 c 0
 282 614 262 601 254 553 c 2
 186 150 l 2
 183 131 185 124 190 124 c 0
 195 124 200 135 214 153 c 2
 486 486 l 2
 561 577 548 614 516 620 c 0
 497 623 491 632 492 641 c 0
 493 649 507 652 523 652 c 0
 546 652 581 650 617 650 c 0
 658 650 679 656 712 656 c 0
 728 656 737 651 737 643 c 0
 737 633 721 626 700 620 c 0
 663 610 621 588 583 542 c 2
 214 104 l 2
 170 53 122 -15 105 -15 c 0
EndSplineSet
AlternateSubs2: "'ssty' Script Style in Mathematical Alphanumeric Symbols lookup 2 subtable" u1D449.s u1D449.ss
EndChar

StartChar: u1D44A
Encoding: 119882 119882 130
Width: 1041
GlyphClass: 2
Flags: HW
TeX: 656 14
ItalicCorrection: 101
TopAccentHorizontal: 580
HStem: -15 21G<99.5 124.4 464.6 493> 621 34<71.4198 151.514 278.268 361.408 445.659 523.228 660.719 750.074 850.03 902.398 1033.42 1113.66>
VStem: 538 213<558.1 646.6>
LayerCount: 2
Fore
SplineSet
113 -15 m 0
 85 -15 81 41 90 88 c 0
 117 237 148 419 161 530 c 0
 170 603 162 610 104 621 c 0
 83 625 71 631 71 642 c 0
 71 653 88 655 108 655 c 0
 137 655 177 650 225 650 c 0
 262 650 308 652 335 652 c 0
 350 652 362 647 362 639 c 0
 361 629 339 622 322 620 c 0
 274 614 265 601 256 543 c 0
 237 421 215 298 195 175 c 0
 189 136 198 137 229 173 c 2
 491 483 l 2
 525 523 538 548 538 569 c 0
 538 600 522 613 477 621 c 0
 457 625 445 631 445 643 c 0
 445 652 464 655 481 655 c 0
 514 655 573 650 612 650 c 0
 650 650 694 655 728 655 c 0
 744 655 751 651 751 642 c 0
 751 633 736 626 715 622 c 0
 656 612 640 597 633 552 c 2
 576 175 l 2
 570 137 580 137 609 174 c 2
 855 485 l 2
 928 577 917 611 873 620 c 0
 854 624 848 628 849 639 c 0
 849 648 864 652 880 652 c 0
 903 652 960 650 995 650 c 0
 1036 650 1057 656 1090 656 c 0
 1106 656 1115 651 1115 643 c 0
 1115 633 1098 624 1077 620 c 0
 1035 612 998 589 959 542 c 2
 594 104 l 2
 551 53 502 -14 484 -14 c 0
 445 -14 460 56 470 112 c 1
 478 156 527 441 533 484 c 1
 218 106 l 2
 180 60 135 -15 113 -15 c 0
EndSplineSet
AlternateSubs2: "'ssty' Script Style in Mathematical Alphanumeric Symbols lookup 2 subtable" u1D44A.s u1D44A.ss
EndChar

StartChar: u1D44B
Encoding: 119883 119883 131
Width: 733
GlyphClass: 2
Flags: HW
TeX: 656 5
ItalicCorrection: 72
TopAccentHorizontal: 470
HStem: -5 34<-27.731 60.0952 181.375 232.789 323.216 389.717 544.432 621.874> 621 33<160.468 237.212 372.825 447.913 536.05 585.877 699.474 774.848>
LayerCount: 2
Fore
SplineSet
-3 -5 m 0
 -19 -5 -29 -2 -29 7 c 0
 -29 17 -14 26 7 29 c 0
 50 36 91 53 157 125 c 2
 310 291 l 2
 329 311 340 326 330 358 c 2
 278 535 l 2
 257 607 227 615 190 621 c 0
 172 624 160 632 160 642 c 0
 160 650 179 654 194 654 c 0
 233 654 280 650 329 650 c 0
 368 650 400 653 424 653 c 0
 439 653 448 649 448 641 c 0
 448 632 434 622 413 620 c 0
 365 615 358 598 376 532 c 2
 413 396 l 2
 418 377 427 378 440 393 c 2
 542 516 l 2
 604 591 596 612 561 620 c 0
 549 623 536 630 536 640 c 0
 536 648 549 652 565 652 c 0
 589 652 616 650 645 650 c 0
 681 650 722 656 751 656 c 0
 767 656 777 653 777 644 c 0
 777 634 763 630 742 624 c 0
 706 614 643 573 598 525 c 2
 455 367 l 2
 437 347 433 338 438 322 c 2
 499 107 l 2
 513 57 532 45 595 29 c 0
 613 24 623 17 623 7 c 0
 623 -1 610 -5 594 -5 c 0
 555 -5 492 1 443 1 c 0
 404 1 374 0 348 -0 c 0
 333 0 323 3 323 11 c 0
 323 21 345 28 359 32 c 0
 405 44 416 65 405 107 c 2
 358 273 l 2
 354 288 345 288 337 277 c 2
 200 109 l 2
 162 63 173 39 208 30 c 0
 226 25 233 22 233 12 c 0
 233 4 219 -2 203 -2 c 0
 180 -2 149 1 114 1 c 0
 72 1 30 -5 -3 -5 c 0
EndSplineSet
AlternateSubs2: "'ssty' Script Style in Mathematical Alphanumeric Symbols lookup 2 subtable" u1D44B.s u1D44B.ss
EndChar

StartChar: u1D44C
Encoding: 119884 119884 132
Width: 651
GlyphClass: 2
Flags: HW
TeX: 653 5
ItalicCorrection: 105
TopAccentHorizontal: 405
HStem: -5 31<78.9527 157.535 317.913 377.208> 618 35<116.692 176.593 300.698 376.982 489.559 544.484 649.748 725.483>
LayerCount: 2
Fore
SplineSet
102 -5 m 0
 86 -5 77 -1 78 7 c 0
 79 16 93 22 114 26 c 0
 165 35 197 62 211 108 c 2
 260 263 l 2
 270 293 267 314 259 344 c 2
 202 549 l 2
 190 590 174 614 144 618 c 0
 124 622 115 631 116 641 c 0
 117 649 134 653 149 653 c 0
 185 653 221 650 269 650 c 0
 300 650 329 653 356 653 c 0
 371 653 380 649 379 641 c 0
 379 632 363 624 342 620 c 0
 298 612 290 601 301 556 c 2
 343 391 l 2
 350 367 355 357 362 357 c 0
 368 357 379 368 394 385 c 0
 438 435 471 480 516 536 c 0
 558 589 555 610 513 620 c 0
 500 623 488 630 489 640 c 0
 490 648 505 652 520 652 c 0
 549 652 570 650 602 650 c 0
 641 650 678 654 703 654 c 0
 719 654 729 651 728 642 c 0
 727 632 712 628 695 622 c 0
 655 610 599 570 571 540 c 0
 519 484 446 399 403 353 c 0
 374 323 363 295 351 257 c 2
 306 109 l 2
 292 62 308 36 353 26 c 0
 372 22 378 17 377 7 c 0
 376 -1 363 -5 347 -5 c 0
 299 -5 270 1 229 1 c 0
 184 1 151 -5 102 -5 c 0
EndSplineSet
AlternateSubs2: "'ssty' Script Style in Mathematical Alphanumeric Symbols lookup 2 subtable" u1D44C.s u1D44C.ss
EndChar

StartChar: u1D44D
Encoding: 119885 119885 133
Width: 645
GlyphClass: 2
Flags: HW
TeX: 653 5
ItalicCorrection: 78
TopAccentHorizontal: 434
HStem: -5 39<157.714 466.09> 617 30<337.443 540.528>
VStem: 150 43<495.053 546.512>
LayerCount: 2
Fore
SplineSet
520 -5 m 0
 442 -5 293 -1 196 -1 c 0
 144 -1 54 -3 -1 -4 c 0
 -9 -4 -5 12 -4 14 c 1
 4 29 47 77 78 108 c 0
 250 286 366 420 541 599 c 0
 547 605 554 616 532 617 c 0
 492 619 376 613 320 608 c 0
 285 604 230 578 192 519 c 0
 182 504 172 492 161 492 c 0
 152 492 150 501 150 511 c 0
 150 516 153 525 158 536 c 0
 172 567 191 606 201 630 c 0
 208 648 217 657 232 657 c 0
 254 657 292 649 333 648 c 0
 379 647 438 647 479 647 c 0
 551 647 618 648 681 650 c 0
 689 650 698 632 694 628 c 2
 612 542 l 2
 441 368 325 251 165 67 c 0
 151 51 152 41 171 39 c 0
 196 36 235 34 276 34 c 0
 322 34 401 40 444 49 c 0
 505 60 558 91 598 153 c 0
 604 161 609 170 619 170 c 0
 629 170 629 161 628 152 c 0
 625 127 570 42 552 13 c 0
 546 4 537 -5 520 -5 c 0
EndSplineSet
AlternateSubs2: "'ssty' Script Style in Mathematical Alphanumeric Symbols lookup 2 subtable" u1D44D.s u1D44D.ss
EndChar

StartChar: u1D44E
Encoding: 119886 119886 134
Width: 531
GlyphClass: 2
Flags: HW
TeX: 426 14
ItalicCorrection: 4
TopAccentHorizontal: 320
HStem: -14 75<78.8022 141.696 317.165 381.107> 355 60<297.487 367.939>
VStem: 17 94<14.5204 109.378>
LayerCount: 2
Fore
SplineSet
71 -14 m 0
 45 -14 17 10 17 32 c 0
 17 100 86 203 207 317 c 0
 275 380 323 414 345 414 c 0
 357 414 370 407 381 397 c 0
 397 377 391 384 392 384 c 0
 394 384 396 385 398 390 c 0
 415 419 417 422 415 420 c 1
 419 427 424 431 430 431 c 0
 451 431 478 416 478 404 c 0
 478 400 476 394 472 383 c 2
 363 93 l 2
 356 73 361 61 376 61 c 0
 398 61 435 87 462 121 c 0
 464 124 467 125 470 125 c 0
 475 125 479 121 479 113 c 0
 479 102 454 67 429 43 c 0
 388 7 346 -14 314 -14 c 0
 291 -14 265 9 265 29 c 0
 265 35 267 44 271 52 c 1
 263 39 297 113 315 151 c 0
 321 163 318 172 311 164 c 0
 194 33 130 -14 71 -14 c 0
140 61 m 0
 167 61 228 110 295 191 c 0
 343 248 374 299 374 321 c 0
 374 326 368 335 359 342 c 0
 349 349 337 355 330 355 c 0
 307 355 260 326 227 294 c 0
 167 235 111 143 111 95 c 0
 111 74 123 61 140 61 c 0
EndSplineSet
AlternateSubs2: "'ssty' Script Style in Mathematical Alphanumeric Symbols lookup 2 subtable" u1D44E.s u1D44E.ss
EndChar

StartChar: u1D44F
Encoding: 119887 119887 135
Width: 461
GlyphClass: 2
Flags: HW
TeX: 707 8
TopAccentHorizontal: 218
HStem: -9 34<113.669 179.184> 370 49<294.498 378.7>
VStem: 23 72<36.4994 152.387> 352 82<250.085 369.426>
LayerCount: 2
Fore
SplineSet
117 -9 m 0
 59 -9 23 25 23 80 c 0
 23 111 30 151 44 193 c 2
 166 566 l 2
 174 589 177 605 177 622 c 0
 177 631 169 636 149 642 c 0
 131 647 121 653 121 657 c 0
 121 664 126 668 140 673 c 0
 176 686 255 707 268 707 c 0
 281 707 286 703 286 696 c 0
 286 683 284 675 279 661 c 0
 250 591 177 379 139 259 c 0
 134 246 142 242 150 254 c 0
 229 359 303 419 356 419 c 0
 401 419 434 386 434 342 c 0
 434 186 258 -9 117 -9 c 0
144 25 m 0
 170 25 222 69 265 128 c 0
 312 193 352 287 352 333 c 0
 352 355 339 370 323 370 c 0
 284 370 235 327 169 237 c 0
 124 174 95 116 95 90 c 0
 95 56 117 25 144 25 c 0
EndSplineSet
AlternateSubs2: "'ssty' Script Style in Mathematical Alphanumeric Symbols lookup 2 subtable" u1D44F.s u1D44F.ss
EndChar

StartChar: u1D450
Encoding: 119888 119888 136
Width: 374
GlyphClass: 2
Flags: HW
TeX: 414 15
ItalicCorrection: 9
TopAccentHorizontal: 240
HStem: -15 70<123.985 202.636> 388 31<219.773 312.814>
VStem: 29 86<66.478 210.836>
LayerCount: 2
Fore
SplineSet
127 -15 m 0
 81 -15 28 33 29 98 c 0
 31 230 128 419 293 419 c 0
 333 419 356 402 356 380 c 0
 356 357 338 329 323 329 c 0
 312 329 306 338 297 354 c 0
 288 371 276 388 255 388 c 0
 193 388 115 226 115 118 c 0
 115 72 136 55 169 55 c 0
 210 55 233 75 258 100 c 0
 266 109 270 113 278 113 c 0
 284 113 286 107 286 100 c 0
 286 67 208 -15 127 -15 c 0
EndSplineSet
AlternateSubs2: "'ssty' Script Style in Mathematical Alphanumeric Symbols lookup 2 subtable" u1D450.s u1D450.ss
EndChar

StartChar: u1D451
Encoding: 119889 119889 137
Width: 527
GlyphClass: 2
Flags: HW
TeX: 705 14
ItalicCorrection: 55
TopAccentHorizontal: 474
HStem: -14 61<72.6427 161.931> 387 37<268.291 342.629>
VStem: 15 86<48.2724 158.268> 288 90<15.177 100.433> 454 101<616.136 693.968>
LayerCount: 2
Fore
SplineSet
550 664 m 2
 382 109 l 2
 379 99 378 91 378 83 c 0
 378 70 382 64 390 64 c 0
 413 64 457 96 485 131 c 0
 488 135 490 136 493 136 c 0
 498 136 501 132 500 126 c 0
 500 85 386 -14 338 -14 c 0
 314 -14 288 11 288 34 c 0
 288 39 289 44 292 59 c 0
 299 82 313 134 315 141 c 1
 316 149 312 153 308 147 c 0
 216 33 152 -14 84 -14 c 0
 43 -14 15 16 15 61 c 0
 15 136 66 244 139 327 c 0
 192 388 248 424 293 424 c 0
 314 424 324 418 358 396 c 0
 375 386 379 383 380 382 c 1
 381 382 385 388 385 390 c 1
 447 595 l 2
 455 624 454 618 454 624 c 0
 454 638 445 646 422 655 c 0
 396 664 395 666 395 670 c 0
 395 679 403 684 427 689 c 0
 466 696 528 705 539 705 c 0
 549 705 555 700 555 691 c 0
 555 683 554 676 550 664 c 2
134 47 m 0
 218 47 360 224 360 327 c 0
 360 365 343 387 312 387 c 0
 240 387 101 187 101 83 c 0
 101 56 110 47 134 47 c 0
EndSplineSet
AlternateSubs2: "'ssty' Script Style in Mathematical Alphanumeric Symbols lookup 2 subtable" u1D451.s u1D451.ss
EndChar

StartChar: u1D452
Encoding: 119890 119890 138
Width: 410
GlyphClass: 2
Flags: HW
TeX: 414 15
TopAccentHorizontal: 275
HStem: -15 66<130.855 216.528> 391 28<247.014 304.571>
VStem: 31 86<64.227 204.719> 309 69<306.459 390.01>
LayerCount: 2
Fore
SplineSet
133 -15 m 0
 87 -15 31 41 31 94 c 0
 31 236 154 419 294 419 c 0
 349 419 378 395 378 359 c 0
 378 273 256 238 148 217 c 0
 140 215 137 214 134 207 c 0
 126 183 117 153 117 128 c 0
 117 81 137 51 176 51 c 0
 221 51 253 79 277 105 c 0
 284 113 290 116 295 116 c 0
 301 116 305 112 305 106 c 0
 305 104 304 99 302 96 c 0
 263 29 206 -15 133 -15 c 0
155 243 m 0
 192 247 308 280 309 359 c 0
 309 375 299 391 282 391 c 0
 229 391 151 290 148 249 c 0
 148 243 150 243 155 243 c 0
EndSplineSet
AlternateSubs2: "'ssty' Script Style in Mathematical Alphanumeric Symbols lookup 2 subtable" u1D452.s u1D452.ss
EndChar

StartChar: u1D453
Encoding: 119891 119891 139
Width: 417
GlyphClass: 2
Flags: HW
TeX: 706 290
ItalicCorrection: 174
TopAccentHorizontal: 428
HStem: -290 42<-62.4998 13.3561> 363 42<114.5 200.582 300.094 414.406> 665 41<389.904 476.413>
VStem: 490 73<585.961 651.527>
LayerCount: 2
Fore
SplineSet
-51 -290 m 0
 -113 -290 -147 -267 -147 -233 c 0
 -147 -209 -121 -187 -105 -187 c 0
 -95 -187 -83 -204 -70 -220 c 0
 -57 -235 -42 -248 -18 -248 c 0
 18 -248 37 -219 66 -121 c 2
 200 341 l 2
 204 354 200 359 186 359 c 2
 125 358 l 2
 115 358 111 362 111 371 c 0
 111 382 121 399 134 400 c 2
 202 403 l 2
 210 404 216 410 219 422 c 2
 227 452 l 2
 278 640 390 706 466 706 c 0
 525 706 563 676 563 635 c 0
 563 601 541 579 521 579 c 0
 508 579 500 598 490 621 c 0
 478 648 462 665 434 665 c 0
 382 665 358 626 323 510 c 0
 315 483 310 460 303 435 c 0
 300 426 298 422 298 415 c 0
 298 406 303 405 310 405 c 0
 348 405 382 408 416 408 c 0
 420 408 424 404 424 396 c 0
 424 387 412 364 396 364 c 2
 307 363 l 2
 290 363 282 358 279 345 c 0
 234 196 190 42 151 -107 c 0
 124 -210 8 -290 -51 -290 c 0
EndSplineSet
AlternateSubs2: "'ssty' Script Style in Mathematical Alphanumeric Symbols lookup 2 subtable" u1D453.s u1D453.ss
EndChar

StartChar: u1D454
Encoding: 119892 119892 140
Width: 593
GlyphClass: 2
Flags: HW
TeX: 414 290
TopAccentHorizontal: 331
HStem: -290 32<156.879 314.202> 82 28<246.255 293.881> 346 61<469.013 562.149> 356 37<458.516 539.722> 390 29<332.14 386.625>
VStem: 8 81<-216.645 -143.722> 366 83<-206.814 -146.267> 397 64<255.321 356.029>
LayerCount: 2
Fore
SplineSet
221 -290 m 0xd6
 102 -290 8 -248 8 -182 c 0
 8 -134 110 -94 205 -64 c 0
 210 -62 211 -59 207 -55 c 0
 177 -33 157 -15 157 8 c 0
 157 30 183 51 215 73 c 0
 222 79 225 83 225 85 c 0
 225 87 221 90 216 92 c 0
 177 111 158 142 158 189 c 0
 158 277 241 419 359 419 c 0xce
 386 419 399 411 410 406 c 0
 422 400 434 393 444 393 c 0xd6
 470 393 514 407 541 407 c 0
 549 407 564 400 564 383 c 0
 564 358 553 346 543 346 c 0xe6
 524 346 485 356 468 356 c 0
 461 356 454 354 457 343 c 0
 460 332 461 322 461 310 c 0xd5
 461 206 368 82 271 82 c 0
 260 82 251 78 246 73 c 0
 238 65 235 56 235 47 c 0
 235 25 247 12 278 -9 c 0
 313 -33 374 -70 407 -93 c 0
 437 -114 449 -133 449 -155 c 0
 449 -227 322 -290 221 -290 c 0xd6
264 110 m 0
 324 108 397 279 397 345 c 0xcd
 397 366 383 390 364 390 c 0
 305 390 231 238 228 157 c 0
 228 130 244 110 264 110 c 0
254 -258 m 0
 327 -258 366 -226 366 -190 c 0xc6
 366 -172 355 -150 328 -134 c 0
 313 -123 276 -99 260 -91 c 0
 251 -86 241 -83 235 -83 c 0
 227 -83 219 -85 211 -87 c 0
 135 -110 89 -137 89 -180 c 0
 89 -223 166 -258 254 -258 c 0
EndSplineSet
AlternateSubs2: "'ssty' Script Style in Mathematical Alphanumeric Symbols lookup 2 subtable" u1D454.s u1D454.ss
EndChar

StartChar: u1D456
Encoding: 119894 119894 141
Width: 354
GlyphClass: 2
Flags: HW
TeX: 613 14
ItalicCorrection: 26
TopAccentHorizontal: 302
HStem: -14 75<74.171 171.3> 511 111<268.588 336.844>
VStem: 49 97<8.86219 76.7422> 251 102<527.045 604.645>
LayerCount: 2
Fore
SplineSet
291 511 m 0
 268 511 251 532 251 554 c 0
 251 590 279 622 315 622 c 0
 339 622 353 597 353 574 c 0
 353 540 325 511 291 511 c 0
94 -14 m 0
 69 -14 49 7 49 25 c 0
 49 30 49 36 52 43 c 0
 102 146 137 243 167 317 c 0
 169 322 168 328 162 328 c 0
 150 328 112 309 88 292 c 0
 78 286 71 290 71 298 c 0
 71 317 153 384 229 418 c 0
 250 426 276 396 271 383 c 2
 152 97 l 2
 147 88 146 79 146 72 c 0
 146 64 153 61 159 61 c 0
 183 61 232 107 267 142 c 0
 268 143 269 144 271 144 c 0
 275 144 279 141 279 137 c 0
 279 93 158 -14 94 -14 c 0
EndSplineSet
AlternateSubs2: "'ssty' Script Style in Mathematical Alphanumeric Symbols lookup 2 subtable" u1D456.s u1D456.ss
Substitution2: "'dtls' Dotless Forms in Mathematical Alphanumeric Symbols lookup 1 subtable" u1D6A4
EndChar

StartChar: u1D457
Encoding: 119895 119895 142
Width: 375
GlyphClass: 2
Flags: HW
TeX: 613 290
ItalicCorrection: 51
TopAccentHorizontal: 331
HStem: -290 44<-43.2797 26.4813> 511 111<313.191 381.448>
VStem: 296 102<527.846 605.445>
LayerCount: 2
Fore
SplineSet
336 511 m 0
 313 511 296 533 296 555 c 0
 296 591 324 623 360 623 c 0
 384 623 398 598 398 575 c 0
 398 541 370 511 336 511 c 0
-41 -290 m 0
 -94 -290 -123 -265 -123 -244 c 0
 -122 -223 -98 -199 -80 -199 c 0
 -66 -199 -56 -211 -45 -223 c 0
 -35 -235 -21 -246 1 -246 c 0
 36 -246 58 -203 78 -141 c 2
 217 282 l 2
 225 308 221 318 209 318 c 0
 196 318 175 309 147 295 c 0
 141 292 130 293 130 301 c 0
 130 307 134 311 143 319 c 0
 202 370 254 392 307 419 c 0
 323 424 345 404 340 390 c 0
 328 357 313 319 300 278 c 2
 172 -110 l 2
 143 -199 22 -290 -41 -290 c 0
EndSplineSet
AlternateSubs2: "'ssty' Script Style in Mathematical Alphanumeric Symbols lookup 2 subtable" u1D457.s u1D457.ss
Substitution2: "'dtls' Dotless Forms in Mathematical Alphanumeric Symbols lookup 1 subtable" u1D6A5
EndChar

StartChar: u1D458
Encoding: 119896 119896 143
Width: 437
GlyphClass: 2
Flags: HW
TeX: 706 21
ItalicCorrection: 45
TopAccentHorizontal: 221
HStem: -19 71<281.2 344.253> -13 21G<40.3999 56.6001> 180 25<155.6 194.8> 368 51<316.201 408.9>
VStem: 194 108<608 700.8> 372 82<318.195 388.2>
LayerCount: 2
Fore
SplineSet
297 -19 m 0xbc
 266 -19 248 -2 235 30 c 2
 196 141 l 2
 188 162 175 180 156 180 c 0
 147 180 137 158 131 143 c 0
 120 118 91 44 82 19 c 0
 74 -2 67 -13 47 -13 c 0x7c
 34 -13 14 0 14 17 c 0
 14 25 16 41 22 59 c 2
 183 559 l 2
 191 583 194 599 194 616 c 0
 194 626 187 635 172 640 c 0
 159 645 147 649 147 654 c 0
 147 660 149 663 158 667 c 0
 188 681 265 706 283 706 c 0
 290 706 302 706 302 695 c 0
 302 683 300 678 297 668 c 2
 165 272 l 2
 160 258 170 261 175 268 c 0
 239 357 323 420 394 420 c 0
 424 420 454 404 454 372 c 0
 454 304 332 217 261 195 c 0
 254 193 253 190 256 183 c 2
 300 80 l 2
 306 67 316 52 331 52 c 0
 355 52 384 80 402 109 c 0
 409 120 412 121 417 121 c 0
 420 121 424 114 424 109 c 0
 424 62 336 -19 297 -19 c 0xbc
195 205 m 0
 274 205 372 295 372 338 c 0
 372 358 360 368 337 368 c 0
 283 368 184 248 184 221 c 0
 184 213 187 205 195 205 c 0
EndSplineSet
AlternateSubs2: "'ssty' Script Style in Mathematical Alphanumeric Symbols lookup 2 subtable" u1D458.s u1D458.ss
EndChar

StartChar: u1D459
Encoding: 119897 119897 144
Width: 346
GlyphClass: 2
Flags: HW
TeX: 709 14
ItalicCorrection: 29
TopAccentHorizontal: 281
HStem: -14 72<78.5 151.269>
VStem: 41 98<14.769 85.4986>
LayerCount: 2
Fore
SplineSet
89 -14 m 0
 68 -14 41 10 41 33 c 0
 41 36 42 43 43 48 c 2
 228 577 l 2
 237 603 238 620 232 634 c 0
 227 644 216 655 202 660 c 0
 192 664 186 669 189 674 c 0
 201 681 219 688 230 691 c 0
 261 698 323 708 336 708 c 0
 342 708 348 701 348 692 c 0
 347 684 344 671 340 660 c 2
 143 98 l 2
 140 89 139 80 139 73 c 0
 139 63 142 58 149 58 c 0
 174 58 225 109 250 142 c 0
 256 151 266 161 271 161 c 0
 277 161 277 154 277 147 c 0
 277 84 146 -14 89 -14 c 0
EndSplineSet
AlternateSubs2: "'ssty' Script Style in Mathematical Alphanumeric Symbols lookup 2 subtable" u1D459.s u1D459.ss
EndChar

StartChar: u1D45A
Encoding: 119898 119898 145
Width: 736
GlyphClass: 2
Flags: HW
TeX: 414 17
ItalicCorrection: 10
TopAccentHorizontal: 354
HStem: -14 74<542.877 597.577> 354 65<78.7024 162.8> 371 48<565.71 616.047>
VStem: 21 17<305.784 318.731>
LayerCount: 2
Fore
SplineSet
40 -16 m 0xb0
 27 -16 12 3 12 21 c 0
 12 27 19 50 31 81 c 2
 127 325 l 2
 133 341 127 354 111 354 c 0
 93 354 70 350 38 310 c 0
 33 304 23 303 21 314 c 0
 20 326 33 357 44 368 c 0
 70 396 101 418 151 419 c 0xd0
 183 419 215 398 198 355 c 2
 141 212 l 2
 137 202 146 201 150 208 c 0
 232 337 306 419 376 419 c 0
 424 419 454 374 428 308 c 1
 398 222 l 2
 394 212 404 212 408 219 c 0
 486 346 563 419 633 419 c 0
 681 419 706 372 678 301 c 2
 596 95 l 2
 585 70 589 60 601 60 c 0
 629 60 693 123 704 134 c 0
 707 137 709 139 711 139 c 0
 715 139 719 134 719 129 c 0
 719 117 715 106 701 92 c 0
 653 37 593 -14 526 -14 c 0
 510 -14 482 8 491 32 c 2
 613 332 l 2
 623 357 609 370 595 371 c 0
 574 372 541 349 500 297 c 0
 467 254 399 148 354 70 c 0
 322 13 290 -16 273 -16 c 0
 261 -16 247 2 247 16 c 0
 247 22 255 48 267 82 c 2
 364 335 l 2
 375 364 356 373 346 374 c 0
 326 376 290 350 248 296 c 0
 215 254 149 147 107 72 c 0
 75 13 58 -16 40 -16 c 0xb0
EndSplineSet
AlternateSubs2: "'ssty' Script Style in Mathematical Alphanumeric Symbols lookup 2 subtable" u1D45A.s u1D45A.ss
EndChar

StartChar: u1D45B
Encoding: 119899 119899 146
Width: 500
GlyphClass: 2
Flags: HW
TeX: 414 16
TopAccentHorizontal: 263
HStem: -14 74<264.017 358.135> 371 48<323.651 373.265>
LayerCount: 2
Fore
SplineSet
49 -16 m 0
 31 -16 5 14 15 39 c 2
 127 314 l 2
 137 339 139 353 126 353 c 0
 108 353 81 350 50 310 c 0
 45 304 36 303 34 314 c 0
 33 326 50 356 59 368 c 0
 83 398 120 418 170 419 c 0
 198 419 218 394 207 365 c 2
 145 205 l 2
 141 195 152 194 156 201 c 0
 235 337 320 419 387 419 c 0
 439 419 466 364 439 302 c 2
 351 95 l 2
 341 70 344 60 356 60 c 0
 384 60 449 113 460 124 c 0
 463 127 466 129 468 129 c 0
 472 129 476 124 476 119 c 0
 476 112 474 104 470 99 c 0
 416 34 345 -14 280 -14 c 0
 260 -14 235 10 245 33 c 0
 285 124 327 214 363 306 c 0
 381 353 373 370 355 371 c 0
 332 372 297 339 255 286 c 0
 226 249 147 125 90 25 c 0
 76 -1 63 -16 49 -16 c 0
EndSplineSet
AlternateSubs2: "'ssty' Script Style in Mathematical Alphanumeric Symbols lookup 2 subtable" u1D45B.s u1D45B.ss
EndChar

StartChar: u1D45C
Encoding: 119900 119900 147
Width: 428
GlyphClass: 2
Flags: HW
TeX: 414 14
TopAccentHorizontal: 265
HStem: -14 32<118.523 186.489> 387 32<238.605 306.727>
VStem: 27 82<34.9021 193.417> 316 82<214.832 371.269>
LayerCount: 2
Fore
SplineSet
132 -14 m 0
 76 -14 27 42 27 107 c 0
 27 232 135 419 281 419 c 0
 354 419 397 366 397 294 c 0
 397 174 294 -14 132 -14 c 0
150 18 m 0
 226 18 316 217 316 332 c 0
 316 365 306 387 275 387 c 0
 204 387 109 205 109 76 c 0
 109 36 125 18 150 18 c 0
EndSplineSet
AlternateSubs2: "'ssty' Script Style in Mathematical Alphanumeric Symbols lookup 2 subtable" u1D45C.s u1D45C.ss
EndChar

StartChar: u1D45D
Encoding: 119901 119901 148
Width: 530
GlyphClass: 2
Flags: HW
TeX: 506 286
TopAccentHorizontal: 318
HStem: -286 29<-73.2957 -8.25123 105.887 165.472> -14 35<210.366 283.254> 379 41<311.308 387.795>
VStem: 410 89<194.055 357.416>
LayerCount: 2
Fore
SplineSet
-61 -286 m 0
 -68 -286 -75 -283 -75 -276 c 0
 -75 -266 -59 -259 -47 -257 c 0
 -15 -250 0 -244 9 -216 c 2
 196 317 l 2
 205 343 206 352 185 349 c 0
 155 344 137 339 108 326 c 0
 97 321 86 324 86 334 c 0
 86 346 94 353 103 357 c 0
 124 368 162 386 214 402 c 0
 223 404 229 409 234 423 c 0
 254 486 271 514 304 514 c 0
 319 514 330 505 325 487 c 2
 309 434 l 2
 305 421 309 414 314 415 c 0
 331 418 345 420 360 420 c 0
 462 420 499 364 499 292 c 0
 499 161 368 -14 231 -14 c 0
 216 -14 198 -4 186 4 c 0
 172 13 167 13 158 -12 c 2
 95 -206 l 2
 85 -233 101 -247 139 -253 c 0
 151 -254 166 -258 166 -269 c 0
 166 -277 153 -280 139 -280 c 0
 107 -280 65 -277 44 -279 c 0
 11 -282 -25 -286 -61 -286 c 0
245 21 m 0
 303 21 410 168 410 281 c 0
 410 355 381 378 333 379 c 0
 322 379 311 379 298 377 c 1
 208 107 l 2
 200 84 201 63 206 48 c 0
 213 31 224 21 245 21 c 0
EndSplineSet
AlternateSubs2: "'ssty' Script Style in Mathematical Alphanumeric Symbols lookup 2 subtable" u1D45D.s u1D45D.ss
EndChar

StartChar: u1D45E
Encoding: 119902 119902 149
Width: 512
GlyphClass: 2
Flags: HW
TeX: 428 286
ItalicCorrection: 11
TopAccentHorizontal: 288
HStem: -286 30<116.256 181.983> -273 27<299.301 355.007> -14 46<77.1001 180.555> 388 37<297.121 368.182>
VStem: 25 87<32.9768 150.327>
LayerCount: 2
Fore
SplineSet
132 -286 m 0xb8
 125 -287 115 -284 115 -276 c 0
 115 -266 130 -259 142 -257 c 0xb8
 174 -251 198 -237 207 -210 c 0
 245 -107 287 7 328 116 c 0
 334 130 327 140 313 124 c 0
 236 34 170 -14 99 -14 c 0
 54 -14 25 15 25 56 c 0
 25 141 90 251 169 334 c 0
 222 390 292 425 344 425 c 0
 373 425 391 413 401 399 c 0
 411 388 415 378 422 378 c 0
 430 378 436 383 441 393 c 2
 450 411 l 2
 461 431 474 437 486 437 c 0
 497 437 503 420 490 382 c 2
 297 -199 l 2
 288 -227 299 -243 325 -246 c 0
 340 -248 355 -252 355 -262 c 0
 355 -270 342 -273 328 -273 c 0x78
 252 -273 166 -281 132 -286 c 0xb8
137 32 m 0
 186 32 277 120 320 193 c 0
 351 244 378 299 378 337 c 0
 378 362 363 388 337 388 c 0
 274 388 111 175 112 69 c 0
 112 44 118 32 137 32 c 0
EndSplineSet
AlternateSubs2: "'ssty' Script Style in Mathematical Alphanumeric Symbols lookup 2 subtable" u1D45E.s u1D45E.ss
EndChar

StartChar: u1D45F
Encoding: 119903 119903 150
Width: 425
GlyphClass: 2
Flags: HW
TeX: 419 17
ItalicCorrection: 51
TopAccentHorizontal: 267
HStem: 356 63<120.807 203.389 338.597 401.542>
VStem: 373 76<303.939 353.39>
LayerCount: 2
Fore
SplineSet
79 -16 m 0
 67 -16 45 -3 45 13 c 0
 45 27 52 47 64 78 c 2
 158 324 l 2
 164 340 164 356 151 356 c 0
 130 356 112 348 100 341 c 0
 92 336 81 338 81 348 c 0
 81 363 96 382 119 396 c 0
 138 409 165 419 191 419 c 0
 246 419 241 372 216 311 c 2
 172 204 l 2
 167 194 180 191 184 199 c 0
 261 332 343 423 397 423 c 0
 433 423 449 398 449 369 c 0
 449 328 421 282 392 282 c 0
 380 282 374 295 373 318 c 0
 372 339 366 353 351 353 c 0
 335 353 313 333 281 288 c 0
 253 250 184 141 145 72 c 0
 112 13 97 -16 79 -16 c 0
EndSplineSet
AlternateSubs2: "'ssty' Script Style in Mathematical Alphanumeric Symbols lookup 2 subtable" u1D45F.s u1D45F.ss
EndChar

StartChar: u1D460
Encoding: 119904 119904 151
Width: 361
GlyphClass: 2
Flags: HW
TeX: 414 14
ItalicCorrection: 5
TopAccentHorizontal: 221
HStem: -14 49<62.1997 170.181> 368 52<215.376 274.014>
VStem: 129 66<264.491 336.172> 197 73<70.4234 162.729>
LayerCount: 2
Fore
SplineSet
81 -14 m 0
 44 -14 16 7 16 37 c 0
 16 69 35 87 48 87 c 0
 57 87 68 76 81 64 c 0
 96 51 115 35 144 35 c 0
 176 35 196 61 197 89 c 0
 197 116 182 152 163 185 c 0
 143 217 129 250 129 275 c 0
 129 351 233 419 271 419 c 0
 303 419 339 388 339 372 c 0
 339 357 314 328 299 328 c 0
 290 328 281 337 273 347 c 0
 264 358 251 368 233 368 c 0
 212 368 195 348 195 323 c 0
 195 306 217 262 234 234 c 0
 254 201 270 158 270 128 c 0
 270 55 166 -14 81 -14 c 0
EndSplineSet
AlternateSubs2: "'ssty' Script Style in Mathematical Alphanumeric Symbols lookup 2 subtable" u1D460.s u1D460.ss
EndChar

StartChar: u1D461
Encoding: 119905 119905 152
Width: 339
GlyphClass: 2
Flags: HW
TeX: 510 14
ItalicCorrection: 46
TopAccentHorizontal: 220
HStem: -14 83<65.2591 168.7> 360 44<75.5046 145.006 247.428 357.787>
VStem: 37 321
LayerCount: 2
Fore
SplineSet
84 -14 m 0
 63 -14 37 13 37 29 c 0
 37 48 43 60 50 81 c 2
 145 344 l 2
 150 356 142 360 135 360 c 2
 92 362 l 2
 73 363 73 372 73 378 c 0
 73 381 90 405 110 405 c 2
 150 405 l 2
 166 405 168 407 176 424 c 2
 201 475 l 2
 211 495 248 525 262 525 c 0
 276 525 278 505 273 490 c 2
 248 420 l 2
 244 408 249 406 261 406 c 0
 286 406 313 401 333 398 c 0
 356 394 358 390 358 382 c 0
 358 379 354 369 337 368 c 0
 311 366 287 364 259 363 c 0
 237 362 229 357 225 347 c 2
 140 111 l 2
 129 81 136 69 156 69 c 0
 182 69 224 109 246 130 c 0
 257 141 268 139 268 133 c 0
 270 126 266 115 257 104 c 0
 217 49 125 -14 84 -14 c 0
EndSplineSet
AlternateSubs2: "'ssty' Script Style in Mathematical Alphanumeric Symbols lookup 2 subtable" u1D461.s u1D461.ss
EndChar

StartChar: u1D462
Encoding: 119906 119906 153
Width: 517
GlyphClass: 2
Flags: HW
TeX: 418 14
ItalicCorrection: 3
TopAccentHorizontal: 292
HStem: -14 77<89.5879 141.788>
LayerCount: 2
Fore
SplineSet
90 -14 m 0
 62 -14 33 29 42 51 c 2
 144 294 l 2
 153 316 155 332 145 332 c 0
 134 332 98 303 72 280 c 0
 65 273 54 275 54 281 c 0
 54 288 57 299 68 313 c 0
 120 381 195 422 233 422 c 0
 248 422 270 396 262 378 c 0
 223 297 184 205 142 113 c 0
 131 88 128 63 142 63 c 0
 162 63 214 124 269 188 c 0
 334 263 400 358 419 391 c 0
 430 410 442 419 454 419 c 0
 473 419 491 391 485 376 c 2
 365 92 l 2
 356 70 357 57 368 57 c 0
 391 57 451 106 480 135 c 0
 481 136 482 137 483 137 c 0
 488 137 493 132 493 127 c 0
 493 112 455 77 427 62 c 1
 391 25 341 -6 292 -1 c 0
 279 0 265 25 272 41 c 0
 297 95 331 167 344 203 c 0
 350 217 339 218 332 210 c 0
 209 70 134 -14 90 -14 c 0
EndSplineSet
AlternateSubs2: "'ssty' Script Style in Mathematical Alphanumeric Symbols lookup 2 subtable" u1D462.s u1D462.ss
EndChar

StartChar: u1D463
Encoding: 119907 119907 154
Width: 410
GlyphClass: 2
Flags: HW
TeX: 418 14
ItalicCorrection: 10
TopAccentHorizontal: 229
HStem: -14 64<77.7002 181.75> 328 94<96.5 187.654>
VStem: 333 60<231.762 383.757>
LayerCount: 2
Fore
SplineSet
105 -14 m 0
 50 -14 17 52 41 116 c 2
 105 288 l 2
 114 313 115 328 102 328 c 0
 91 328 64 306 45 286 c 0
 38 278 32 276 30 276 c 0
 24 276 21 279 21 283 c 0
 21 291 24 300 35 315 c 0
 81 377 145 422 178 422 c 0
 196 422 214 399 208 380 c 2
 121 123 l 2
 106 77 117 50 152 50 c 0
 238 50 333 171 333 277 c 0
 333 302 323 327 307 344 c 0
 297 355 293 364 293 377 c 0
 293 395 332 422 361 422 c 0
 377 422 393 398 393 349 c 0
 393 262 359 175 290 96 c 0
 228 25 161 -14 105 -14 c 0
EndSplineSet
AlternateSubs2: "'ssty' Script Style in Mathematical Alphanumeric Symbols lookup 2 subtable" u1D463.s u1D463.ss
EndChar

StartChar: u1D464
Encoding: 119908 119908 155
Width: 620
GlyphClass: 2
Flags: HW
TeX: 420 14
ItalicCorrection: 9
TopAccentHorizontal: 320
HStem: -14 64<79.7851 158.18 309.196 397.977> 327 95<97.0996 189.977>
VStem: 535 68<237.787 384.445>
LayerCount: 2
Fore
SplineSet
570 424 m 0
 586 424 603 398 603 349 c 0
 603 262 560 171 485 83 c 0
 431 20 377 -14 327 -14 c 0
 277 -14 256 45 264 106 c 1
 216 40 142 -14 99 -14 c 0
 46 -14 10 41 48 143 c 2
 107 301 l 2
 114 319 110 327 101 327 c 0
 94 327 64 315 44 294 c 0
 37 287 28 284 26 284 c 0
 21 284 16 288 16 293 c 0
 16 298 17 306 30 321 c 0
 79 377 150 422 183 422 c 0
 200 422 218 405 204 368 c 2
 117 124 l 2
 100 78 115 50 147 50 c 0
 194 50 272 153 283 194 c 0
 291 222 306 303 313 334 c 0
 316 350 324 368 337 377 c 0
 354 389 368 401 398 401 c 0
 415 401 417 358 405 321 c 0
 388 275 373 239 360 212 c 0
 349 189 341 155 339 139 c 0
 331 85 340 48 373 48 c 0
 444 48 535 179 535 283 c 0
 535 302 529 316 521 330 c 0
 512 347 500 359 500 368 c 0
 500 388 547 424 570 424 c 0
EndSplineSet
AlternateSubs2: "'ssty' Script Style in Mathematical Alphanumeric Symbols lookup 2 subtable" u1D464.s u1D464.ss
EndChar

StartChar: u1D465
Encoding: 119909 119909 156
Width: 465
GlyphClass: 2
Flags: HW
TeX: 414 14
ItalicCorrection: 31
TopAccentHorizontal: 262
HStem: -14 67<35.9906 72.1165 268.7 337.95> 349 70<114.624 179.5 360.135 435.233>
LayerCount: 2
Fore
SplineSet
16 -14 m 0
 -8 -14 -27 1 -27 27 c 0
 -27 52 0 91 19 91 c 0
 28 91 33 82 36 73 c 0
 40 59 48 53 58 53 c 0
 68 52 79 58 89 68 c 0
 123 103 147 133 183 175 c 0
 188 181 188 187 186 195 c 2
 148 332 l 2
 144 346 141 349 133 349 c 0
 122 349 101 332 76 298 c 0
 73 294 68 284 60 284 c 0
 55 284 52 291 52 300 c 0
 52 342 115 419 167 419 c 0
 191 419 205 400 215 364 c 2
 240 262 l 2
 242 253 247 251 254 260 c 2
 321 356 l 2
 346 391 380 419 414 419 c 0
 442 419 467 390 468 373 c 0
 469 353 442 315 425 315 c 0
 415 315 409 322 405 332 c 0
 398 348 393 354 382 354 c 0
 368 354 351 343 327 315 c 0
 308 293 286 267 263 231 c 0
 258 222 254 212 259 195 c 2
 292 78 l 2
 297 59 305 53 313 53 c 0
 330 53 356 79 377 126 c 0
 381 134 385 139 390 139 c 0
 395 139 399 137 399 119 c 0
 399 81 348 -14 287 -14 c 0
 250 -14 233 12 222 52 c 1
 219 62 203 132 201 143 c 1
 197 157 194 158 186 148 c 0
 157 112 128 71 99 35 c 0
 69 -2 42 -14 16 -14 c 0
EndSplineSet
AlternateSubs2: "'ssty' Script Style in Mathematical Alphanumeric Symbols lookup 2 subtable" u1D465.s u1D465.ss
EndChar

StartChar: u1D466
Encoding: 119910 119910 157
Width: 435
GlyphClass: 2
Flags: HW
TeX: 423 290
ItalicCorrection: 10
TopAccentHorizontal: 245
HStem: -290 68<-63.6001 34.9004> 353 68<105.947 175.4>
VStem: 186 73<88.345 306.025> 353 64<265.33 417.905>
LayerCount: 2
Fore
SplineSet
-51 -290 m 0
 -75 -290 -104 -274 -104 -242 c 0
 -104 -213 -81 -186 -59 -186 c 0
 -46 -186 -35 -195 -24 -204 c 0
 -13 -213 -3 -222 12 -222 c 0
 57 -222 108 -161 148 -78 c 0
 176 -18 186 57 186 146 c 0
 186 298 149 353 129 353 c 0
 110 353 81 310 73 287 c 0
 71 280 62 260 54 260 c 0
 49 260 45 272 45 288 c 0
 45 352 110 421 158 421 c 0
 192 421 214 397 228 352 c 0
 246 294 265 212 259 79 c 0
 258 55 265 59 274 76 c 0
 319 161 354 272 353 407 c 0
 353 414 369 428 376 428 c 0
 386 428 417 406 417 379 c 0
 417 255 313 53 160 -130 c 0
 88 -217 6 -290 -51 -290 c 0
EndSplineSet
AlternateSubs2: "'ssty' Script Style in Mathematical Alphanumeric Symbols lookup 2 subtable" u1D466.s u1D466.ss
EndChar

StartChar: u1D467
Encoding: 119911 119911 158
Width: 426
GlyphClass: 2
Flags: HW
TeX: 418 34
ItalicCorrection: 19
TopAccentHorizontal: 221
HStem: -34 61<233.343 289.346> 352 57<137.927 231.287>
VStem: -1 31<-19.9589 34.018> 57 56<251.342 334.03> 327 50<47.9199 144.966>
LayerCount: 2
Fore
SplineSet
418 415 m 0
 420 409 415 394 404 380 c 1
 404 376 241 212 233 205 c 1
 133 109 l 1
 162 108 187 88 211 67 c 0
 235 47 257 27 281 27 c 0
 320 27 327 73 327 116 c 0
 327 141 328 150 341 150 c 0
 356 150 377 131 377 97 c 0
 377 42 275 -34 237 -34 c 0
 202 -34 173 -9 147 15 c 0
 125 34 107 52 92 52 c 0
 53 52 30 25 30 -6 c 0
 30 -19 20 -20 15 -20 c 0
 9 -20 0 -6 -1 7 c 0
 -2 21 5 43 24 61 c 2
 289 311 l 1
 278 312 265 317 252 323 c 1
 226 331 200 345 172 352 c 0
 148 358 126 350 116 338 c 0
 108 332 103 314 108 298 c 0
 111 287 113 279 113 271 c 0
 110 261 94 252 88 250 c 0
 80 246 60 249 57 262 c 0
 54 284 58 302 77 331 c 0
 91 361 129 386 157 398 c 0
 181 407 216 415 239 410 c 0
 264 405 286 395 307 391 c 0
 329 387 345 387 363 396 c 0
 375 400 387 409 399 415 c 0
 405 418 414 419 418 415 c 0
EndSplineSet
AlternateSubs2: "'ssty' Script Style in Mathematical Alphanumeric Symbols lookup 2 subtable" u1D467.s u1D467.ss
EndChar

StartChar: u1D6E2
Encoding: 120546 120546 159
Width: 695
GlyphClass: 2
Flags: HW
TeX: 676 5
ItalicCorrection: 50
TopAccentHorizontal: 562
HStem: -5 35<-50.4927 30.4465 311.695 392.513 541.308 606.07> 253 36<330.231 464.831> 655 20G<627.734 635.834>
LayerCount: 2
Fore
SplineSet
-27 -5 m 0
 -43 -5 -50 -1 -51 9 c 0
 -52 20 -39 24 -19 30 c 0
 33 43 80 69 113 106 c 0
 257 265 365 409 487 561 c 0
 514 593 528 623 537 623 c 0
 566 623 578 632 596 648 c 0
 615 667 624 675 632 675 c 0
 640 675 643 664 638 636 c 2
 535 120 l 2
 523 61 535 39 576 27 c 0
 596 21 607 18 607 8 c 0
 607 0 595 -4 576 -4 c 0
 546 -4 490 1 447 1 c 0
 410 1 361 -1 334 -1 c 0
 319 -1 313 4 312 12 c 0
 310 22 323 29 339 32 c 0
 401 43 420 57 433 109 c 2
 464 228 l 2
 469 246 456 253 439 253 c 2
 316 252 l 2
 297 252 286 246 277 234 c 2
 183 110 l 2
 143 58 161 43 192 34 c 0
 206 29 217 22 217 12 c 0
 217 3 204 -1 188 -1 c 0
 165 -1 135 1 100 1 c 0
 59 1 6 -5 -27 -5 c 0
346 289 m 2
 457 289 l 2
 471 289 477 295 482 314 c 2
 529 533 l 2
 533 547 534 554 527 554 c 0
 523 554 515 551 509 543 c 2
 330 310 l 2
 320 297 314 289 346 289 c 2
EndSplineSet
AlternateSubs2: "'ssty' Script Style in Mathematical Alphanumeric Symbols lookup 2 subtable" u1D6F0.s u1D6F0.ss
EndChar

StartChar: u1D6E3
Encoding: 120547 120547 160
Width: 633
GlyphClass: 2
Flags: HW
TeX: 655 5
ItalicCorrection: 5
TopAccentHorizontal: 382
HStem: -4 27<-7.41681 62.4362 235.745 329.569> 342 27<302.762 381.363> 625 29<366.255 465.884> 625 20<192.103 234.634 312.8 405>
VStem: 454 101<129.714 278.778> 516 95<457.093 587.689>
LayerCount: 2
Fore
SplineSet
14 -5 m 0xe8
 -1 -5 -8 -3 -8 6 c 0
 -8 16 5 22 26 26 c 0
 75 36 103 52 118 98 c 2
 257 549 l 2
 272 597 260 612 217 620 c 0
 199 624 192 628 192 637 c 0
 192 647 207 651 223 651 c 0
 263 651 280 645 313 645 c 0xd8
 347 645 390 654 425 654 c 0
 557 654 611 598 611 525 c 0xe4
 611 434 512 377 431 365 c 0
 421 364 423 357 428 355 c 0
 505 326 555 284 555 193 c 0
 555 69 431 -4 272 -4 c 0
 217 -4 181 2 141 2 c 0
 95 2 65 -5 14 -5 c 0xe8
318 369 m 0
 349 369 376 375 406 383 c 1
 467 413 516 460 516 528 c 0
 516 581 475 625 405 625 c 0xe4
 379 625 368 621 363 605 c 2
 302 387 l 2
 298 373 304 369 318 369 c 0
272 23 m 0
 360 26 454 109 454 211 c 0xc8
 454 294 404 342 308 342 c 0
 293 342 284 336 280 322 c 2
 216 106 l 2
 210 84 210 60 224 47 c 0
 236 34 250 23 272 23 c 0
EndSplineSet
AlternateSubs2: "'ssty' Script Style in Mathematical Alphanumeric Symbols lookup 2 subtable" u1D6E3.s u1D6E3.ss
EndChar

StartChar: u1D6E4
Encoding: 120548 120548 161
Width: 638
GlyphClass: 2
Flags: HW
TeX: 663 5
ItalicCorrection: 62
TopAccentHorizontal: 434
HStem: -5 31<9.06729 92.6164 262.784 320.708> 617 36<216.813 282.73 402.488 594.871>
VStem: 609 29<499.199 573.59>
LayerCount: 2
Fore
SplineSet
30 -5 m 0
 16 -5 7 -1 8 7 c 0
 9 17 21 22 42 26 c 0
 92 35 130 53 145 99 c 2
 283 549 l 2
 298 596 283 611 239 621 c 0
 220 625 215 632 216 641 c 0
 217 649 231 653 246 653 c 0
 267 653 320 650 362 650 c 2
 558 650 l 2
 610 650 650 661 657 661 c 0
 665 661 673 652 673 646 c 0
 670 626 647 565 638 516 c 0
 637 508 627 499 621 499 c 0
 614 499 609 512 609 520 c 0
 609 545 609 578 600 594 c 0
 593 607 576 617 551 617 c 2
 437 617 l 2
 422 617 398 604 391 579 c 2
 250 98 l 2
 236 53 257 37 301 26 c 0
 319 22 324 18 323 8 c 0
 323 0 310 -4 295 -4 c 0
 247 -4 215 0 171 0 c 0
 120 0 79 -5 30 -5 c 0
EndSplineSet
AlternateSubs2: "'ssty' Script Style in Mathematical Alphanumeric Symbols lookup 2 subtable" u1D6E4.s u1D6E4.ss
EndChar

StartChar: u1D6E5
Encoding: 120549 120549 162
Width: 702
GlyphClass: 2
Flags: HW
TeX: 676 3
TopAccentHorizontal: 566
HStem: 0 58<136.868 435.007>
LayerCount: 2
Fore
SplineSet
43 -4 m 0
 30 -5 26 28 31 33 c 2
 484 555 l 2
 512 587 526 623 535 623 c 0
 568 623 587 633 604 649 c 0
 624 669 630 677 639 677 c 0
 647 677 652 669 645 636 c 0
 600 434 561 234 526 32 c 0
 523 16 511 0 490 0 c 2
 172 0 l 2
 127 0 89 0 43 -4 c 0
167 58 m 0
 259 53 322 53 414 58 c 0
 426 59 434 62 435 71 c 0
 463 225 496 383 534 537 c 0
 538 551 539 558 532 558 c 0
 528 558 523 555 514 546 c 2
 156 106 l 2
 146 94 137 83 137 72 c 0
 137 60 150 59 167 58 c 0
EndSplineSet
AlternateSubs2: "'ssty' Script Style in Mathematical Alphanumeric Symbols lookup 2 subtable" u1D6E5.s u1D6E5.ss
EndChar

StartChar: u1D6E6
Encoding: 120550 120550 163
Width: 637
GlyphClass: 2
Flags: HW
TeX: 660 5
ItalicCorrection: 51
TopAccentHorizontal: 449
HStem: 1 28<4.21588 88.6204 232.861 468.526> 320 31<312.241 466.621> 623 30<193.645 265.131 391.995 584.788>
VStem: 477 28<233.031 309.641> 603 58<568.232 611.655>
LayerCount: 2
Fore
SplineSet
22 -5 m 0
 7 -5 0 -1 0 7 c 0
 0 16 13 22 34 26 c 0
 96 38 118 54 132 98 c 2
 270 549 l 2
 287 603 273 615 218 623 c 0
 199 626 193 632 194 641 c 0
 194 649 208 653 227 653 c 0
 244 653 308 650 349 650 c 2
 511 650 l 2
 615 650 641 661 648 661 c 0
 654 661 661 653 661 646 c 0
 661 631 638 583 632 529 c 0
 630 515 621 510 615 510 c 0
 608 510 603 518 603 533 c 0
 604 598 594 620 541 620 c 2
 430 620 l 2
 398 620 386 611 376 579 c 2
 314 380 l 2
 307 358 311 349 331 350 c 2
 446 353 l 2
 480 354 500 371 517 395 c 0
 526 406 538 423 549 423 c 0
 558 423 560 410 553 396 c 0
 541 372 532 352 525 331 c 0
 517 308 511 284 505 255 c 0
 502 244 498 233 491 233 c 0
 480 233 477 250 477 259 c 0
 478 300 465 318 441 318 c 2
 330 320 l 2
 309 320 293 316 286 290 c 2
 235 110 l 2
 217 46 229 29 273 29 c 2
 410 29 l 2
 441 29 468 40 490 55 c 0
 512 70 531 96 550 126 c 0
 556 134 560 143 568 143 c 0
 575 143 576 132 576 122 c 0
 576 103 549 41 532 14 c 0
 524 2 516 -5 501 -5 c 0
 391 -5 246 1 147 1 c 0
 100 1 70 -5 22 -5 c 0
EndSplineSet
AlternateSubs2: "'ssty' Script Style in Mathematical Alphanumeric Symbols lookup 2 subtable" u1D6E6.s u1D6E6.ss
EndChar

StartChar: u1D6E7
Encoding: 120551 120551 164
Width: 645
GlyphClass: 2
Flags: HW
TeX: 653 5
ItalicCorrection: 78
TopAccentHorizontal: 434
HStem: -5 39<157.714 466.09> 617 30<337.443 540.528>
VStem: 150 43<495.053 546.512>
LayerCount: 2
Fore
SplineSet
520 -5 m 0
 442 -5 293 -1 196 -1 c 0
 144 -1 54 -3 -1 -4 c 0
 -9 -4 -5 12 -4 14 c 1
 4 29 47 77 78 108 c 0
 250 286 366 420 541 599 c 0
 547 605 554 616 532 617 c 0
 492 619 376 613 320 608 c 0
 285 604 230 578 192 519 c 0
 182 504 172 492 161 492 c 0
 152 492 150 501 150 511 c 0
 150 516 153 525 158 536 c 0
 172 567 191 606 201 630 c 0
 208 648 217 657 232 657 c 0
 254 657 292 649 333 648 c 0
 379 647 438 647 479 647 c 0
 551 647 618 648 681 650 c 0
 689 650 698 632 694 628 c 2
 612 542 l 2
 441 368 325 251 165 67 c 0
 151 51 152 41 171 39 c 0
 196 36 235 34 276 34 c 0
 322 34 401 40 444 49 c 0
 505 60 558 91 598 153 c 0
 604 161 609 170 619 170 c 0
 629 170 629 161 628 152 c 0
 625 127 570 42 552 13 c 0
 546 4 537 -5 520 -5 c 0
EndSplineSet
AlternateSubs2: "'ssty' Script Style in Mathematical Alphanumeric Symbols lookup 2 subtable" u1D6E7.s u1D6E7.ss
EndChar

StartChar: u1D6E8
Encoding: 120552 120552 165
Width: 829
GlyphClass: 2
Flags: HW
TeX: 653 5
ItalicCorrection: 73
TopAccentHorizontal: 517
HStem: -4 31<-6.84791 67.1081 211.781 271.812 414.065 490.244 626.227 681.382> 307 40<278.371 591.858> 621 32<191.506 246.027 378.734 456.977 611.199 664.734 798.911 873.108>
LayerCount: 2
Fore
SplineSet
13 -5 m 0
 -1 -5 -9 -1 -8 7 c 0
 -7 17 3 21 24 27 c 0
 68 39 86 46 96 78 c 2
 243 551 l 2
 257 596 257 611 213 621 c 0
 195 625 190 632 191 642 c 0
 192 650 206 653 220 653 c 0
 269 653 287 650 325 650 c 0
 363 650 389 653 437 653 c 0
 451 653 458 649 458 641 c 0
 457 631 445 625 424 621 c 0
 373 610 350 590 338 551 c 2
 278 357 l 2
 276 349 282 347 289 347 c 2
 600 347 l 2
 606 347 609 351 612 360 c 2
 672 552 l 2
 683 589 676 610 631 621 c 0
 613 625 609 631 610 641 c 0
 610 649 623 653 638 653 c 0
 686 653 714 650 755 650 c 0
 790 650 804 653 853 653 c 0
 867 653 875 650 874 642 c 0
 873 632 861 625 840 621 c 0
 791 611 780 591 768 552 c 2
 624 85 l 2
 614 51 621 35 659 27 c 0
 677 23 682 17 681 7 c 0
 680 -1 667 -5 653 -5 c 0
 605 -5 586 0 548 0 c 0
 509 0 482 -4 434 -4 c 0
 419 -4 413 0 413 8 c 0
 414 18 426 23 447 27 c 0
 492 36 519 55 533 97 c 2
 593 291 l 2
 596 299 599 307 592 307 c 2
 273 307 l 2
 267 307 264 302 262 294 c 2
 203 103 l 2
 187 50 207 37 250 27 c 0
 268 23 273 18 272 8 c 0
 271 0 259 -4 244 -4 c 0
 196 -4 168 0 126 0 c 0
 86 0 61 -5 13 -5 c 0
EndSplineSet
AlternateSubs2: "'ssty' Script Style in Mathematical Alphanumeric Symbols lookup 2 subtable" u1D6E8.s u1D6E8.ss
EndChar

StartChar: u1D6E9
Encoding: 120553 120553 166
Width: 705
GlyphClass: 2
Flags: HW
TeX: 664 14
ItalicCorrection: 5
TopAccentHorizontal: 442
HStem: -14 33<232.798 362.413> 295 81<320.802 448.517> 634 30<387.941 509.65>
VStem: 60 99<124.988 336.24> 292 28<378.591 420.356> 449 31<241.5 291.6> 585 99<309.256 525.226>
LayerCount: 2
Fore
SplineSet
288 -14 m 0
 137 -14 60 102 60 243 c 0
 60 441 211 664 456 664 c 0
 607 664 684 548 684 407 c 0
 684 209 533 -14 288 -14 c 0
290 19 m 0
 461 19 585 265 585 451 c 0
 585 543 546 634 453 634 c 0
 288 634 159 385 159 199 c 0
 159 107 197 19 290 19 c 0
457 240 m 0
 449 240 449 255 449 270 c 0
 449 287 439 295 416 295 c 2
 303 295 l 2
 279 295 262 282 248 267 c 0
 240 257 226 242 216 242 c 0
 207 242 209 262 219 275 c 0
 244 309 275 366 292 403 c 0
 299 418 306 422 312 422 c 0
 318 422 321 415 320 403 c 0
 320 389 328 376 344 376 c 2
 463 376 l 2
 482 376 503 386 515 399 c 0
 529 414 539 422 547 422 c 0
 553 422 560 416 553 406 c 0
 523 361 497 313 480 265 c 0
 475 253 469 240 457 240 c 0
EndSplineSet
AlternateSubs2: "'ssty' Script Style in Mathematical Alphanumeric Symbols lookup 2 subtable" u1D6E9.s u1D6E9.ss
EndChar

StartChar: u1D6EA
Encoding: 120554 120554 167
Width: 425
GlyphClass: 2
Flags: HW
TeX: 653 5
ItalicCorrection: 79
TopAccentHorizontal: 335
HStem: -5 31<-5.93271 74.7446 226.576 290.209> 621 32<197.289 254.605 394.736 475.006>
LayerCount: 2
Fore
SplineSet
15 -5 m 0
 1 -5 -8 -1 -7 7 c 0
 -6 17 6 22 27 26 c 0
 77 35 106 53 120 98 c 2
 259 550 l 2
 273 596 262 611 217 621 c 0
 199 625 195 632 196 642 c 0
 196 650 210 653 224 653 c 0
 273 653 298 650 341 650 c 0
 381 650 407 653 455 653 c 0
 470 653 477 649 476 641 c 0
 475 631 462 625 441 621 c 0
 390 610 368 595 354 550 c 2
 219 108 l 2
 203 54 219 37 263 27 c 0
 285 22 291 18 290 8 c 0
 289 0 276 -4 262 -4 c 0
 214 -4 183 0 141 0 c 0
 97 0 63 -5 15 -5 c 0
EndSplineSet
AlternateSubs2: "'ssty' Script Style in Mathematical Alphanumeric Symbols lookup 2 subtable" u1D6EA.s u1D6EA.ss
EndChar

StartChar: u1D6EB
Encoding: 120555 120555 168
Width: 785
GlyphClass: 2
Flags: HW
TeX: 655 5
ItalicCorrection: 83
TopAccentHorizontal: 487
HStem: -5 32<6.99204 86.6898 232.668 291.834 404.821 463.193 631.327 699.734> 323 26<305.362 319.869> 621 32<200.674 260.338 388.902 468.456 567.866 613.689 734.536 837.786>
LayerCount: 2
Fore
SplineSet
30 -5 m 0
 15 -5 6 -1 6 7 c 0
 7 17 20 23 41 27 c 0
 91 36 111 52 126 100 c 2
 264 551 l 2
 278 596 268 611 223 621 c 0
 205 625 200 631 200 640 c 0
 200 649 215 653 232 653 c 0
 278 653 302 651 342 651 c 0
 378 651 400 653 448 653 c 0
 463 653 470 650 470 642 c 0
 470 631 456 625 435 621 c 0
 384 610 375 601 360 551 c 2
 304 363 l 2
 301 352 305 349 316 349 c 0
 338 349 359 364 388 389 c 2
 585 563 l 2
 602 578 615 589 615 600 c 0
 616 606 608 613 591 618 c 0
 576 623 568 629 568 638 c 0
 568 647 586 651 601 651 c 2
 658 651 l 2
 715 651 776 655 822 655 c 0
 834 655 840 651 840 643 c 0
 840 634 824 626 803 623 c 0
 749 614 695 596 642 558 c 0
 561 498 496 440 411 362 c 0
 404 355 404 349 408 341 c 0
 482 201 538 122 583 76 c 0
 613 46 640 37 673 27 c 0
 692 21 700 18 700 8 c 0
 700 0 686 -5 668 -5 c 0
 612 -5 593 0 510 0 c 0
 482 0 471 -1 428 -1 c 0
 413 -1 405 3 405 11 c 0
 405 21 416 25 435 29 c 0
 473 37 471 48 454 78 c 2
 327 301 l 2
 319 317 299 323 294 323 c 0
 288 323 286 312 284 304 c 2
 228 107 l 2
 213 54 224 37 268 27 c 0
 286 23 292 17 292 8 c 0
 292 -1 277 -5 261 -5 c 0
 208 -5 192 2 154 2 c 0
 109 2 84 -5 30 -5 c 0
EndSplineSet
AlternateSubs2: "'ssty' Script Style in Mathematical Alphanumeric Symbols lookup 2 subtable" u1D6EB.s u1D6EB.ss
EndChar

StartChar: u1D6EC
Encoding: 120556 120556 169
Width: 697
GlyphClass: 2
Flags: HW
TeX: 676 5
TopAccentHorizontal: 551
HStem: -5 37<-50.3428 31.1556 156.504 212.006 319.695 405.037 547.022 609.537>
LayerCount: 2
Fore
SplineSet
-27 -5 m 0
 -43 -5 -50 -1 -51 9 c 0
 -52 20 -39 26 -19 32 c 0
 16 42 77 64 112 106 c 2
 484 557 l 2
 511 590 528 623 537 623 c 0
 569 623 581 633 599 649 c 0
 619 669 625 677 634 677 c 0
 642 677 646 669 640 636 c 2
 539 122 l 2
 528 65 544 38 582 29 c 0
 601 25 611 20 610 10 c 0
 610 2 600 -4 581 -4 c 0
 551 -4 491 1 449 1 c 0
 412 1 369 -1 342 -1 c 0
 327 -1 321 4 320 12 c 0
 318 22 336 28 352 32 c 0
 414 46 427 57 438 109 c 2
 529 532 l 2
 533 546 534 553 527 553 c 0
 523 553 518 550 509 541 c 2
 177 110 l 2
 135 60 156 38 186 31 c 0
 204 27 213 22 212 12 c 0
 212 3 199 -1 183 -1 c 0
 160 -1 126 1 90 1 c 0
 49 1 6 -5 -27 -5 c 0
EndSplineSet
AlternateSubs2: "'ssty' Script Style in Mathematical Alphanumeric Symbols lookup 2 subtable" u1D6EC.s u1D6EC.ss
EndChar

StartChar: u1D6ED
Encoding: 120557 120557 170
Width: 1041
GlyphClass: 2
Flags: HW
TeX: 658 14
ItalicCorrection: 68
TopAccentHorizontal: 646
HStem: -14 21G<407.757 413.057> -3 30<-14.5727 66.0175 186.012 236.709 626.836 694.299 868.711 923.611> 625 33<238.323 328.707 994.051 1081.24>
VStem: 392 88<285.643 503.925> 400 90<167.623 262.348>
LayerCount: 2
Fore
SplineSet
411 -14 m 0xa8
 405 -14 400 -4 400 11 c 0xa8
 404 175 400 335 392 498 c 0
 391 523 378 520 365 494 c 0
 306 379 255 266 207 151 c 0
 169 59 177 34 209 27 c 0
 227 24 238 20 237 10 c 0
 236 2 218 -3 204 -3 c 0
 153 -3 142 0 97 0 c 0
 60 0 44 -5 5 -5 c 0
 -11 -5 -19 -2 -18 6 c 0
 -17 16 -4 21 17 25 c 0
 72 37 102 57 148 148 c 2
 339 524 l 2
 368 581 359 612 274 625 c 0
 248 629 238 631 238 642 c 0
 238 653 255 658 279 658 c 0
 315 658 404 653 449 653 c 0
 481 653 481 628 480 577 c 2x70
 490 177 l 2
 491 151 503 157 518 174 c 0
 637 305 748 445 855 575 c 1
 871 603 877 618 888 636 c 0
 894 646 900 650 909 650 c 2
 950 650 l 2
 975 650 1028 658 1050 658 c 0
 1066 658 1081 652 1081 643 c 0
 1081 632 1070 624 1037 619 c 0
 979 610 966 600 947 533 c 0
 911 407 881 273 856 142 c 0
 841 65 858 35 900 27 c 0
 918 24 925 20 924 10 c 0
 923 3 910 -3 895 -3 c 0x68
 847 -3 809 7 765 7 c 0
 720 7 696 -3 647 -3 c 0
 632 -3 625 2 626 10 c 0
 627 19 639 24 659 29 c 0
 705 40 723 58 738 102 c 0
 783 245 812 354 844 485 c 0
 846 492 840 493 833 486 c 2
 548 156 l 1
 436 9 l 2
 425 -5 416 -14 411 -14 c 0xa8
EndSplineSet
AlternateSubs2: "'ssty' Script Style in Mathematical Alphanumeric Symbols lookup 2 subtable" u1D6ED.s u1D6ED.ss
EndChar

StartChar: u1D6EE
Encoding: 120558 120558 171
Width: 821
GlyphClass: 2
Flags: HW
TeX: 658 5
ItalicCorrection: 88
TopAccentHorizontal: 474
HStem: -5 31<-18.1926 53.0151 170.949 239.771> 620 31<602.774 678.594 794.384 880.041> 624 34<145.422 238.414>
LayerCount: 2
Fore
SplineSet
4 -5 m 0xc0
 -10 -5 -20 -1 -19 7 c 0
 -18 17 -11 21 10 26 c 0
 68 39 89 64 101 99 c 2
 242 522 l 2
 263 585 258 619 181 624 c 0
 159 626 145 633 145 644 c 0
 145 656 163 658 172 658 c 0xa0
 223 658 276 653 316 653 c 0
 329 653 338 646 344 635 c 2
 565 164 l 2
 568 158 576 147 582 147 c 0
 587 147 589 152 595 165 c 0
 610 204 694 479 705 532 c 0
 718 589 693 609 627 620 c 0
 609 623 603 629 603 638 c 0
 603 646 619 651 634 651 c 0
 674 651 708 647 743 647 c 0
 782 647 805 653 860 653 c 0
 876 653 882 649 882 641 c 0
 882 632 866 623 845 621 c 0
 795 616 782 604 759 544 c 0
 745 508 638 186 619 123 c 0
 612 98 613 86 623 67 c 0
 630 50 643 41 654 33 c 0
 665 24 673 19 673 8 c 0
 673 0 668 0 662 0 c 0
 621 0 598 -6 576 -6 c 0
 550 -6 538 3 527 28 c 0
 465 160 371 396 311 509 c 0
 304 521 296 529 290 529 c 0
 283 529 274 517 268 499 c 0
 239 403 183 233 152 100 c 0
 142 59 161 36 213 25 c 0
 231 21 241 18 240 8 c 0
 240 0 225 -4 210 -4 c 0
 159 -4 146 0 112 0 c 0
 70 0 43 -5 4 -5 c 0xc0
EndSplineSet
AlternateSubs2: "'ssty' Script Style in Mathematical Alphanumeric Symbols lookup 2 subtable" u1D6EE.s u1D6EE.ss
EndChar

StartChar: u1D6EF
Encoding: 120559 120559 172
Width: 717
GlyphClass: 2
Flags: HW
TeX: 675 8
ItalicCorrection: 51
TopAccentHorizontal: 467
HStem: -8 21G<5.24023 9.94043> 0 80<106.676 506.397> 298 81<277.884 472.949> 572 78<297.352 637.397> 656 20G<729.44 738.24>
VStem: 83 28<113.167 157.824> 249 29<382.655 424.61> 473 31<240.222 294.293> 639 34<514.002 566.718>
LayerCount: 2
Fore
SplineSet
649 511 m 0x3f80
 639 511 639 522 639 534 c 0
 641 559 629 572 598 572 c 2
 327 572 l 2
 277 572 256 564 225 538 c 0
 215 530 195 513 183 513 c 0
 173 513 175 525 187 540 c 0
 218 582 238 612 262 657 c 0
 269 671 282 678 289 678 c 0
 296 678 298 670 303 664 c 0
 311 653 341 650 369 650 c 2
 632 650 l 2
 661 650 692 656 706 664 c 0
 717 669 724 676 734 676 c 0
 742 676 742 664 735 653 c 0
 708 614 689 580 673 540 c 0
 668 526 659 511 649 511 c 0x3f80
181 239 m 0
 171 239 177 257 185 270 c 0
 199 294 242 386 249 404 c 0
 257 423 264 427 270 427 c 0
 276 427 280 420 278 408 c 0
 275 393 288 378 303 378 c 2
 491 378 l 2
 505 378 526 392 538 404 c 0
 550 414 555 421 563 421 c 0
 568 421 572 415 567 405 c 0
 546 364 515 302 504 265 c 0
 500 253 495 240 486 240 c 0
 480 240 474 251 473 262 c 0
 474 283 470 298 439 298 c 2
 274 298 l 2
 241 298 228 286 209 262 c 0
 204 255 189 239 181 239 c 0
10 -8 m 2xbf80
 1 -8 -4 4 2 12 c 0
 11 26 22 41 34 57 c 0
 49 79 68 109 83 138 c 0
 91 154 98 162 104 162 c 0
 112 162 112 151 111 143 c 0
 101 92 105 80 151 80 c 2
 452 80 l 2
 501 80 538 99 565 133 c 0
 571 141 589 161 601 161 c 0
 612 161 606 146 604 139 c 0
 600 126 546 56 528 14 c 0
 523 4 517 -8 507 -8 c 1
 504 -8 485 0 407 0 c 2
 97 0 l 2x7f80
 47 0 10 -8 10 -8 c 2xbf80
EndSplineSet
AlternateSubs2: "'ssty' Script Style in Mathematical Alphanumeric Symbols lookup 2 subtable" u1D6EF.s u1D6EF.ss
EndChar

StartChar: u1D6F0
Encoding: 120560 120560 173
Width: 705
GlyphClass: 2
Flags: HW
TeX: 664 14
ItalicCorrection: 5
TopAccentHorizontal: 442
HStem: -14 33<232.798 362.413> 634 30<387.941 509.65>
VStem: 60 99<124.988 336.24> 585 99<309.256 525.226>
LayerCount: 2
Fore
SplineSet
288 -14 m 0
 137 -14 60 102 60 243 c 0
 60 441 211 664 456 664 c 0
 607 664 684 548 684 407 c 0
 684 209 533 -14 288 -14 c 0
290 19 m 0
 461 19 585 265 585 451 c 0
 585 543 546 634 453 634 c 0
 288 634 159 385 159 199 c 0
 159 107 197 19 290 19 c 0
EndSplineSet
AlternateSubs2: "'ssty' Script Style in Mathematical Alphanumeric Symbols lookup 2 subtable" u1D6F0.s u1D6F0.ss
EndChar

StartChar: u1D6F1
Encoding: 120561 120561 174
Width: 857
GlyphClass: 2
Flags: HW
TeX: 653 5
ItalicCorrection: 73
TopAccentHorizontal: 533
HStem: -5 31<-5.93271 73.7322 225.024 286.209 427.592 502.521 653.426 713.808> 619 31<196.105 255.4 379.536 696.005 818.123 899.221>
LayerCount: 2
Fore
SplineSet
15 -5 m 0
 1 -5 -8 -1 -7 7 c 0
 -6 17 6 22 27 26 c 0
 76 35 105 53 119 98 c 2
 258 550 l 2
 272 596 261 611 217 621 c 0
 199 625 195 632 196 642 c 0
 196 650 210 653 224 653 c 0
 273 653 298 650 340 650 c 2
 551 650 l 2
 624 650 693 650 769 650 c 0
 809 650 832 653 881 653 c 0
 895 653 902 650 902 642 c 0
 901 632 889 625 868 621 c 0
 819 611 795 596 781 550 c 2
 643 98 l 2
 629 53 648 35 692 26 c 0
 710 22 715 17 714 7 c 0
 713 -1 699 -5 685 -5 c 0
 637 -5 612 0 570 0 c 0
 525 0 490 -4 442 -4 c 0
 427 -4 426 0 427 8 c 0
 428 18 433 22 454 26 c 0
 505 36 534 53 548 98 c 2
 693 567 l 2
 705 606 696 618 659 618 c 1
 643 618 558 619 542 619 c 1
 502 619 471 619 432 618 c 0
 391 618 371 607 359 568 c 2
 214 98 l 2
 200 53 219 36 264 26 c 0
 282 22 287 18 286 8 c 0
 285 0 272 -4 258 -4 c 0
 210 -4 181 0 140 0 c 0
 95 0 62 -5 15 -5 c 0
EndSplineSet
AlternateSubs2: "'ssty' Script Style in Mathematical Alphanumeric Symbols lookup 2 subtable" u1D6F1.s u1D6F1.ss
EndChar

StartChar: u1D6F2
Encoding: 120562 120562 175
Width: 646
GlyphClass: 2
Flags: HW
TeX: 656 5
ItalicCorrection: 22
TopAccentHorizontal: 399
HStem: -5 31<0.800337 81.6139 233.169 298.012> 248 29<319.272 409.542> 625 28<179.629 250.286 379.378 468.96>
VStem: 542 99<387.079 559.725>
LayerCount: 2
Fore
SplineSet
22 -5 m 0
 8 -5 0 -1 0 7 c 0
 0 17 14 22 35 26 c 0
 85 35 110 52 125 99 c 2
 261 540 l 2
 278 595 265 618 204 625 c 0
 185 627 179 632 180 641 c 0
 180 649 196 653 211 653 c 0
 229 653 281 652 312 652 c 0
 335 652 396 656 428 656 c 0
 557 656 642 585 641 471 c 0
 640 340 510 248 362 248 c 0
 344 248 319 252 319 264 c 0
 319 272 330 276 342 277 c 0
 359 279 376 283 394 287 c 0
 481 308 542 379 542 479 c 0
 542 570 491 626 402 626 c 0
 384 626 379 616 366 575 c 2
 223 108 l 2
 207 57 222 37 274 26 c 0
 292 22 298 18 298 8 c 0
 298 0 284 -4 268 -4 c 0
 220 -4 188 2 152 2 c 0
 106 2 71 -5 22 -5 c 0
EndSplineSet
AlternateSubs2: "'ssty' Script Style in Mathematical Alphanumeric Symbols lookup 2 subtable" u1D6F2.s u1D6F2.ss
EndChar

StartChar: u1D6F3
Encoding: 120563 120563 176
Width: 705
GlyphClass: 2
Flags: HW
TeX: 664 14
ItalicCorrection: 5
TopAccentHorizontal: 442
HStem: -14 33<232.798 363.173> 314 44<186 565.6> 634 30<388.793 509.65>
VStem: 60 99<124.988 310.206> 585 99<359.834 525.226>
LayerCount: 2
Fore
SplineSet
456 664 m 0
 607 664 684 548 684 407 c 0
 684 209 533 -14 288 -14 c 0
 137 -14 60 102 60 243 c 0
 60 441 211 664 456 664 c 0
453 634 m 0
 333 634 232 503 186 358 c 1
 575 358 l 1
 581 390 585 421 585 451 c 0
 585 543 546 634 453 634 c 0
290 19 m 0
 422 19 525 163 566 314 c 1
 174 314 l 1
 164 275 159 236 159 199 c 0
 159 107 197 19 290 19 c 0
EndSplineSet
AlternateSubs2: "'ssty' Script Style in Mathematical Alphanumeric Symbols lookup 2 subtable" u1D6F3.s u1D6F3.ss
EndChar

StartChar: u1D6F4
Encoding: 120564 120564 177
Width: 669
GlyphClass: 2
Flags: HW
TeX: 669 6
ItalicCorrection: 51
TopAccentHorizontal: 455
HStem: 0 85<174.568 498.458> 614 32<314.115 527.445> 651 20G<677.863 684.863>
VStem: 641 31<498.065 579.21>
LayerCount: 2
Fore
SplineSet
19 -6 m 0
 8 -6 -3 -1 -1 6 c 0
 1 14 15 30 46 55 c 0
 123 120 293 256 372 324 c 0
 378 329 378 334 376 339 c 0
 341 408 261 513 237 553 c 0
 218 586 202 607 191 629 c 1
 190 637 203 649 211 649 c 0
 280 647 354 646 438 646 c 0
 484 646 529 646 581 647 c 0
 611 647 642 649 651 655 c 0
 664 663 674 671 681 671 c 0
 688 671 695 667 692 652 c 0
 685 608 677 557 672 531 c 0
 670 516 665 497 653 497 c 0
 641 497 642 514 641 526 c 0
 640 553 634 572 622 584 c 0
 611 596 596 602 577 604 c 0
 521 609 394 614 331 614 c 0
 309 614 309 606 314 595 c 0
 332 556 441 405 464 371 c 0
 470 361 464 352 455 344 c 2
 171 109 l 2
 162 101 163 93 173 92 c 0
 215 86 281 85 416 85 c 0
 463 86 495 92 534 140 c 0
 549 157 562 173 575 173 c 0
 584 173 584 164 580 156 c 0
 548 101 507 40 494 13 c 0
 489 4 485 -5 475 -5 c 0
 447 -5 427 0 401 0 c 0
 338 1 160 1 122 0 c 0
 75 -1 60 -6 19 -6 c 0
EndSplineSet
AlternateSubs2: "'ssty' Script Style in Mathematical Alphanumeric Symbols lookup 2 subtable" u1D6F4.s u1D6F4.ss
EndChar

StartChar: u1D6F5
Encoding: 120565 120565 178
Width: 683
GlyphClass: 2
Flags: HW
TeX: 666 5
ItalicCorrection: 105
TopAccentHorizontal: 376
HStem: -5 29<63.6762 143.187 302.768 361.198> 614 30<177.339 330.601 439.316 601.051> 654 20G<136.544 143.744 692.745 700.645>
VStem: 59 61<525.714 563.298> 626 29<495.807 568.703>
LayerCount: 2
Fore
SplineSet
85 -5 m 0
 71 -5 63 -1 63 7 c 0
 64 17 77 20 98 24 c 0
 148 33 179 55 193 101 c 2
 317 528 l 2
 337 598 334 614 315 614 c 2
 241 614 l 2
 181 614 146 582 120 552 c 0
 102 532 83 502 70 502 c 0
 61 502 59 505 59 516 c 0
 59 520 62 531 70 546 c 0
 90 578 108 614 120 652 c 0
 124 663 133 674 140 674 c 0
 147 674 156 665 164 658 c 0
 173 650 182 644 245 644 c 2
 581 644 l 2
 648 644 661 652 669 658 c 0
 681 665 689 673 697 673 c 0
 705 673 707 668 706 661 c 0
 706 653 701 642 697 635 c 0
 685 615 666 568 655 515 c 0
 652 501 648 496 641 496 c 0
 631 496 626 505 626 522 c 0
 625 581 608 614 557 614 c 2
 470 614 l 2
 442 614 433 601 412 526 c 2
 288 101 l 2
 274 55 293 34 338 24 c 0
 356 20 362 18 361 8 c 0
 360 0 347 -4 332 -4 c 0
 284 -4 255 0 214 0 c 0
 169 0 134 -5 85 -5 c 0
EndSplineSet
AlternateSubs2: "'ssty' Script Style in Mathematical Alphanumeric Symbols lookup 2 subtable" u1D6F5.s u1D6F5.ss
EndChar

StartChar: u1D6F6
Encoding: 120566 120566 179
Width: 645
GlyphClass: 2
Flags: HW
TeX: 664 5
ItalicCorrection: 105
TopAccentHorizontal: 406
HStem: -5 31<81.2695 159.161 317.347 374.1> 607 57<158.809 256.928> 616 48<566.136 712.946>
LayerCount: 2
Fore
SplineSet
101 -5 m 0xa0
 87 -5 77 -1 79 7 c 0
 82 17 93 22 114 26 c 0
 164 35 196 60 210 106 c 2
 268 296 l 2
 313 445 306 607 202 607 c 0
 157 607 109 583 78 561 c 0
 72 557 67 560 67 566 c 0
 67 594 166 664 247 664 c 0xc0
 357 664 373 566 370 480 c 0
 370 477 373 477 375 480 c 0
 459 615 565 664 639 664 c 0
 693 664 735 636 746 597 c 0
 749 584 739 579 732 585 c 0
 705 609 672 616 643 616 c 0
 568 616 492 553 440 475 c 0
 408 427 377 347 364 302 c 2
 304 106 l 2
 291 63 307 36 352 26 c 0
 370 22 377 18 374 8 c 0
 372 0 361 -4 346 -4 c 0
 298 -4 271 0 229 0 c 0
 185 0 149 -5 101 -5 c 0xa0
EndSplineSet
AlternateSubs2: "'ssty' Script Style in Mathematical Alphanumeric Symbols lookup 2 subtable" u1D6F6.s u1D6F6.ss
EndChar

